<svg width="105" height="52" viewBox="0 0 105 52" fill="none" xmlns="http://www.w3.org/2000/svg">
<path d="M75.5332 1.94922C72.9222 1.94922 70.5737 2.87655 68.7467 4.65842C67.0229 6.36922 66.1392 8.46829 66.1392 10.8066C66.1427 13.4308 66.9914 15.386 68.8744 17.1332C70.5719 18.688 72.8749 19.5426 75.4334 19.5426C77.8309 19.5426 80.3264 18.584 81.9907 17.0292C83.6392 15.5039 84.6279 13.1882 84.6262 10.758C84.6227 8.31922 83.9209 6.40042 82.4212 4.81269C80.7009 3.00482 78.1897 1.94922 75.5332 1.94922ZM86.2169 2.17455H86.0122C85.8197 2.18669 85.5922 2.20922 85.4609 2.36522C85.3034 2.56282 85.3524 2.88522 85.3524 3.11402C85.3524 3.81602 85.3594 4.51802 85.3524 5.22349C85.3472 5.38989 85.3437 5.55629 85.3559 5.72269C85.3682 5.86135 85.3857 6.02949 85.5432 6.07282C85.8582 6.15949 85.9037 5.66549 85.9334 5.47309C86.0297 4.86989 86.1119 4.23722 86.5564 3.77095C86.9204 3.39482 87.4279 3.23362 87.9302 3.13482C88.3292 3.05855 88.7352 3.01695 89.1377 3.00309C89.7589 2.97882 90.3977 2.95802 91.0154 2.99442C91.2517 3.00655 91.5019 3.02389 91.6892 3.18509C91.8292 3.30295 91.8642 3.48322 91.8747 3.65829C91.9009 4.12629 91.8922 4.54749 91.8922 5.06749L91.8782 16.2007C91.8782 16.634 91.8887 17.0812 91.7504 17.5007C91.6279 17.8716 91.3392 18.1247 90.9804 18.2807C90.5604 18.4592 90.1159 18.4748 89.6679 18.5303C89.4929 18.5528 89.2164 18.5823 89.1639 18.7903C89.1079 19.0035 89.3214 19.1404 89.5034 19.1716C89.7309 19.2098 89.9724 19.1716 90.1982 19.1543C90.4257 19.1404 90.6567 19.1248 90.8859 19.1144C91.2779 19.0971 91.6699 19.0832 92.0619 19.0746C92.5729 19.0642 93.0839 19.0607 93.5949 19.0642C94.0552 19.0676 94.5154 19.078 94.9774 19.0919C95.3764 19.1092 95.7772 19.1266 96.1779 19.1526C96.4439 19.1699 96.7204 19.2271 96.9829 19.1647C97.1754 19.1179 97.3942 18.9619 97.2804 18.7435C97.1982 18.5806 96.9479 18.558 96.7904 18.5355C96.5577 18.5008 96.3232 18.4922 96.0904 18.4558C95.6739 18.3864 95.2259 18.2443 94.9407 17.9132C94.7184 17.6532 94.6432 17.3031 94.6152 16.972C94.5749 16.5595 94.5802 4.99815 94.5802 4.99815C94.5802 4.57002 94.5662 4.13495 94.5924 3.70855C94.6029 3.54215 94.6379 3.35495 94.7447 3.22322C94.8497 3.09495 95.0194 3.04989 95.1752 3.02562C95.4079 2.99095 95.6477 2.99095 95.8822 2.99095C96.7694 2.98055 97.6724 2.97362 98.5474 3.13482C99.0077 3.21802 99.4784 3.37402 99.8214 3.69989C100.21 4.06389 100.374 4.58909 100.469 5.09522C100.518 5.35869 100.516 5.67589 100.639 5.91509C100.703 6.03642 100.866 6.15082 100.994 6.03989C101.029 6.01042 101.05 5.96709 101.064 5.92375C101.125 5.74002 101.094 5.51642 101.094 5.32575V3.28909C101.094 3.07415 101.122 2.85229 101.094 2.63909C101.076 2.53855 101.05 2.43629 100.983 2.35482C100.878 2.22482 100.7 2.19189 100.542 2.18149C100.262 2.16069 99.9877 2.18842 99.7094 2.20402C98.1659 2.28722 96.6067 2.32535 95.0684 2.33922C94.4122 2.34789 93.7559 2.34962 93.1014 2.34962C92.4609 2.34962 91.8239 2.34615 91.1817 2.33922L89.6312 2.31322C88.6984 2.29242 87.7657 2.25255 86.8312 2.20922C86.6299 2.19882 86.4234 2.17802 86.2187 2.17455H86.2169ZM47.7974 2.25255C46.4027 2.24909 44.7874 2.37389 42.9849 2.37389C41.7477 2.37389 41.0354 2.32189 40.9427 2.32189C40.8079 2.32535 40.6504 2.33922 40.5402 2.42589C40.4352 2.50562 40.4177 2.65642 40.5104 2.75522C40.6242 2.88002 40.8202 2.90775 40.9829 2.92162C41.1824 2.93895 41.3854 2.95629 41.5849 2.99095C41.7687 3.02042 41.9437 3.06375 42.1047 3.13655C42.3969 3.26135 42.6419 3.49362 42.7522 3.81255C42.8624 4.13322 42.8852 4.51282 42.8852 5.06749V16.2995C42.8852 16.8663 42.8677 17.2528 42.7574 17.577C42.6524 17.9063 42.4074 18.1438 42.1029 18.2807C41.6742 18.4922 41.1999 18.4506 40.7484 18.5667C40.5419 18.6222 40.3284 18.818 40.4912 19.0382C40.5262 19.0902 40.5857 19.1283 40.6487 19.1508C40.8149 19.2132 40.9934 19.1907 41.1684 19.1803C41.4082 19.163 41.6497 19.1456 41.8912 19.1318C42.4442 19.1006 43.2247 19.0694 44.2397 19.0694C45.2547 19.0694 46.0352 19.1006 46.5882 19.1318C46.7772 19.1422 46.9732 19.1595 47.1657 19.1699C47.3547 19.182 47.5647 19.2115 47.7484 19.1699C47.8709 19.1456 47.9899 19.0919 48.0284 18.9671C48.0809 18.8111 47.9619 18.6586 47.8219 18.5979C47.6557 18.5251 47.4579 18.5286 47.2794 18.5026C46.8332 18.4332 46.3344 18.3604 46.0019 18.0311C45.8742 17.9063 45.7744 17.7538 45.7219 17.5804C45.6134 17.258 45.5994 16.8698 45.5959 16.3047L45.5854 11.434C45.9424 11.434 46.3449 11.3994 46.6809 11.5467C46.8909 11.6403 47.0484 11.7946 47.1989 11.987L52.6414 18.7522C52.8164 18.9671 52.9652 19.0538 53.1314 19.1075C53.2994 19.1595 53.5042 19.1699 53.7614 19.1699C54.1289 19.1699 54.5314 19.1439 54.9479 19.1439C56.5177 19.1439 58.4917 19.0867 60.0614 19.0746C61.1167 19.0624 62.1702 19.0746 63.2254 19.1318L63.8729 19.1699C64.1074 19.1872 64.4032 19.2392 64.6202 19.1231C64.7899 19.0312 64.8337 18.8163 64.6902 18.6776C64.6657 18.6534 64.6377 18.6326 64.6027 18.6152C64.4277 18.5338 64.2177 18.5338 64.0322 18.5112C63.7224 18.4766 63.4319 18.4419 63.1362 18.3379C62.7512 18.2027 62.4152 17.9947 62.2612 17.5995C62.1247 17.2702 62.0932 16.875 62.0914 16.3064V5.07442C62.0914 4.46082 62.1369 4.03962 62.2927 3.70162C62.4449 3.35842 62.7564 3.15389 63.0889 3.07069C63.4039 2.99442 63.7364 2.97362 64.0619 2.93202C64.2544 2.90602 64.7567 2.92509 64.7724 2.64255C64.7812 2.52122 64.6604 2.43975 64.5572 2.39989C64.3997 2.33575 64.2247 2.33402 64.0602 2.33055C63.9902 2.33055 63.6367 2.35829 63.0802 2.38255C62.5202 2.40855 61.7327 2.43455 60.7352 2.43455C59.9827 2.43455 59.2302 2.41722 58.4742 2.38255C58.2257 2.37215 57.9772 2.35482 57.7269 2.34789C57.4872 2.33749 57.2369 2.31842 56.9989 2.38255C56.8764 2.41722 56.7067 2.48309 56.7014 2.63215C56.6927 2.86095 56.9989 2.90602 57.1704 2.92682C57.4592 2.95802 57.7514 2.95455 58.0402 2.99615C58.2502 3.03082 58.4339 3.07242 58.6002 3.14522C58.8907 3.27175 59.1392 3.50229 59.2529 3.82122C59.3719 4.14362 59.3999 4.52669 59.4017 5.07615V16.3082C59.4017 16.8628 59.3737 17.2528 59.2442 17.5839C59.1147 17.9184 58.8469 18.149 58.5232 18.2876C58.1854 18.4315 57.8057 18.4904 57.4434 18.513C57.0444 18.5338 56.6279 18.5095 56.2587 18.3518C55.7162 18.1195 55.2349 17.7156 54.8534 17.2771L49.4599 11.0232C50.2824 10.8499 51.0979 10.6818 51.8504 10.2952C52.3054 10.0647 52.7254 9.76655 53.0754 9.39389C53.7334 8.67802 54.0817 7.75415 54.0834 6.57375C54.0764 4.98949 53.5514 3.96855 52.5259 3.28042C51.4969 2.58709 49.9009 2.25775 47.7887 2.25775L47.7974 2.25255ZM10.9739 2.32709C10.8987 2.33055 10.8217 2.33922 10.7464 2.34442C10.5084 2.35655 10.2669 2.37042 10.0254 2.37909C9.47069 2.40682 8.69019 2.43109 7.68919 2.43109C6.77219 2.43109 5.85519 2.40682 4.93819 2.35829C4.67569 2.34442 4.36069 2.28895 4.10519 2.37042C3.86719 2.44669 3.83044 2.72229 4.06144 2.83495C4.19794 2.90429 4.37294 2.91122 4.52169 2.92855C4.69319 2.94935 4.86294 2.96669 5.03269 2.99442C5.21819 3.02562 5.39144 3.06895 5.55419 3.14175C5.84469 3.26829 6.08969 3.49882 6.19819 3.82122C6.31019 4.13842 6.33294 4.51975 6.33469 5.07269V16.3047C6.33469 16.8732 6.31719 17.258 6.20694 17.5839C6.10194 17.9132 5.85694 18.1472 5.55244 18.2859C5.38269 18.3726 5.19894 18.4194 5.01519 18.4523C4.81744 18.487 4.61794 18.4956 4.42019 18.5268C4.26269 18.5494 4.03869 18.5736 3.94244 18.7123C3.84094 18.8579 3.89519 19.0486 4.04744 19.1318C4.24869 19.2392 4.50594 19.1872 4.72469 19.1716C4.93119 19.1578 5.13769 19.1422 5.34594 19.1318C5.89894 19.0971 6.67944 19.0694 7.69094 19.0694C8.70594 19.0694 9.48819 19.0988 10.0412 19.1318C10.2512 19.1439 10.4612 19.1664 10.6712 19.1838C10.9162 19.2011 11.4587 19.2878 11.5077 18.929C11.5182 18.8562 11.4937 18.7799 11.4499 18.721C11.3939 18.6516 11.3064 18.5996 11.2189 18.5771C10.9512 18.4991 10.6694 18.4956 10.3929 18.4488C10.2109 18.4142 10.0289 18.3656 9.85569 18.279C9.55294 18.1438 9.30269 17.908 9.19069 17.5804C9.07344 17.2546 9.05069 16.8646 9.05069 16.3012V10.8846H18.0527V16.3047C18.0527 16.8732 18.0352 17.258 17.9249 17.5839C17.8199 17.9132 17.5749 18.1472 17.2722 18.2859C17.1007 18.3726 16.9187 18.4194 16.7297 18.4523C16.4567 18.4991 16.1732 18.5008 15.9019 18.5771C15.7794 18.6118 15.6604 18.6638 15.6184 18.7972C15.5729 18.948 15.6657 19.0919 15.8074 19.1474C16.0699 19.2514 16.3849 19.182 16.6562 19.1612C17.5907 19.0884 18.5287 19.0694 19.4667 19.0746C20.4012 19.078 21.3392 19.0919 22.2667 19.1716C22.5257 19.1942 23.0332 19.286 23.1872 19.0018C23.2397 18.9047 23.2222 18.7764 23.1469 18.695C23.0909 18.6343 23.0104 18.6048 22.9317 18.5823C22.4732 18.4523 21.9867 18.5008 21.5492 18.2842C21.2517 18.149 21.0032 17.9132 20.8982 17.5856C20.7897 17.2598 20.7722 16.875 20.7704 16.3064V5.07442C20.7704 4.51975 20.7949 4.13842 20.9069 3.82295C21.1642 3.08455 21.9744 3.02042 22.6447 2.92162C22.8337 2.89215 23.1784 2.89042 23.2117 2.63909C23.2239 2.55935 23.1767 2.47962 23.1119 2.43109C23.0472 2.37909 22.9649 2.36175 22.8844 2.34789C22.6447 2.31322 22.4032 2.35309 22.1669 2.36175C21.9254 2.37042 21.6857 2.38429 21.4459 2.39295C20.7704 2.42069 20.0932 2.43282 19.4159 2.43282C18.4149 2.43282 17.6344 2.40855 17.0797 2.38082C16.8294 2.37042 16.5809 2.35829 16.3324 2.34269C16.1189 2.33229 15.7724 2.28375 15.6587 2.52469C15.6184 2.61135 15.6289 2.71882 15.7059 2.78469C15.7584 2.82455 15.8249 2.84535 15.8914 2.86269C16.3517 2.98402 16.8364 2.95455 17.2792 3.14522C17.5679 3.27175 17.8129 3.50229 17.9197 3.82469C18.0317 4.14189 18.0544 4.52322 18.0562 5.07615V10.0179H9.04719V5.07269C9.04719 4.46082 9.09094 4.03789 9.24669 3.70335C9.40069 3.35669 9.71219 3.15215 10.0447 3.07069C10.3947 2.98402 10.7622 2.93722 11.1192 2.88002C11.2207 2.86269 11.3292 2.83669 11.3992 2.75522C11.5392 2.58882 11.3729 2.39122 11.1997 2.34615C11.1262 2.32882 11.0492 2.32362 10.9722 2.32882L10.9739 2.32709ZM25.3239 2.33055C25.1717 2.33055 24.9564 2.34789 24.8654 2.48655C24.7744 2.62522 24.8777 2.78469 25.0142 2.84015C25.3064 2.95802 25.6582 2.94069 25.9662 2.99269C26.1517 3.02389 26.3267 3.06722 26.4877 3.14002C26.7782 3.26655 27.0232 3.49709 27.1317 3.81949C27.2419 4.13669 27.2647 4.51802 27.2664 5.07095V16.303C27.2664 16.8715 27.2489 17.2563 27.1387 17.5822C27.0337 17.9115 26.7887 18.1455 26.4842 18.2842C26.1762 18.4228 25.8367 18.4714 25.5042 18.5164C25.2714 18.5459 24.7692 18.558 24.8217 18.9151C24.8392 19.0503 24.9704 19.1439 25.1017 19.1751C25.2802 19.2132 25.4727 19.1838 25.6512 19.1751C26.3792 19.1335 27.1037 19.0884 27.8352 19.0763L28.6227 19.0711C34.3942 19.0711 37.5127 19.1959 37.9729 19.1924C38.1339 19.1924 38.2984 19.1924 38.4577 19.1682C38.6747 19.1335 38.8077 19.0226 38.8339 18.8042C38.8602 18.5962 38.8514 18.3795 38.8549 18.168C38.8602 17.9358 38.8724 17.7 38.8864 17.4678C38.9127 16.9998 38.9477 16.5318 38.9529 16.0638C38.9529 15.8107 38.9809 15.5264 38.8759 15.2907C38.8287 15.1867 38.7394 15.1174 38.6204 15.1278C38.5014 15.1347 38.4017 15.2231 38.3474 15.3271C38.2809 15.4536 38.2599 15.6114 38.2302 15.75C38.1952 15.9026 38.1567 16.0551 38.1077 16.2042C38.0429 16.4087 37.9502 16.6375 37.8067 16.875C37.4637 17.4539 36.9544 17.8578 36.2719 18.0883C35.5894 18.3171 34.7319 18.4003 33.6119 18.4003C32.6967 18.4003 32.0194 18.3535 31.4857 18.2166C30.9607 18.0831 30.5582 17.8231 30.3237 17.4244C30.1662 17.161 30.0822 16.8559 30.0314 16.5058C29.9614 16.0378 29.9544 15.4831 29.9544 14.7984L29.9772 10.7026C30.7559 10.7026 31.5609 10.6887 32.3169 10.914C32.4044 10.9383 32.4884 10.966 32.5724 11.0007C33.1324 11.2174 33.5314 11.6039 33.7712 12.1222C33.8762 12.3423 33.9549 12.5763 34.0162 12.8155C34.0634 13.0062 34.0862 13.2142 34.1877 13.3927C34.2892 13.5764 34.5202 13.618 34.6339 13.4274C34.7617 13.2194 34.7179 12.968 34.7004 12.7427L34.6479 12.032C34.5954 11.3214 34.5674 10.6142 34.5674 9.90522C34.5674 9.17029 34.6199 8.43882 34.6724 7.70389C34.6899 7.48202 34.7337 7.21509 34.6602 7.00015C34.5902 6.80949 34.3697 6.67949 34.1929 6.82682C34.0249 6.97069 34.0039 7.23069 33.9689 7.43002C33.9409 7.59989 33.9077 7.80789 33.8464 8.03149C33.7852 8.24469 33.7064 8.46482 33.5717 8.68495C33.2917 9.13562 32.9014 9.46149 32.3817 9.65562C31.8637 9.85495 31.2232 9.94682 30.3692 10.0058L29.9544 10.0318C29.9544 9.83242 29.9229 4.10375 29.9807 3.71202C29.9982 3.59935 30.0244 3.48669 30.0769 3.38962C30.2169 3.12615 30.5039 3.08282 30.7769 3.05682C31.0499 3.03255 31.3789 3.03255 31.8007 3.03255H32.0019C33.2217 3.03255 34.5219 3.07069 35.2692 3.24575C36.0094 3.41909 36.5817 3.75709 36.9422 4.33775C37.0699 4.53535 37.1487 4.74335 37.2012 4.94095C37.2537 5.14895 37.2817 5.33095 37.3062 5.47829C37.3289 5.61695 37.3464 5.76255 37.4042 5.88909C37.4689 6.02775 37.6212 6.11442 37.7752 6.07282C37.9099 6.03815 37.9852 5.91682 38.0027 5.78509C38.0307 5.57709 37.9852 5.36042 37.9607 5.15415C37.9292 4.88375 37.9082 4.61162 37.9082 4.33949C37.9082 3.62362 37.9869 3.16082 37.9852 2.99095C37.9852 2.82629 37.9502 2.71015 37.8977 2.62695C37.7892 2.46575 37.5862 2.41375 37.4042 2.38775C36.9002 2.31495 36.3804 2.34615 35.8712 2.34615C33.5087 2.34615 31.1042 2.42069 29.2807 2.42069C26.9112 2.42069 25.5427 2.31669 25.3257 2.32015L25.3239 2.33055ZM75.4352 2.56629C77.1939 2.56629 78.7374 3.30122 79.8067 4.69829C80.8777 6.09709 81.4867 8.13029 81.4867 10.7338C81.4867 13.3407 80.8392 15.3791 79.7437 16.7831C78.6499 18.1836 77.1012 18.9272 75.3827 18.9255C73.6537 18.9255 72.1137 18.1316 71.0392 16.7016C69.9612 15.2716 69.3312 13.2228 69.3312 10.687C69.3312 8.16322 69.9734 6.14215 71.0637 4.74162C72.1539 3.33762 73.7062 2.56629 75.4352 2.56802V2.56629ZM46.7877 2.84362C48.2402 2.84362 49.3427 3.13829 50.0882 3.83509C50.8354 4.53362 51.1557 5.58229 51.1557 6.94122C51.1592 8.26549 50.8232 9.27255 49.9797 9.90522C49.1449 10.5292 47.9182 10.7598 46.1927 10.7632L45.6047 10.7598V3.76749C45.6047 3.56815 45.6222 3.42602 45.6624 3.30295C45.7027 3.18162 45.7849 3.07762 45.8549 3.02909C46.0597 2.88349 46.3029 2.84709 46.7929 2.83842L46.7877 2.84362Z" fill="white"/>
<path d="M61.8583 22.0662C61.7358 22.0662 61.6518 22.1147 61.5678 22.2049C61.4943 22.2881 61.4226 22.4215 61.3631 22.5689L55.7403 35.8462C55.5128 36.3835 55.2766 36.9243 54.9703 37.4235C54.6903 37.8742 54.3053 38.285 53.7943 38.4843C53.4793 38.6057 53.1468 38.6577 52.8231 38.7409C52.7146 38.7686 52.5956 38.8067 52.5431 38.9038C52.4906 38.9905 52.5133 39.1066 52.5746 39.1863C52.6393 39.2661 52.7373 39.3111 52.8371 39.3319C52.9893 39.3666 53.1591 39.3614 53.3148 39.3545C53.6648 39.344 54.0096 39.3059 54.3561 39.2851C54.7113 39.2678 55.0701 39.2574 55.4271 39.2591C55.7473 39.2591 56.0693 39.2765 56.3896 39.3025C56.5523 39.3129 56.7168 39.3285 56.8796 39.3423C57.0406 39.3562 57.2086 39.3891 57.3696 39.3891C57.5621 39.4065 57.7616 39.4325 57.9471 39.3718C58.0346 39.3423 58.1361 39.2851 58.1676 39.1915C58.1798 39.1482 58.1798 39.1014 58.1676 39.0581C58.1151 38.8327 57.8176 38.7981 57.6303 38.7582C57.4273 38.7149 57.2278 38.6629 57.0406 38.5849C56.7921 38.4809 56.5681 38.3318 56.4036 38.0995C56.2408 37.869 56.2146 37.5657 56.2356 37.2953C56.2531 37.0353 56.3003 36.7857 56.3703 36.5326C56.4228 36.3471 56.4858 36.1617 56.5576 35.9814L57.6566 33.2653H63.9671L65.1168 36.2813C65.2271 36.5655 65.3216 36.8567 65.3898 37.1531C65.4598 37.4409 65.5351 37.7477 65.4563 38.0423C65.3233 38.5502 64.6653 38.6421 64.2226 38.7062C64.1998 38.7062 64.1771 38.7114 64.1526 38.7131C63.9426 38.7478 63.4491 38.779 63.3896 39.0425C63.3441 39.2453 63.5786 39.3458 63.7361 39.3753C63.9496 39.4151 64.1683 39.4099 64.3836 39.4013C64.5988 39.3943 64.8123 39.3874 65.0258 39.3735C65.7293 39.3285 66.4293 39.2643 67.1363 39.2591C67.8451 39.2522 68.5538 39.2903 69.2608 39.3215C69.3571 39.3267 69.4533 39.3354 69.5513 39.3354C69.8698 39.3493 70.2041 39.3943 70.5226 39.3527C70.6626 39.3319 70.8323 39.2661 70.8761 39.1187C70.9233 38.9627 70.7816 38.8414 70.6486 38.7929C70.4246 38.7062 70.1831 38.6941 69.9486 38.6455C69.7841 38.6109 69.6126 38.5658 69.4411 38.493C69.1138 38.3613 68.8426 38.1255 68.6116 37.8031C68.3771 37.4738 68.1741 37.0578 67.9501 36.5205L62.3851 22.6191C62.3116 22.4493 62.2311 22.2967 62.1541 22.2101C62.0666 22.113 61.9861 22.0662 61.8618 22.0645L61.8583 22.0662ZM69.1646 22.3609H68.9633C68.7708 22.3713 68.5398 22.3921 68.4103 22.5515C68.2493 22.7474 68.2983 23.0681 68.2983 23.2969C68.2983 24.0023 68.3071 24.7061 68.2983 25.4081C68.2948 25.5745 68.2913 25.7426 68.3036 25.9107C68.3141 26.0442 68.3333 26.2158 68.4891 26.2574C68.8041 26.3441 68.8478 25.8501 68.8793 25.6594C68.9756 25.0527 69.0543 24.4218 69.5006 23.9573C69.8628 23.5811 70.3703 23.4199 70.8726 23.3229C71.2698 23.2483 71.6723 23.2067 72.0801 23.1911C72.6996 23.1686 73.3366 23.1461 73.9561 23.1825C74.1923 23.1998 74.4426 23.2171 74.6316 23.3731C74.7716 23.4945 74.8066 23.6747 74.8153 23.8481C74.8451 24.3161 74.8328 24.739 74.8363 25.259L74.8188 36.3922C74.8188 36.8255 74.8311 37.2762 74.6928 37.6922C74.5703 38.0649 74.2851 38.3214 73.9281 38.4722C73.5081 38.6525 73.0601 38.6681 72.6156 38.7235C72.4406 38.746 72.1606 38.779 72.1081 38.9835C72.0521 39.1985 72.2656 39.3354 72.4476 39.3649C72.6751 39.4047 72.9166 39.3649 73.1441 39.351C73.3716 39.3337 73.6026 39.3198 73.8318 39.3077C74.2238 39.2903 74.6193 39.2765 75.0096 39.2678C75.5171 39.2556 76.0298 39.2505 76.5408 39.2557C77.0011 39.2591 77.4613 39.2678 77.9233 39.2834C78.3223 39.3007 78.7231 39.3181 79.1238 39.3458C79.3863 39.3631 79.6663 39.4151 79.9288 39.3545C80.1213 39.3094 80.3418 39.1551 80.2263 38.9385C80.1441 38.7738 79.8938 38.7478 79.7363 38.727C79.5036 38.6923 79.2708 38.6854 79.0398 38.6473C78.6198 38.5779 78.1718 38.4358 77.8883 38.1065C77.6643 37.8465 77.5908 37.4963 77.5611 37.1635C77.5261 36.7527 77.5383 36.3367 77.5383 35.9242L77.5261 25.1949C77.5261 24.765 77.5156 24.3282 77.5401 23.9018C77.5506 23.7371 77.5856 23.5482 77.6923 23.4165C77.7973 23.2899 77.9671 23.2431 78.1211 23.2189C78.3836 23.1807 78.6426 23.1842 78.9051 23.1842H78.7791C79.2603 23.1842 79.7416 23.1807 80.2228 23.2015C80.6498 23.2154 81.0768 23.2535 81.4951 23.3298C81.9553 23.413 82.4261 23.569 82.7726 23.8966C83.1576 24.2641 83.3203 24.7858 83.4148 25.2937C83.4638 25.5537 83.4621 25.8726 83.5863 26.1083C83.6493 26.2297 83.8138 26.3475 83.9398 26.2366C83.9748 26.2054 83.9958 26.1638 84.0098 26.1187C84.0711 25.935 84.0396 25.7114 84.0396 25.5207L84.0431 24.1635V23.4841C84.0431 23.2691 84.0693 23.0473 84.0396 22.8341C84.0256 22.7335 83.9976 22.6313 83.9311 22.5515C83.8261 22.4215 83.6476 22.3886 83.4901 22.3782C83.2101 22.3574 82.9353 22.3869 82.6571 22.4025L81.8416 22.4423C81.5196 22.4597 81.1976 22.4701 80.8756 22.4805C80.4556 22.4943 80.0321 22.5047 79.6103 22.5151C79.0766 22.5255 78.5428 22.5325 78.0143 22.5394C77.3581 22.5446 76.7018 22.5463 76.0473 22.5463C75.4086 22.5463 74.7698 22.5463 74.1293 22.5359C73.6113 22.5307 73.0968 22.5221 72.5788 22.5099C71.6443 22.4874 70.7116 22.4475 69.7788 22.4059C69.5758 22.3955 69.3693 22.3747 69.1663 22.3713L69.1646 22.3609ZM86.2306 22.3609H86.0258C85.8333 22.3713 85.6058 22.3921 85.4746 22.5515C85.3171 22.7474 85.3643 23.0681 85.3643 23.2969C85.3643 24.0023 85.3731 24.7061 85.3643 25.4081C85.3608 25.5745 85.3556 25.7426 85.3696 25.9107C85.3818 26.0442 85.3993 26.2158 85.5568 26.2574C85.8718 26.3441 85.9173 25.8501 85.9471 25.6594C86.0451 25.0527 86.1221 24.4218 86.5701 23.9573C86.9323 23.5811 87.4398 23.4199 87.9421 23.3229C88.3411 23.2483 88.7436 23.2067 89.1496 23.1911C89.7708 23.1686 90.4096 23.1461 91.0273 23.1825C91.2636 23.1998 91.5138 23.2171 91.7028 23.3731C91.8428 23.4945 91.8743 23.6747 91.8848 23.8481C91.9128 24.3161 91.9023 24.739 91.9058 25.259L91.8883 36.3922C91.8883 36.8255 91.9006 37.2762 91.7623 37.6922C91.6398 38.0649 91.3528 38.3214 90.9976 38.4722C90.5776 38.6525 90.1296 38.6681 89.6816 38.7235C89.5066 38.746 89.2301 38.779 89.1776 38.9835C89.1216 39.1985 89.3351 39.3354 89.5171 39.3649C89.7446 39.4047 89.9896 39.3649 90.2136 39.351C90.4411 39.3337 90.6721 39.3198 90.9013 39.3077C91.2951 39.2903 91.6888 39.2765 92.0808 39.2678C92.5883 39.2556 93.1011 39.2505 93.6121 39.2557C94.0706 39.2591 94.5308 39.2678 94.9893 39.2834C95.3918 39.3007 95.7943 39.3181 96.1916 39.3458C96.4576 39.3631 96.7341 39.4151 96.9966 39.3545C97.1926 39.3094 97.4096 39.1551 97.2976 38.9385C97.2101 38.7738 96.9651 38.7478 96.8041 38.727C96.5731 38.6923 96.3386 38.6854 96.1076 38.6473C95.6876 38.5779 95.2413 38.4358 94.9561 38.1065C94.7321 37.8465 94.6586 37.4963 94.6306 37.1635C94.5921 36.7527 94.5956 25.1914 94.5956 25.1914C94.5956 24.7615 94.5833 24.3247 94.6078 23.8983C94.6166 23.7337 94.6516 23.5447 94.7583 23.413C94.8598 23.2865 95.0313 23.2397 95.1871 23.2154C95.4233 23.1807 95.6596 23.1807 95.8958 23.1807C96.7831 23.1703 97.6861 23.1669 98.5611 23.3263C99.0213 23.4095 99.4886 23.5655 99.8386 23.8931C100.224 24.2606 100.386 24.7841 100.481 25.2902C100.53 25.5502 100.528 25.8691 100.651 26.1049C100.715 26.2262 100.878 26.3441 101.006 26.2331C101.041 26.2019 101.062 26.1603 101.076 26.1153C101.137 25.9315 101.106 25.7079 101.106 25.5173V23.4806C101.109 23.2657 101.134 23.0438 101.106 22.8306C101.088 22.7301 101.062 22.6278 100.995 22.5481C100.89 22.4181 100.71 22.3851 100.553 22.3747C100.273 22.3539 99.9961 22.3834 99.7196 22.399C98.1796 22.4822 96.6186 22.5203 95.0786 22.5342C94.4241 22.5394 93.7661 22.5411 93.1133 22.5411C92.4728 22.5411 91.8358 22.5411 91.1936 22.5307C90.6773 22.5255 90.1611 22.5169 89.6431 22.5047C88.7103 22.4822 87.7776 22.4423 86.8431 22.4007C86.6418 22.3903 86.4353 22.3695 86.2306 22.3661V22.3609ZM45.3961 22.4649C45.3611 22.4614 45.3226 22.4649 45.2876 22.4683C45.1196 22.4961 45.0076 22.6001 44.9201 22.7353C44.8203 22.8947 44.7276 23.1738 44.6296 23.4979L40.8181 36.1825L40.5258 35.2291L40.4436 34.9639C39.5336 32.0207 38.8108 29.6773 38.2946 27.9266C37.9936 26.9039 37.7696 26.0979 37.6191 25.4947C37.4703 24.8881 37.3916 24.4981 37.3881 24.2363C37.3881 24.1202 37.3968 24.0023 37.4406 23.8775C37.4756 23.7527 37.5596 23.6297 37.6681 23.5395C37.8343 23.4043 38.0391 23.3315 38.2421 23.2743C38.4748 23.2137 38.7093 23.1703 38.9473 23.1391C39.0996 23.1218 39.2536 23.1097 39.4023 23.075C39.5283 23.0455 39.6701 22.9918 39.6823 22.8445C39.6893 22.7179 39.5948 22.6018 39.4793 22.5602C39.3621 22.5134 39.1591 22.4909 38.9298 22.4909C38.0251 22.4909 36.9611 22.6174 35.8043 22.6191C34.0893 22.6191 33.0533 22.5186 32.7593 22.5186C32.6421 22.5221 32.4968 22.5151 32.3918 22.5706C32.3166 22.6053 32.2641 22.6815 32.2518 22.7647C32.2431 22.8393 32.2658 22.9207 32.3166 22.9762C32.4268 23.101 32.6456 23.1322 32.8013 23.1634C33.0008 23.1981 33.2038 23.2119 33.3998 23.2553C33.6973 23.3246 33.9703 23.4841 34.1576 23.7579C34.3501 24.0249 34.4848 24.3767 34.6528 24.8985L39.0138 38.4046C39.1083 38.6854 39.2011 38.9662 39.3218 39.2366C39.3848 39.3753 39.4653 39.5139 39.5843 39.6093C39.9081 39.8745 40.2668 39.6665 40.4663 39.3718C40.6151 39.1465 40.7551 38.7825 40.8916 38.3266L44.5246 26.4429L48.1086 38.5016C48.1786 38.7409 48.2486 38.9783 48.3483 39.2054C48.4288 39.3857 48.5443 39.6041 48.7333 39.6873C48.9258 39.7739 49.1656 39.6925 49.3178 39.5486C49.5068 39.3649 49.6083 39.1031 49.7081 38.8657C49.8656 38.4791 49.9828 38.077 50.1071 37.6801C50.1946 37.4114 50.2768 37.1427 50.3608 36.8758C50.4728 36.5205 50.5883 36.1651 50.6986 35.8046L51.0976 34.5341C51.2446 34.0695 51.3916 33.6033 51.5351 33.137C51.6926 32.6517 51.8431 32.1663 51.9971 31.681L52.4521 30.2371L52.8791 28.8765L53.2588 27.6701C53.3638 27.3407 53.4688 27.0114 53.5703 26.6821C53.6403 26.4533 53.7156 26.2227 53.7873 25.9922C53.8223 25.883 53.8573 25.7755 53.8888 25.6681C53.8888 25.6611 53.8923 25.6559 53.8941 25.6507C54.1041 24.9747 54.2721 24.4807 54.4786 24.1011C54.6816 23.725 54.9581 23.4477 55.3291 23.309C55.5163 23.2397 55.7141 23.1981 55.9031 23.1426C56.0553 23.0975 56.2233 23.0525 56.3353 22.9381C56.4333 22.8341 56.4491 22.6486 56.3108 22.5689C56.2111 22.5099 56.0833 22.5117 55.9713 22.5047C55.7876 22.4926 55.6038 22.5151 55.4236 22.529C55.0911 22.5533 54.7621 22.5706 54.4296 22.5706C53.8346 22.5706 53.2396 22.5585 52.6481 22.5325C52.2718 22.5151 51.8956 22.4857 51.5228 22.4735C51.2988 22.4666 50.8543 22.4787 50.8526 22.7907C50.8561 22.9537 50.9751 23.0507 51.1273 23.0854C51.2603 23.1201 51.4003 23.1201 51.5351 23.1409C51.9551 23.2015 52.4048 23.2969 52.7146 23.6019C52.9298 23.8273 53.0226 24.1219 53.0208 24.4131C53.0208 25.3405 52.7706 26.7445 52.1913 28.5697L49.9163 35.8895L46.1083 23.5569L45.9858 23.1634C45.9246 22.9658 45.8633 22.7335 45.6953 22.5914C45.6131 22.5221 45.5081 22.4787 45.3978 22.4701L45.3961 22.4649ZM60.9238 25.4063L63.6836 32.4489H57.9751L60.6351 26.0962L60.9238 25.4063Z" fill="white"/>
<path d="M22.2042 23.6419C21.9487 23.6419 21.6617 23.6818 21.359 23.7806C20.9215 23.9279 20.5837 23.9713 20.3352 23.9713C20.148 23.9713 20.0132 23.9453 19.9275 23.9245L19.8365 23.895L19.819 23.8881L19.6055 23.895L19.5705 23.9609L19.5005 24.0822V24.2001H19.4935C19.3955 24.2001 19.2835 24.1862 19.2012 24.1689L19.0612 24.1377L18.8687 24.1723L18.7812 24.3457V29.5214L18.9212 29.7242C18.9387 29.7277 19.4182 29.9149 20.1165 29.9149C20.3755 29.9149 20.6677 29.8889 20.974 29.8161C21.247 29.7519 21.5077 29.7242 21.758 29.7242C22.3232 29.7242 22.829 29.8681 23.277 30.0761L23.2822 30.0882L23.4922 30.1003C23.9525 29.8854 24.4775 29.7329 25.0602 29.7329C25.3 29.7329 25.5502 29.7589 25.8127 29.8195C26.105 29.8837 26.3902 29.9062 26.6475 29.9062C27.3527 29.9062 27.862 29.7294 27.876 29.7242C27.9635 29.6947 28.0212 29.6115 28.0212 29.5197V24.3439L27.9337 24.1706L27.7447 24.1359L27.5995 24.1671C27.512 24.1845 27.3947 24.2018 27.2915 24.2018L27.281 24.1983V24.077L27.211 23.9557L27.1812 23.8967H27.1777V23.8933L26.9625 23.8863C26.945 23.895 26.7735 23.9678 26.4445 23.9678C26.1995 23.9678 25.8565 23.9245 25.4225 23.7771C25.1162 23.6783 24.8327 23.6385 24.5772 23.6385C23.9997 23.6385 23.5885 23.8361 23.3907 23.9539C23.1947 23.8361 22.7852 23.6385 22.2077 23.6367L22.2042 23.6419ZM22.2042 24.0753C22.5332 24.0753 22.7992 24.155 22.983 24.2347L23.1702 24.3301V28.8419C22.9165 28.679 22.5332 28.5299 21.9627 28.5351C21.8052 28.5351 21.639 28.5455 21.4552 28.5698C20.9197 28.6391 20.3492 28.7379 20.0272 28.7362C19.9922 28.7362 19.9695 28.7327 19.9397 28.7293V24.4219C19.945 24.4046 19.9537 24.3925 19.9537 24.3769V24.3682C20.0587 24.3855 20.1812 24.4029 20.3387 24.4029C20.6362 24.4029 21.0247 24.3509 21.5025 24.1914C21.7615 24.1047 21.9977 24.0735 22.206 24.0735L22.2042 24.0753ZM24.572 24.0753C24.782 24.0753 25.0147 24.1065 25.2755 24.1931C25.7515 24.3526 26.14 24.4011 26.4375 24.4011C26.595 24.4011 26.7175 24.3873 26.8225 24.3665V24.3751C26.8225 24.3925 26.8347 24.4046 26.8365 24.4219V28.731L26.749 28.7362C26.4252 28.7362 25.8565 28.6374 25.321 28.5663C25.1372 28.5438 24.971 28.5317 24.8135 28.5317C24.2412 28.5317 23.858 28.6773 23.606 28.8402V24.3301C23.746 24.2434 24.0855 24.0701 24.5685 24.0735L24.572 24.0753ZM27.5785 24.6091V29.3585C27.3965 29.407 27.0587 29.4763 26.6422 29.4763C26.4112 29.4763 26.1592 29.4538 25.902 29.3966C25.6097 29.3273 25.3245 29.3013 25.055 29.3013C24.523 29.3013 24.04 29.4157 23.6095 29.5821L23.606 29.4139C23.6812 29.3065 23.9665 28.9754 24.8135 28.9685C24.9482 28.9685 25.0988 28.9789 25.265 28.9997C25.79 29.069 26.35 29.173 26.749 29.173C26.9012 29.1695 27.029 29.1643 27.1637 29.0933L27.2757 28.9026V24.6351H27.288C27.3965 24.6351 27.4927 24.6247 27.582 24.6126L27.5785 24.6091ZM19.217 24.6091C19.301 24.623 19.392 24.6351 19.49 24.6351H19.4987V28.9026L19.6107 29.0933C19.7437 29.1626 19.8733 29.1678 20.0255 29.1713C20.4227 29.1713 20.9845 29.0673 21.513 28.9979C21.6775 28.9806 21.828 28.9685 21.9627 28.9685C22.493 28.9685 22.7992 29.1071 22.9777 29.2285L23.1527 29.3914L23.1702 29.4087L23.165 29.5647C22.745 29.4018 22.276 29.2926 21.7597 29.2926C21.4797 29.2926 21.1822 29.3238 20.876 29.3966C20.6065 29.4607 20.351 29.4833 20.12 29.4833C19.8102 29.4833 19.5477 29.4417 19.364 29.4001L19.224 29.3619L19.217 24.6091ZM24.698 25.0425C24.2535 25.0425 23.8825 25.169 23.8702 25.1725C23.753 25.2106 23.6917 25.3337 23.7302 25.4463C23.7687 25.5607 23.893 25.6231 24.0067 25.585L24.0592 25.5677C24.1642 25.5382 24.4268 25.4758 24.6962 25.4775C24.8467 25.4775 24.999 25.4949 25.1285 25.5469C25.531 25.6925 25.8932 25.7722 26.1522 25.7722C26.2625 25.7687 26.357 25.7722 26.476 25.6855C26.5687 25.6093 26.581 25.4741 26.5075 25.3805C26.4375 25.2973 26.3185 25.2869 26.2275 25.3406L26.224 25.3337L26.154 25.3371C25.986 25.3371 25.6465 25.273 25.279 25.1361C25.083 25.0667 24.8817 25.0425 24.6945 25.0425H24.698ZM22.0485 25.0806C21.8612 25.0806 21.6582 25.1031 21.464 25.1742C21.0965 25.3129 20.7552 25.377 20.589 25.377L20.5225 25.3735H20.519V25.3787C20.4245 25.3267 20.309 25.3371 20.239 25.4203C20.1602 25.5122 20.1742 25.6491 20.267 25.7254C20.386 25.8121 20.4805 25.8086 20.5907 25.8121C20.8497 25.8121 21.2102 25.7323 21.6145 25.5867C21.744 25.5347 21.898 25.5174 22.0485 25.5174C22.2287 25.5174 22.4037 25.5434 22.5333 25.5694L22.6855 25.6093L22.738 25.6266C22.8517 25.6613 22.976 25.6023 23.0145 25.4879C23.053 25.3753 22.9918 25.2522 22.878 25.2141C22.864 25.2106 22.493 25.0858 22.0485 25.0841V25.0806ZM24.7435 26.2194C24.257 26.2194 23.851 26.3702 23.8405 26.3754C23.7268 26.4153 23.6655 26.5401 23.7092 26.6527C23.7513 26.7637 23.8772 26.8226 23.9892 26.781L24.047 26.7637C24.1642 26.729 24.4495 26.6545 24.7435 26.6545C24.8782 26.6545 25.0147 26.6718 25.1372 26.7065C25.5397 26.8278 25.8897 26.8971 26.147 26.8971C26.2607 26.8937 26.357 26.8971 26.4795 26.8105C26.5722 26.7342 26.5845 26.599 26.511 26.5054C26.441 26.4222 26.322 26.4118 26.231 26.4673L26.2275 26.4603L26.147 26.4673C25.9755 26.4673 25.636 26.4066 25.2632 26.2939C25.0882 26.2419 24.9132 26.2246 24.7435 26.2246V26.2194ZM22.003 26.2593C21.835 26.2593 21.6582 26.2766 21.4832 26.3286C21.1087 26.443 20.7692 26.5019 20.5995 26.5019L20.5242 26.4967H20.519L20.5155 26.5019C20.4245 26.4499 20.3055 26.4586 20.2355 26.5435C20.1602 26.6354 20.1742 26.7723 20.2705 26.8469C20.3895 26.9335 20.4857 26.9283 20.5995 26.9335C20.8532 26.9335 21.2067 26.8642 21.6092 26.7429C21.7317 26.7082 21.8682 26.6909 22.003 26.6909C22.199 26.6909 22.3915 26.7221 22.5333 26.755L22.6995 26.8001L22.7572 26.8174C22.871 26.859 22.997 26.8001 23.0372 26.6874C23.0792 26.5765 23.0197 26.4517 22.906 26.4101C22.8937 26.4066 22.4895 26.2593 22.003 26.2575V26.2593ZM24.7925 27.3773C24.2622 27.3773 23.8247 27.5506 23.809 27.5558C23.697 27.6009 23.6427 27.7257 23.6865 27.8383C23.7302 27.951 23.858 28.0065 23.97 27.9597L24.033 27.9423C24.159 27.8973 24.4705 27.8106 24.7925 27.8123C24.9115 27.8123 25.0305 27.8227 25.1425 27.847C25.5415 27.9423 25.8862 28.003 26.1365 28.003C26.2537 27.9995 26.3517 28.003 26.4777 27.9163C26.5705 27.8401 26.5827 27.7031 26.5092 27.6113C26.4392 27.5246 26.3202 27.5142 26.2292 27.5679L26.2257 27.561L26.2047 27.5679L26.1347 27.5714C25.9598 27.5714 25.622 27.5194 25.2422 27.4275C25.09 27.3929 24.9377 27.379 24.7907 27.379L24.7925 27.3773ZM21.954 27.4154C21.8087 27.4154 21.6565 27.4293 21.499 27.4674C21.1227 27.5541 20.7867 27.6095 20.6117 27.6061L20.5242 27.6026H20.519L20.5155 27.6078C20.4245 27.5523 20.3055 27.5627 20.2355 27.6477C20.1602 27.743 20.1742 27.8782 20.2705 27.9545C20.393 28.0411 20.4927 28.0377 20.6117 28.0411C20.8602 28.0411 21.2067 27.9805 21.6005 27.8886C21.716 27.8609 21.835 27.8487 21.954 27.8487C22.1692 27.8487 22.3792 27.8869 22.5315 27.925L22.7135 27.977L22.7747 27.9995C22.8885 28.0446 23.0163 27.9891 23.0582 27.8782C23.1037 27.7655 23.0495 27.6407 22.9357 27.5974C22.9217 27.5939 22.4842 27.4206 21.9557 27.4189L21.954 27.4154Z" fill="white"/>
<path d="M14.3879 43.4892C14.2654 43.5533 14.1289 43.6157 13.9504 43.7093C13.5392 43.9243 13.2154 44.0421 12.9249 44.2848C12.6362 44.5275 12.4314 44.8776 12.2634 45.4739C12.2372 45.5692 12.2774 45.668 12.3632 45.7165L12.6257 45.6871C13.2259 45.1237 13.5059 45.1151 13.8682 45.1047H14.0957C14.1832 45.1047 14.2777 45.1047 14.3757 45.0943C14.4982 45.0804 14.6119 45.0423 14.7257 45.0007C14.6854 45.0527 14.6504 45.1012 14.6067 45.1636C14.2689 45.6437 14.1779 46.1481 14.1797 46.5433C14.1797 46.9905 14.2917 47.3025 14.2969 47.3181L14.4947 47.4637L14.7047 47.3372C14.9497 46.7964 15.1474 46.4428 15.3259 46.2053C15.5009 45.9679 15.6549 45.8413 15.8509 45.7287C16.0837 45.59 16.4109 45.5484 16.6559 45.5501H16.6664V49.0792C15.6339 48.7325 12.9214 47.6544 10.3524 45.2208C9.80994 44.706 9.26744 44.1288 8.75469 43.4875L14.3879 43.4892ZM9.18169 39.4367C9.19044 39.6308 9.26394 39.8111 9.40569 39.9168C9.56319 40.0312 9.74519 40.0624 9.93419 40.0624C10.1144 40.0624 10.2754 39.9983 10.4154 39.9151C10.5554 39.8232 10.6744 39.7279 10.7392 39.5632C10.7567 39.5181 10.7567 39.48 10.7637 39.4367H15.6899V39.5545C15.6899 40.0659 15.6584 40.6985 15.6024 41.222C15.5762 41.4855 15.5429 41.7247 15.5079 41.9049C15.4764 42.0835 15.4257 42.2204 15.4204 42.2204C15.2979 42.4007 15.2104 42.5584 15.1317 42.7005H8.16144C7.48244 41.7472 6.86119 40.6639 6.33794 39.4332L9.18169 39.4367ZM4.73669 31.3212H6.86294C6.89269 31.368 6.91544 31.4165 6.94694 31.4529C6.92244 31.4633 6.89444 31.4633 6.86819 31.4772C6.56194 31.6245 6.44469 31.9383 6.45344 32.2052V32.2884C6.47794 32.6645 6.73344 32.9297 7.02569 33.0979C7.14469 33.1672 7.27594 33.214 7.40719 33.2608C7.29519 33.3735 7.24969 33.5139 7.23219 33.6179L7.22169 33.7305C7.22869 34.0599 7.44919 34.3077 7.69069 34.4984C7.73969 34.5365 7.79569 34.5625 7.85169 34.5955H4.99044C4.83819 33.5728 4.75244 32.4808 4.73494 31.3195M4.72444 27.2929H8.92794C8.80544 27.4663 8.75994 27.6691 8.75294 27.8892V27.9117C8.75294 28.1197 8.83344 28.3659 8.90519 28.5877C8.92269 28.6276 8.93319 28.6657 8.94719 28.7021C8.72494 28.7715 8.51319 28.9517 8.40469 29.2464C8.36969 29.3261 8.35569 29.4163 8.35569 29.5133C8.35569 29.808 8.52544 30.1616 8.92444 30.4493C8.91569 30.4545 8.90344 30.4545 8.89294 30.4615C8.85269 30.4788 8.81419 30.5065 8.77744 30.5343H8.26644C8.24369 30.4736 8.22444 30.4129 8.18594 30.3609C8.06869 30.1997 7.87969 30.094 7.65044 30.0559L7.51744 30.0472C7.23394 30.0403 6.93644 30.2205 6.81394 30.536H4.72444V27.2929ZM16.6647 25.8456C16.6384 25.7936 16.6122 25.7364 16.5772 25.6896C16.4984 25.596 16.4022 25.5284 16.2937 25.4764C16.3164 25.4036 16.3287 25.3291 16.3287 25.2459C16.3357 24.7657 16.0137 24.2752 15.4537 24.2007L15.3102 24.1903C15.1002 24.1903 14.9024 24.2648 14.7677 24.4069C14.6277 24.5491 14.5542 24.7363 14.5192 24.9443V24.9651C14.4947 24.9651 14.4754 24.9512 14.4527 24.9512C14.2304 24.9477 14.0379 25.0552 13.9277 25.1973C13.8174 25.336 13.7649 25.4972 13.7352 25.648L13.7212 25.8092C13.7212 25.9513 13.7562 26.0987 13.8139 26.2373C13.7859 26.2373 13.7544 26.2425 13.7317 26.246C13.6879 26.2512 13.6354 26.2755 13.5847 26.298C13.4797 26.194 13.3572 26.1073 13.1927 26.0761L13.0877 26.0657C13.0649 26.0657 13.0474 26.0779 13.0229 26.0831C13.0544 25.9669 13.0754 25.8612 13.0754 25.7624C13.0807 25.5509 12.9932 25.3707 12.8707 25.2632C12.7482 25.1523 12.6082 25.1037 12.4822 25.0899H12.4367C12.2512 25.0899 12.0517 25.1713 11.8627 25.3325C11.8539 25.3412 11.8487 25.3551 11.8399 25.3637C11.7524 25.3221 11.6509 25.2944 11.5424 25.2944L11.4777 25.2979C11.3867 25.3048 11.3062 25.3447 11.2292 25.3897C11.2047 25.2476 11.1592 25.1124 11.0717 25.0049C10.9492 24.8489 10.7462 24.7536 10.5292 24.7571C10.2597 24.7536 10.0269 24.8923 9.89044 25.0899C9.75044 25.2875 9.68569 25.5353 9.68569 25.7971C9.68569 25.8837 9.71194 25.9565 9.72944 26.0345C9.69444 26.0224 9.65944 26.0137 9.60694 26.012C9.40569 26.0085 9.22194 26.0935 9.10294 26.2304C9.03294 26.3101 8.99269 26.4037 8.96294 26.5043H4.72794V23.2179H16.6629L16.6647 25.8456ZM29.3172 30.5429H17.3769V23.2213H29.3154L29.3172 30.5429ZM12.1899 38.4556C12.1987 38.4036 12.2074 38.3724 12.2179 38.3395C12.2704 38.3811 12.3264 38.4435 12.3842 38.4729C12.5067 38.5371 12.6397 38.5631 12.7639 38.5596H12.8112C13.0562 38.5561 13.2662 38.4348 13.3799 38.2719C13.5549 38.0327 13.6004 37.7519 13.6844 37.4971C13.7632 37.2405 13.8594 37.0291 14.0519 36.9043C14.1954 36.8003 14.4544 36.7587 14.7169 36.7309C14.9882 36.9909 15.1684 37.2215 15.2839 37.4243C15.5394 37.8663 15.5289 38.2164 15.6234 38.6549H12.1584C12.1689 38.5856 12.1759 38.5163 12.1882 38.4591M9.72769 37.1487C9.75394 37.1071 9.76794 37.0689 9.79069 37.0273C9.79769 37.0343 9.80119 37.0447 9.80819 37.0447C9.83269 37.0672 9.86419 37.0793 9.89219 37.0967L9.69969 37.1885C9.70669 37.1764 9.71719 37.1643 9.72944 37.1504M9.16769 29.1095L9.22019 29.1164L9.43019 29.0367L9.45994 28.82C9.45994 28.82 9.38994 28.6553 9.31994 28.456C9.25344 28.2567 9.18694 28.0088 9.19044 27.9187V27.9065C9.19394 27.7211 9.23594 27.5945 9.28844 27.5321C9.34094 27.4697 9.40569 27.4281 9.58244 27.4247H9.58769L9.76269 27.4593L9.85894 27.5772C9.87119 27.598 9.88344 27.624 9.89394 27.65C9.93769 27.7644 9.97094 27.8753 9.99194 27.9845C10.0129 28.0885 10.0199 28.1839 10.0269 28.2792L10.0322 28.3624V28.5409L10.1057 28.6449L10.1617 28.7385H10.1687L10.1722 28.742L10.3209 28.7073L10.4084 28.69L10.4207 28.6796C10.4609 28.6397 10.5082 28.6016 10.5607 28.5756C10.6044 28.5496 10.6482 28.5375 10.6902 28.534C10.6989 28.534 10.7077 28.5288 10.7147 28.5288L10.8809 28.5669C10.8862 28.5669 10.8879 28.5704 10.8932 28.5739L11.0227 28.7125L11.0279 28.7264C11.0542 28.7992 11.0629 28.8963 11.0629 28.9899L11.0664 28.9968L11.0594 29.1528C11.0349 29.3192 10.9772 29.4891 10.7444 29.7941L10.7689 30.0836L11.0629 30.0888L11.0979 30.0593L11.4077 29.9068H11.4147C11.4969 29.9241 11.5442 29.9415 11.5844 29.9692L11.6142 29.99C11.6282 30.0039 11.6387 30.0299 11.6527 30.0489C11.6282 30.0836 11.6072 30.1009 11.5862 30.1408C11.5442 30.2188 11.5232 30.3263 11.5092 30.4389C11.5039 30.4701 11.4882 30.4875 11.4864 30.5221V30.5672C11.4864 30.7024 11.5214 30.8168 11.5634 30.9225L11.5739 30.9485C11.5809 30.9659 11.5862 30.9884 11.5949 31.0057L11.5249 31.0231C11.5127 31.0265 11.5004 31.0231 11.4864 31.03C11.3867 31.0647 11.2764 31.134 11.2099 31.2519C11.2047 31.2605 11.2064 31.2692 11.2029 31.2796C11.1627 31.3593 11.1434 31.4443 11.1382 31.5292C11.1382 31.5465 11.1277 31.5587 11.1277 31.5725C11.1277 31.5899 11.1399 31.6037 11.1417 31.6193L11.1522 31.7233C11.1644 31.7823 11.1924 31.8325 11.2152 31.8863C11.2274 31.914 11.2327 31.9452 11.2467 31.9695C11.3062 32.0735 11.3867 32.1671 11.4777 32.2555L11.4952 32.2728C11.5074 32.2867 11.5249 32.2936 11.5372 32.304C11.6282 32.3803 11.7227 32.4479 11.8137 32.5016L11.7612 32.5328C11.7122 32.5588 11.6614 32.5883 11.6107 32.6264C11.6054 32.6316 11.6002 32.6333 11.5932 32.6368L11.5879 32.6437C11.5582 32.668 11.5214 32.6871 11.4952 32.7165C11.4532 32.7616 11.4322 32.8119 11.4077 32.8639V32.8691C11.3657 32.9609 11.3377 33.0545 11.3324 33.1464V33.2192C11.3359 33.3267 11.3674 33.4272 11.4147 33.5243C11.4217 33.5416 11.4199 33.5676 11.4287 33.5832L11.3762 33.5693L11.2799 33.5572L11.2397 33.5468H11.2169C11.1539 33.5468 11.0909 33.5641 11.0332 33.5867C11.0104 33.5953 10.9912 33.6075 10.9719 33.6213C10.9544 33.63 10.9334 33.6387 10.9194 33.6508L10.8984 33.6803C10.8984 33.6837 10.8932 33.6855 10.8914 33.6889C10.8844 33.6889 10.8809 33.6855 10.8739 33.6837L10.7987 33.6612C10.7024 33.6265 10.5939 33.578 10.4837 33.5225L10.4207 33.4844C10.3472 33.4411 10.2772 33.3977 10.2142 33.3527C10.1547 33.3076 10.1022 33.2625 10.0567 33.2175C10.0304 33.1932 10.0042 33.1707 9.98669 33.1481C9.95169 33.1083 9.92369 33.0719 9.90269 33.0337C9.87119 32.9783 9.84494 32.9211 9.84669 32.8743L10.0217 32.8483L10.0357 32.8448L10.0532 32.8413C10.0987 32.8327 10.1582 32.8067 10.2072 32.7616L10.2352 32.7495C10.3087 32.6801 10.3454 32.5692 10.3437 32.4756V32.4513C10.3437 32.4201 10.3314 32.3941 10.3262 32.3647V32.3248L10.3227 32.2901C10.3192 32.2659 10.3087 32.2468 10.3052 32.2243C10.2912 32.1757 10.2754 32.1289 10.2579 32.0821C10.2404 32.0423 10.2229 32.0041 10.1984 31.966C10.1844 31.9435 10.1757 31.914 10.1599 31.8915L10.1197 31.8429L10.1022 31.8256C10.0934 31.8152 10.0899 31.8013 10.0777 31.7909C10.0602 31.7736 10.0322 31.7615 10.0112 31.7459L9.93244 31.6765L9.89394 31.6505C9.88169 31.6419 9.86419 31.6436 9.85019 31.6384C9.78894 31.6089 9.71019 31.5968 9.63319 31.5864C9.59294 31.5795 9.56319 31.5587 9.52294 31.5587H9.49844H9.47744L9.46519 31.5621H9.44769C9.31819 31.5448 9.24994 31.5067 9.20269 31.4547L9.15894 31.3212L9.10119 31.1773L9.08894 31.1427L9.08369 31.134L9.07144 31.1045C9.06619 31.0959 9.05394 31.0907 9.04694 31.082L9.04169 31.0733L8.97169 31.0092C8.98919 30.9347 9.01544 30.8965 9.09419 30.848C9.19569 30.796 9.36719 30.7613 9.53694 30.7336C9.62794 30.7163 9.69969 30.6469 9.71194 30.5533C9.72594 30.4615 9.67694 30.3696 9.59469 30.328L9.25344 30.1599C8.87719 29.9172 8.79844 29.6693 8.79494 29.5151L8.81244 29.4041C8.91744 29.1511 9.04344 29.1095 9.16769 29.1043M11.6177 25.6896C11.6282 25.6653 11.6352 25.6445 11.6492 25.6237C11.6369 25.6445 11.6282 25.6653 11.6177 25.6896ZM17.4574 38.6532L17.3769 38.4157V36.5697H17.4469L17.5659 36.6096L17.6009 36.6616V36.6703C17.6009 36.7119 17.5432 36.9355 17.5432 37.1764C17.5432 37.3671 17.5782 37.5924 17.7182 37.7883C17.9404 38.0881 18.2817 38.1835 18.5582 38.1817C18.6772 38.1817 18.7857 38.1644 18.8854 38.1384L19.1077 38.1072C19.2179 38.1072 19.2967 38.1349 19.3404 38.1661H19.5994L19.6764 37.9235L19.6642 37.8368C19.6642 37.7467 19.6992 37.6184 19.7902 37.4849C19.9022 37.3185 19.9914 37.0897 19.9914 36.8315C19.9914 36.6495 19.9424 36.4501 19.8164 36.2768C19.6484 36.0515 19.4069 35.9527 19.2039 35.8989C19.0062 35.8435 18.8137 35.8296 18.7839 35.8209L18.7489 35.7984L18.7314 35.7117L18.7367 35.6597L18.7927 35.5731L18.8487 35.5332L18.8714 35.5384C18.8942 35.5471 19.0184 35.6199 19.1637 35.684C19.3124 35.7481 19.4997 35.8123 19.7097 35.8123L19.9757 35.7776C20.2277 35.6909 20.4044 35.5176 20.5112 35.3339C20.6197 35.1484 20.6687 34.9525 20.6722 34.7827C20.6809 34.5573 20.7684 34.4083 20.8419 34.3597L20.9207 34.1171C20.8909 34.0269 20.8052 33.9663 20.7107 33.9663H20.7054C20.6214 33.9697 20.4604 33.9004 20.3257 33.7236C20.1542 33.5121 19.8532 33.2903 19.4612 33.2833C19.3684 33.2833 19.2722 33.3007 19.1759 33.3301C18.9099 33.4168 18.7419 33.6161 18.6264 33.7895C18.5127 33.9593 18.4392 34.1361 18.4199 34.1656L18.3744 34.1899L18.2764 34.1691L18.2484 34.1569L18.1662 34.0217L18.1837 33.9905C18.2012 33.9628 18.3499 33.8345 18.4812 33.6785C18.6089 33.5156 18.7437 33.2972 18.7472 33.0164C18.7472 32.7564 18.6352 32.5345 18.4917 32.3751C18.3482 32.2191 18.1767 32.1116 18.0139 32.0509C17.9002 32.0111 17.7864 31.9573 17.7094 31.9019L17.5869 31.7771C17.5572 31.6869 17.4749 31.6245 17.3769 31.6211H17.3734V31.3264H29.3032C29.2577 34.1933 28.7712 36.6131 28.0082 38.6584L17.4574 38.6532ZM17.9702 34.4897L17.9877 34.5036L17.9929 34.5088L18.0069 34.5192C18.0244 34.5261 18.1644 34.6197 18.3744 34.6232C18.5144 34.6301 18.7034 34.5539 18.7997 34.3805C18.8522 34.2939 18.9047 34.1621 18.9957 34.0252C19.0832 33.8865 19.1987 33.7756 19.3142 33.7392L19.4647 33.7149C19.6659 33.7115 19.8847 33.8605 19.9862 33.9923C20.0947 34.1275 20.2189 34.2315 20.3537 34.3043C20.2889 34.4395 20.2487 34.5937 20.2382 34.7653C20.2382 34.8659 20.2032 35.0045 20.1332 35.1172C20.0667 35.2299 19.9757 35.3183 19.8444 35.3599L19.7132 35.3807C19.5994 35.3807 19.4629 35.3391 19.3422 35.2871C19.2197 35.2351 19.1322 35.1779 19.0482 35.1415L18.8504 35.0999C18.6404 35.0999 18.5109 35.2247 18.4374 35.3148C18.3622 35.4084 18.3289 35.4916 18.3237 35.502L18.3114 35.5367C18.3079 35.5471 18.2939 35.6129 18.2939 35.71C18.2939 35.788 18.3027 35.8903 18.3587 35.9977C18.4112 36.1069 18.5337 36.2109 18.6842 36.2404C18.7892 36.2629 18.9292 36.2716 19.0867 36.3149C19.2442 36.3583 19.3877 36.4293 19.4594 36.5299C19.5242 36.6235 19.5504 36.724 19.5504 36.8315C19.5504 36.984 19.4909 37.1487 19.4227 37.2475C19.3247 37.3896 19.2722 37.5421 19.2477 37.6912C19.1987 37.686 19.1532 37.6739 19.1024 37.6739C18.9922 37.6739 18.8784 37.6912 18.7629 37.7224L18.5529 37.7484C18.3657 37.7484 18.1802 37.6877 18.0682 37.5335C18.0052 37.4468 17.9754 37.3168 17.9754 37.1764C17.9754 36.9909 18.0192 36.8263 18.0332 36.7119V36.6599C18.0384 36.4137 17.8547 36.2612 17.7287 36.2092C17.5974 36.1485 17.4889 36.1399 17.4749 36.1399H17.4574L17.3699 36.1364V35.8175C17.3997 35.8175 17.4224 35.8296 17.4487 35.8296C17.7952 35.8296 18.0787 35.5523 18.0787 35.2108C18.0787 34.8919 17.8337 34.6284 17.5222 34.5937C17.6762 34.6804 17.7812 34.8451 17.7812 35.034C17.7812 35.2767 17.6062 35.4725 17.3717 35.5193V32.1861C17.3997 32.2104 17.4242 32.2381 17.4522 32.2555C17.5747 32.3421 17.7147 32.4115 17.8582 32.4635C17.9527 32.4981 18.0752 32.5709 18.1627 32.668C18.2502 32.7668 18.3062 32.8812 18.3062 33.0199C18.3062 33.1412 18.2362 33.2851 18.1312 33.4099C18.0297 33.5381 17.9212 33.6283 17.8512 33.7045C17.7672 33.7981 17.7234 33.9177 17.7252 34.0235C17.7427 34.3303 17.9562 34.4741 17.9649 34.4915M14.6662 33.5329C14.6872 33.4931 14.7047 33.4497 14.7274 33.4151C14.7047 33.4497 14.6872 33.4931 14.6679 33.5329M13.6984 32.2156C13.7807 32.1341 13.8699 32.0596 13.9697 32.0007C13.8699 32.0579 13.7807 32.1341 13.6967 32.2156M14.5909 35.5748C14.4509 35.5471 14.3197 35.5107 14.1989 35.4656C14.0537 35.4084 13.9434 35.3529 13.8664 35.2992C13.8664 35.2957 13.8612 35.2923 13.8559 35.2888C13.8244 35.2663 13.7999 35.242 13.7772 35.2195L13.6757 35.0219L13.6197 34.9213L13.5952 34.8624L13.5864 34.8589L13.5812 34.852L13.4167 34.8312L13.3852 34.826C13.3047 34.8572 13.1927 34.8745 13.0824 34.878L13.0509 34.8815C12.9512 34.8815 12.8584 34.8641 12.7884 34.8381L12.7097 34.7688L12.6869 34.7445L12.6519 34.6683V34.6631L12.7569 34.4481L12.8409 34.3615L12.8689 34.3407L12.8742 34.3372L12.8812 34.3199C12.9267 34.2852 12.9617 34.2367 12.9687 34.1743C12.9687 34.1621 12.9582 34.1517 12.9564 34.1396L12.9617 34.1292L12.9512 34.1188C12.9372 34.0425 12.8934 33.9767 12.8164 33.9524C12.6204 33.8883 12.4559 33.8224 12.3159 33.7565C12.3019 33.7479 12.2879 33.7392 12.2722 33.734C12.1462 33.6699 12.0394 33.6092 11.9642 33.5485C11.8067 33.4185 11.7629 33.3232 11.7577 33.2244L11.7542 33.2071V33.1967C11.7577 33.0875 11.7944 33.032 11.8592 32.9748L12.0779 32.8708L12.0954 32.8639L12.2914 32.8015L12.4664 32.746C12.5539 32.7183 12.6169 32.6351 12.6169 32.538C12.6169 32.4444 12.5557 32.3612 12.4647 32.3335L12.4087 32.3127C12.3282 32.2849 12.2564 32.252 12.1864 32.2173C12.1129 32.1827 12.0394 32.1393 11.9589 32.0908C11.9134 32.0561 11.8644 32.0284 11.8259 31.9955C11.7909 31.966 11.7647 31.9365 11.7384 31.9088C11.6982 31.8689 11.6684 31.8308 11.6422 31.7944C11.6142 31.7528 11.5932 31.7112 11.5809 31.6731C11.5757 31.6557 11.5687 31.6349 11.5669 31.6211L11.5599 31.5587L11.5949 31.4599L11.7524 31.4252L11.7909 31.4287L11.9344 31.4425L12.0219 31.4079L12.1619 31.3507V31.2432L12.1584 31.1045L12.1409 31.0803C12.0639 30.9763 12.0114 30.8844 11.9764 30.8029C11.9537 30.7509 11.9449 30.6989 11.9362 30.6469C11.9292 30.6157 11.9152 30.5776 11.9152 30.5516V30.5481C11.9239 30.4476 11.9432 30.3869 11.9677 30.3401C11.9939 30.2881 12.0272 30.2465 12.0692 30.2084H12.0779C12.0832 30.2015 12.0919 30.198 12.0954 30.1911C12.1357 30.1529 12.2039 30.1183 12.2879 30.0992C12.3124 30.0923 12.3334 30.0819 12.3632 30.0819L12.4087 30.0853C12.4787 30.0888 12.5452 30.1027 12.5872 30.12L12.5994 30.1269L12.6729 30.2032L12.6834 30.2379C12.6939 30.2725 12.7009 30.3193 12.7062 30.3835C12.7097 30.3956 12.7114 30.406 12.7114 30.4216C12.7114 30.5013 12.6992 30.6053 12.6764 30.7267L12.6712 30.744V30.7527C12.6537 30.8445 12.6887 30.9399 12.7762 30.9867L12.8602 30.9745L13.0177 30.9693L13.0352 30.9485H13.0404L13.0929 30.8965L13.1104 30.8792L13.1979 30.7873L13.2802 30.744L13.4062 30.796L13.4272 30.8237C13.4482 30.8463 13.4692 30.8757 13.4919 30.9156L13.5094 30.9503C13.5497 31.0317 13.5794 31.1236 13.6004 31.2189C13.6179 31.2935 13.6319 31.3576 13.6389 31.4183L13.6494 31.4876C13.6582 31.5847 13.6669 31.6835 13.6669 31.7753C13.6669 31.8395 13.6617 31.8932 13.6582 31.9487C13.6582 31.9833 13.6547 32.018 13.6529 32.0492C13.6529 32.0579 13.6529 32.07 13.6494 32.0804C13.6389 32.1619 13.6267 32.2485 13.6144 32.3612C13.6092 32.3907 13.6214 32.4132 13.6267 32.4409C13.6302 32.4548 13.6267 32.4721 13.6354 32.4843C13.6494 32.512 13.6757 32.5328 13.7054 32.5536C13.7124 32.5605 13.7159 32.5709 13.7282 32.5779C13.7317 32.5779 13.7317 32.5813 13.7334 32.5813L13.9837 32.5397H13.9872C14.0572 32.4704 14.1132 32.4253 14.1622 32.3924C14.1744 32.3872 14.1797 32.3785 14.1919 32.3751C14.2392 32.3456 14.2794 32.33 14.3092 32.3335L14.3389 32.3369C14.3512 32.3369 14.3599 32.3421 14.3704 32.3456C14.4002 32.3543 14.4264 32.3629 14.4404 32.3716L14.4579 32.382C14.4667 32.3907 14.4754 32.3993 14.4789 32.4063L14.4894 32.4236C14.4999 32.4409 14.5069 32.4808 14.5122 32.538C14.5122 32.5519 14.5157 32.5605 14.5174 32.5779C14.5174 32.6819 14.4964 32.8171 14.4789 32.9661C14.4614 33.0615 14.4439 33.1533 14.4439 33.2539C14.4439 33.3492 14.4614 33.448 14.4912 33.5451C14.5087 33.5971 14.5472 33.6491 14.5734 33.7011C14.5997 33.7496 14.6119 33.7964 14.6469 33.8397L14.6504 33.8432L14.6592 33.8571L14.7817 33.8987L14.8517 33.9281H14.8604L15.0004 33.8137L15.0232 33.7964V33.7929L15.0354 33.7704C15.0652 33.7063 15.0914 33.6612 15.1177 33.6265C15.1737 33.5572 15.2227 33.5399 15.2577 33.5364C15.3154 33.5329 15.4379 33.5953 15.5447 33.7617C15.6497 33.9299 15.7284 34.2003 15.7372 34.5591V34.7116L15.7319 34.9369V35.0236L15.7214 35.1415C15.7039 35.3321 15.6777 35.4708 15.6479 35.5852C15.5254 35.6164 15.3679 35.6372 15.1877 35.6372C15.1317 35.6372 15.0722 35.6268 15.0162 35.6233C14.8762 35.6164 14.7362 35.606 14.5962 35.5765M13.7859 35.7603C13.6809 35.7048 13.5987 35.6476 13.5287 35.5869C13.5987 35.6476 13.6809 35.7048 13.7842 35.7603M11.8364 33.7323C11.7839 33.7097 11.7314 33.6872 11.6789 33.6681C11.7314 33.6855 11.7839 33.708 11.8364 33.7305M11.9467 32.5865C11.8994 32.564 11.8539 32.5432 11.8102 32.5172C11.8539 32.5432 11.8977 32.564 11.9467 32.5865ZM11.7279 29.5705C11.7927 29.6 11.8504 29.6399 11.9029 29.6867C11.8504 29.6399 11.7927 29.6 11.7279 29.5688M16.3409 34.124C16.3234 34.1639 16.3059 34.2055 16.2884 34.2384V34.2436L16.2184 34.3528L16.1834 34.3961H16.1694C16.1519 34.0616 16.0644 33.7617 15.9244 33.5364V33.5329C15.7669 33.2799 15.5394 33.1065 15.2699 33.1031H15.2647C15.1282 33.1031 15.0022 33.1551 14.8972 33.2417C14.8972 33.1516 14.9094 33.0511 14.9252 32.9471C14.9462 32.8171 14.9602 32.6992 14.9602 32.6004V32.5831V32.5692C14.9602 32.4999 14.9497 32.4219 14.9287 32.3473L14.9059 32.2919C14.8884 32.2537 14.8814 32.2139 14.8569 32.174L14.8272 32.148C14.8202 32.1376 14.8184 32.1237 14.8097 32.1133C14.7869 32.0891 14.7572 32.0787 14.7344 32.0613C14.7082 32.0388 14.6819 32.0163 14.6539 32.0007C14.6014 31.9712 14.5437 31.9487 14.4824 31.9313C14.4719 31.9279 14.4649 31.9209 14.4527 31.9209H14.4439L14.4264 31.9123L14.3127 31.9001C14.2392 31.9001 14.1727 31.9348 14.1027 31.9608V31.9573C14.1062 31.9053 14.1114 31.8637 14.1114 31.8083C14.1114 31.7147 14.1062 31.6107 14.0939 31.4876C14.0939 31.4807 14.0939 31.4651 14.0904 31.4564L14.0729 31.3247C14.0624 31.264 14.0484 31.2033 14.0344 31.1392C14.0239 31.0976 14.0204 31.0525 14.0082 31.0109C13.9959 30.9589 13.9732 30.9173 13.9557 30.8723C13.9557 30.8653 13.9522 30.8549 13.9487 30.8463L13.9417 30.8376C13.9242 30.8029 13.9102 30.7683 13.8892 30.7336L13.9592 30.7388L14.0589 30.7492C14.1639 30.7665 14.2654 30.7093 14.3039 30.6105C14.3389 30.5152 14.2987 30.4077 14.2129 30.354H14.2094V30.3488L14.1919 30.3401C14.1149 30.2881 14.0344 30.2257 13.9574 30.1599C13.8909 30.1027 13.8279 30.042 13.7649 29.9727L13.7124 29.9085C13.6512 29.834 13.5952 29.7525 13.5427 29.6624L13.4797 29.5584C13.4149 29.4301 13.3677 29.2915 13.3484 29.1424L13.3449 29.1199L13.3397 29.0332C13.3397 28.9985 13.3432 28.9777 13.3467 28.9587V28.9465L13.3642 28.9084L13.3992 28.8824L13.4832 28.8599C13.5304 28.8599 13.5969 28.8737 13.6704 28.8945L13.7229 28.9067C13.8017 28.9327 13.8874 28.9656 13.9802 29.0107H13.9854L13.9977 29.0193C14.1027 29.0661 14.2287 29.0193 14.2812 28.9153C14.3337 28.8113 14.2917 28.6865 14.1884 28.6311L14.1762 28.6241V28.6207H14.1709C13.9504 28.5167 13.8034 28.4127 13.7159 28.3173C13.6284 28.2203 13.5934 28.1353 13.5969 28.0747C13.5969 28.0053 13.6459 27.9187 13.7824 27.8233C13.8174 27.8025 13.8577 27.7835 13.9049 27.7644C13.9504 27.7471 14.0134 27.7401 14.0764 27.7349H14.0904C14.1919 27.7315 14.3004 27.7575 14.3984 27.7991C14.4299 27.8112 14.4597 27.8233 14.4929 27.8424C14.5332 27.8701 14.5682 27.9013 14.5927 27.9412C14.5927 27.9464 14.5979 27.9499 14.5997 27.9533C14.6277 28.0053 14.6452 28.066 14.6469 28.1579V28.1665C14.6469 28.2359 14.6364 28.3191 14.6067 28.4213C14.6032 28.4352 14.6102 28.4491 14.6067 28.4647C14.6067 28.4959 14.6014 28.5288 14.6137 28.56C14.6189 28.5669 14.6277 28.5704 14.6312 28.5773C14.6487 28.612 14.6697 28.6467 14.7012 28.664H14.7082V28.6675L14.9059 28.638L14.9759 28.6293C15.0424 28.56 15.0914 28.5253 15.1387 28.4907C15.1667 28.4733 15.1842 28.4612 15.2052 28.4525C15.2314 28.4421 15.2577 28.43 15.2699 28.43L15.3609 28.5167C15.3714 28.534 15.3819 28.5513 15.3907 28.5791L15.4047 28.6189C15.4169 28.6588 15.4274 28.7056 15.4362 28.7611C15.4397 28.7923 15.4432 28.8217 15.4432 28.8529L15.4467 28.9084L15.4397 28.9951C15.4362 29.0505 15.4257 29.1043 15.4152 29.1597C15.3977 29.2429 15.3802 29.3261 15.3504 29.4024C15.3504 29.4093 15.3469 29.4163 15.3434 29.4249C15.3084 29.5081 15.2734 29.5879 15.2349 29.6503L15.1299 29.8149L15.0984 29.8565L15.0914 29.8669V30.0108L15.0862 30.1425H15.0914C15.1614 30.2205 15.2699 30.2465 15.3609 30.1945L15.3697 30.1911C15.4484 30.146 15.5307 30.1148 15.6147 30.0905L15.6374 30.0819C15.7249 30.0576 15.8089 30.0472 15.8824 30.0472H15.8859L16.0732 30.0819C16.0784 30.0819 16.0802 30.0853 16.0854 30.0871L16.1729 30.1807C16.1852 30.2015 16.1957 30.2153 16.2079 30.2448L16.2884 30.6053C16.2954 30.6608 16.3007 30.692 16.3059 30.7128L16.3094 30.822C16.3094 30.9191 16.2954 31.0248 16.2114 31.2311C16.1327 31.4183 16.0504 31.5708 16.0364 31.8031C16.0329 31.914 16.1169 32.0076 16.2289 32.0249L16.2254 32.0284C16.2342 32.0353 16.4757 32.0752 16.6629 32.6559V33.0857C16.6192 33.2885 16.5632 33.5069 16.4932 33.7236C16.4407 33.8848 16.3917 34.0148 16.3497 34.1136M19.6344 46.7496L17.3769 45.3369V39.7816L18.4444 42.9363C18.4724 43.0229 18.5564 43.0836 18.6492 43.0836H20.9417L19.0919 44.4183L19.0097 44.6557L19.6344 46.7496ZM14.0624 26.6603L14.2199 26.6689C14.3197 26.6897 14.4229 26.6343 14.4614 26.5355C14.5017 26.4401 14.4649 26.3275 14.3739 26.2755C14.2619 26.2148 14.1534 25.986 14.1587 25.8127L14.1674 25.7329C14.1849 25.6255 14.2269 25.5249 14.2724 25.4695C14.3214 25.4175 14.3564 25.3897 14.4544 25.3863L14.5069 25.4036L14.6084 25.5596L14.6137 25.5665C14.6837 25.6636 14.8202 25.6827 14.9164 25.6133C15.0127 25.544 15.0354 25.4123 14.9689 25.3152L14.9374 25.1696L14.9549 25.024C14.9777 24.868 15.0284 24.7692 15.0827 24.712C15.1352 24.66 15.1964 24.6323 15.3102 24.6288L15.3977 24.6357C15.7127 24.6808 15.8877 24.9373 15.8929 25.2528L15.8684 25.3828L15.7949 25.4348C15.7074 25.4816 15.6584 25.5839 15.6812 25.6809C15.7039 25.778 15.7932 25.8473 15.8947 25.8473H16.0732L16.2342 25.9687L16.3287 26.2079L16.2114 26.3864C16.1344 26.4488 16.0137 26.4904 15.8719 26.5008L15.7809 26.5043H15.7529C15.6357 26.5043 15.5377 26.5944 15.5324 26.7123C15.5272 26.8284 15.6164 26.9289 15.7354 26.9376H15.7529L15.8264 26.9411C15.8404 26.9411 15.8527 26.9359 15.8667 26.9341L16.0732 26.9237L16.2027 26.948C16.3112 26.9827 16.3689 27.0347 16.4179 27.1213C16.4669 27.208 16.4949 27.3259 16.5002 27.4507L16.5054 27.6621C16.5054 27.8303 16.4879 28.0157 16.4389 28.1527C16.3864 28.2913 16.3234 28.3607 16.2009 28.4005C16.1029 28.4317 16.0382 28.5219 16.0469 28.6259C16.0539 28.7299 16.1344 28.8096 16.2359 28.8235C16.3987 28.8495 16.4354 28.8807 16.4739 28.9344C16.5142 28.9933 16.5492 29.1303 16.5614 29.3504C16.5737 29.4891 16.5789 29.6555 16.5789 29.8184V30.0091L16.5264 29.9293C16.5089 29.9051 16.5054 29.8773 16.4862 29.8531C16.4809 29.8496 16.4739 29.8496 16.4687 29.8444C16.4074 29.7785 16.3357 29.7231 16.2622 29.6936L16.2307 29.6832C16.2062 29.6728 16.1834 29.6693 16.1607 29.6624C16.0557 29.6312 15.9507 29.6156 15.8597 29.6139L15.7302 29.6243L15.7337 29.6156L15.7652 29.5428C15.7949 29.4596 15.8177 29.3643 15.8352 29.2655C15.8422 29.2377 15.8527 29.2135 15.8579 29.1857C15.8614 29.1857 15.8579 29.1805 15.8614 29.1788V29.1736C15.8719 29.1164 15.8737 29.0592 15.8789 29.0003C15.8789 28.9777 15.8877 28.9587 15.8877 28.9361V28.9136V28.9032L15.8842 28.8616L15.8754 28.7351C15.8754 28.7229 15.8702 28.7108 15.8667 28.7004C15.8579 28.638 15.8457 28.5791 15.8317 28.5271L15.7967 28.4231C15.7844 28.3936 15.7792 28.3624 15.7652 28.3364C15.7529 28.3087 15.7337 28.2844 15.7162 28.2567L15.7074 28.2428L15.7039 28.2359C15.6637 28.1787 15.6077 28.1267 15.5464 28.0851L15.4974 28.0573C15.4309 28.0227 15.3609 27.9984 15.2822 27.9984H15.2752L15.2664 27.9949C15.1929 27.9984 15.1369 28.0209 15.0809 28.0435C15.0774 28.0088 15.0704 27.9741 15.0634 27.9395C15.0634 27.9343 15.0599 27.9291 15.0582 27.9256C15.0302 27.8095 14.9707 27.6933 14.8727 27.5911L14.8377 27.5564C14.8149 27.5391 14.7974 27.5148 14.7677 27.4957L14.7432 27.4836L14.7187 27.4663C14.6767 27.4385 14.6312 27.4316 14.5909 27.4143C14.4264 27.3363 14.2637 27.2929 14.1219 27.2929C14.0519 27.2929 13.9872 27.3016 13.9294 27.3103V27.3016C13.9294 27.1716 13.9032 27.0104 13.8594 26.844C13.8454 26.7885 13.8279 26.7365 13.8069 26.6828C13.8629 26.6776 13.9609 26.6655 14.0572 26.6689M12.4402 26.3188L12.4577 26.5649L12.7027 26.6308C12.8304 26.5788 13.0054 26.506 13.0824 26.5095L13.1034 26.5129C13.2032 26.5303 13.2889 26.6065 13.3624 26.7469C13.3939 26.8111 13.4149 26.8752 13.4324 26.9376C13.4622 27.0589 13.4849 27.1855 13.4849 27.3155C13.4849 27.3848 13.4762 27.4507 13.4674 27.5148C13.4639 27.5148 13.4604 27.5183 13.4587 27.5217C13.4307 27.5425 13.4062 27.5651 13.3799 27.5911C13.3449 27.6223 13.3134 27.6604 13.2872 27.6951C13.2697 27.7159 13.2609 27.7367 13.2487 27.7575C13.2277 27.7956 13.2067 27.832 13.1909 27.8719C13.1734 27.9308 13.1594 27.988 13.1559 28.0521L13.1524 28.0695V28.0833C13.1524 28.2116 13.2049 28.3329 13.2749 28.4473L13.2574 28.4595C13.2469 28.4629 13.2399 28.4699 13.2312 28.4733C13.1752 28.4941 13.1227 28.5253 13.0772 28.5687C13.0702 28.5739 13.0597 28.5756 13.0544 28.5808C13.0422 28.5947 13.0369 28.6155 13.0282 28.6259C13.0072 28.6536 12.9809 28.6744 12.9652 28.7021C12.9529 28.7264 12.9477 28.7541 12.9389 28.7767L12.9302 28.7992C12.9022 28.8807 12.8864 28.9621 12.8864 29.0419C12.8864 29.0713 12.8969 29.0973 12.9004 29.1285L12.9039 29.184C12.9092 29.2152 12.9214 29.2429 12.9267 29.2707C12.9407 29.3573 12.9582 29.4353 12.9827 29.5099C13.0002 29.5567 13.0142 29.5965 13.0317 29.6347C13.0457 29.6659 13.0597 29.7109 13.0719 29.7387C13.0807 29.7508 13.0894 29.7595 13.0964 29.7733C13.1419 29.8652 13.1927 29.9501 13.2469 30.0281L13.2819 30.0801C13.3589 30.1841 13.4394 30.2708 13.5182 30.3523C13.5094 30.3523 13.5007 30.3575 13.4919 30.3609C13.4394 30.3401 13.3782 30.3297 13.3169 30.3263C13.3047 30.3263 13.2924 30.3141 13.2819 30.3141H13.2714L13.2329 30.3176C13.1979 30.3176 13.1752 30.3349 13.1454 30.3453C13.1384 30.2483 13.1244 30.1477 13.0807 30.0455C13.0457 29.9588 12.9704 29.8756 12.8794 29.808C12.8672 29.7993 12.8619 29.782 12.8497 29.7733C12.8322 29.7612 12.8147 29.7612 12.7972 29.7525C12.7797 29.7473 12.7692 29.7352 12.7534 29.7265C12.7307 29.7179 12.7132 29.7213 12.6904 29.7144C12.5924 29.6832 12.4979 29.6624 12.4104 29.6589C12.3964 29.6589 12.3842 29.652 12.3754 29.652L12.3579 29.6555H12.3229C12.2617 29.6555 12.2004 29.678 12.1392 29.6971C12.1217 29.6676 12.1147 29.6329 12.0867 29.6104L12.0622 29.5983C11.9152 29.522 11.6369 29.2516 11.5057 29.1129L11.5092 29.0713L11.5057 29.0124V29.0055V28.9951L11.4934 28.8287L11.4689 28.7021L11.4514 28.6085C11.4514 28.6016 11.4444 28.5964 11.4427 28.5912C11.4427 28.5843 11.4427 28.5791 11.4374 28.5704C11.4234 28.5357 11.3919 28.4976 11.3674 28.4595C11.3499 28.4248 11.3324 28.3901 11.3079 28.3607C11.2869 28.3364 11.2554 28.3208 11.2327 28.3L11.2397 28.2827C11.2484 28.2688 11.2607 28.2549 11.2747 28.2445C11.2782 28.2411 11.2834 28.2376 11.2922 28.2359C11.3272 28.2151 11.3849 28.196 11.4724 28.1839H11.4847L11.6019 28.1735C11.6894 28.1648 11.7909 28.1561 11.8994 28.1423L11.9414 28.1388H11.9554L12.0814 28.0227L12.1339 27.9776V27.9741L12.0464 27.7453L11.9414 27.6621C11.8364 27.5824 11.6842 27.4472 11.5634 27.2981C11.5494 27.2808 11.5424 27.2635 11.5284 27.2461C11.4357 27.1179 11.3709 26.9861 11.3709 26.8925L11.3744 26.8631C11.3797 26.8249 11.3867 26.8059 11.3919 26.7816L11.4059 26.7296L11.4199 26.7071L11.4304 26.6897L11.4777 26.6776C11.5302 26.6776 11.6352 26.7123 11.7279 26.7521C11.7332 26.7521 11.7367 26.7521 11.7419 26.7556L11.7524 26.7608L11.8994 26.7331L11.9869 26.7192V26.7157L12.0429 26.4835V26.4783C11.9904 26.3396 11.9694 26.2183 11.9677 26.1212V26.1004C11.9677 26.0085 11.9887 25.934 12.0167 25.8681L12.0394 25.8213C12.0744 25.7607 12.1094 25.7087 12.1567 25.6653C12.2582 25.57 12.4017 25.5267 12.4367 25.5319H12.4402L12.5767 25.5925C12.6117 25.6272 12.6397 25.6688 12.6432 25.7745C12.6432 25.882 12.6012 26.064 12.4507 26.3205M9.37769 26.8267L9.37069 26.74C9.37069 26.6464 9.40044 26.5736 9.44069 26.5285L9.60344 26.4592C9.62094 26.4661 9.71894 26.5112 9.80469 26.558C9.90619 26.6135 9.98844 26.6655 10.0409 26.6915L10.2999 26.6464L10.3297 26.3864C10.2019 26.1697 10.1302 25.9947 10.1302 25.8092C10.1302 25.6185 10.1792 25.4539 10.2527 25.3533C10.3279 25.2493 10.4067 25.206 10.5362 25.2025C10.6377 25.2025 10.6902 25.2337 10.7392 25.2892C10.7882 25.3464 10.8267 25.4504 10.8267 25.6012L10.8092 25.7745L10.9142 25.9947L11.1592 25.9825C11.2939 25.882 11.3867 25.8144 11.4427 25.7797L11.5214 25.7416H11.5512L11.5949 25.7589C11.5599 25.8508 11.5319 25.9565 11.5319 26.0779V26.1125C11.5319 26.1229 11.5372 26.1351 11.5389 26.1472C11.5389 26.1819 11.5442 26.2165 11.5477 26.2547C11.5249 26.2547 11.5057 26.2443 11.4829 26.2443H11.4794C11.4217 26.2443 11.3569 26.2529 11.2922 26.2789C11.2677 26.2876 11.2502 26.3067 11.2257 26.3205C11.1907 26.3379 11.1522 26.3552 11.1207 26.3864C11.1207 26.3864 11.1207 26.3899 11.1172 26.3916C11.1172 26.3968 11.1119 26.3968 11.1084 26.3985C11.0664 26.4453 11.0384 26.5025 11.0104 26.558C11.0104 26.5667 11.0017 26.5753 10.9982 26.5805C10.9929 26.5909 10.9912 26.6048 10.9877 26.6187C10.9737 26.6603 10.9632 26.7019 10.9562 26.7296L10.9474 26.7868L10.9439 26.8111L10.9404 26.8457L10.9334 26.8977C10.9404 27.1179 11.0332 27.3016 11.1487 27.4645C11.2222 27.572 11.3062 27.6691 11.3849 27.7523L11.3954 27.7627C11.3832 27.7627 11.3709 27.7679 11.3604 27.7696C11.3254 27.7731 11.2974 27.7748 11.2642 27.7835L11.2169 27.8008C11.1644 27.8181 11.1119 27.8389 11.0594 27.8701L11.0419 27.8788C11.0367 27.8788 11.0332 27.8892 11.0244 27.8961C10.9964 27.9135 10.9649 27.9308 10.9369 27.9585C10.9142 27.9828 10.8984 28.0175 10.8792 28.0452L10.8494 28.0903C10.8424 28.1024 10.8319 28.1111 10.8267 28.1249C10.7917 28.1197 10.7619 28.1007 10.7269 28.1007H10.7217H10.7182C10.6254 28.1007 10.5432 28.1215 10.4697 28.1475C10.4644 28.092 10.4522 28.0331 10.4434 27.9741C10.4434 27.9568 10.4399 27.9429 10.4364 27.9256C10.4294 27.8909 10.4277 27.8615 10.4189 27.8285C10.3874 27.728 10.3542 27.6171 10.3139 27.5079C10.3034 27.4871 10.3017 27.468 10.2929 27.4472V27.442C10.2807 27.416 10.2614 27.3969 10.2492 27.3727C10.2369 27.3519 10.2317 27.3311 10.2177 27.3103C10.2124 27.3051 10.2002 27.2999 10.1967 27.2929C10.1442 27.2184 10.0777 27.1543 9.99194 27.1023C9.98669 27.1023 9.98144 27.0936 9.97444 27.0901C9.85719 27.0277 9.73994 27.0104 9.63319 27.0035H9.58769C9.54919 27.0035 9.51769 27.0104 9.48269 27.0139C9.43019 26.9532 9.39519 26.9047 9.38119 26.8267M7.66619 33.7045L7.73094 33.5659C7.77119 33.526 7.87094 33.4671 8.08094 33.4168C8.18069 33.3925 8.25069 33.2989 8.24719 33.1967C8.24194 33.0927 8.16494 33.006 8.06169 32.9887C7.78169 32.9505 7.47719 32.8621 7.25669 32.7321C7.02919 32.5969 6.91194 32.4496 6.89969 32.2693V32.2139C6.90669 32.0284 6.94169 31.9452 7.07469 31.8724C7.10444 31.8516 7.24969 31.8308 7.50344 31.81C7.59794 31.8013 7.67494 31.7355 7.69594 31.6453L7.60319 31.4113C7.46319 31.3247 7.35294 31.2553 7.28819 31.186C7.22694 31.1115 7.19194 31.0508 7.19019 30.9017L7.19894 30.7804C7.23394 30.5724 7.37394 30.4961 7.53144 30.4892L7.58394 30.4944C7.73794 30.5221 7.80094 30.5707 7.84294 30.6261C7.88494 30.6816 7.91294 30.77 7.91294 30.9035C7.91294 30.9797 7.90244 31.0681 7.88494 31.1635C7.86744 31.2605 7.91994 31.3576 8.00744 31.3975L8.26644 31.3455L8.49744 31.2536L8.56219 31.2623L8.63219 31.2848L8.71094 31.3611C8.74069 31.4339 8.77044 31.5257 8.79494 31.6089L8.82994 31.8464C8.82994 31.9747 8.80194 32.0839 8.69344 32.2L8.68119 32.4877C8.75119 32.5744 8.87369 32.5917 8.96819 32.5328L9.00669 32.4981C9.01194 32.4947 9.01369 32.4895 9.01719 32.4843L9.05744 32.4461C9.11869 32.3629 9.19394 32.2451 9.28494 32.1445C9.37244 32.044 9.45994 31.9972 9.48619 32.0007L9.50019 31.9972C9.55969 31.9972 9.60519 32.0093 9.64019 32.0232C9.64719 32.0232 9.65769 32.0232 9.66119 32.0267C9.67344 32.0301 9.67869 32.0388 9.68919 32.044L9.78019 32.122C9.82919 32.1809 9.87119 32.2607 9.89394 32.3647V32.4305C9.87294 32.4305 9.85894 32.4392 9.82044 32.4444L9.72769 32.4583L9.67519 32.4877C9.65769 32.4964 9.64369 32.4947 9.62269 32.5051C9.61044 32.5103 9.60519 32.5259 9.59294 32.5328L9.51419 32.5761C9.50019 32.5935 9.50544 32.616 9.49319 32.6333C9.43544 32.7113 9.39344 32.7997 9.39869 32.8881C9.39869 32.9315 9.42144 32.9696 9.43369 33.0095C9.44419 33.0615 9.45119 33.1135 9.47394 33.1603C9.48444 33.1863 9.49844 33.2123 9.51244 33.2383C9.59994 33.4012 9.72944 33.5416 9.87294 33.6543C9.89919 33.6751 9.92894 33.6889 9.95519 33.7063C10.0322 33.7617 10.1127 33.8103 10.1932 33.8588C10.2247 33.8761 10.2562 33.8987 10.2929 33.9177C10.3279 33.9351 10.3577 33.9593 10.3944 33.9767C10.4854 34.0183 10.5642 34.046 10.6394 34.0703L10.6517 34.0755C10.6587 34.0755 10.6692 34.0807 10.6762 34.0841L10.7392 34.1067L10.7444 34.1725C10.7479 34.2072 10.7567 34.2419 10.7619 34.28C10.6919 34.254 10.6132 34.228 10.5344 34.2107C10.5082 34.2037 10.4819 34.2055 10.4539 34.2003C10.2737 34.1621 10.0917 34.1309 9.92894 34.1309H9.91144L9.87119 34.1275C9.83969 34.1275 9.80819 34.1396 9.77669 34.1448C9.74169 34.1483 9.70669 34.1517 9.67519 34.1621C9.63494 34.1691 9.59469 34.1864 9.55619 34.2055C9.53869 34.2124 9.51594 34.2124 9.49669 34.2263C9.48619 34.2315 9.48269 34.2436 9.47394 34.2471C9.38994 34.3077 9.31644 34.3736 9.27094 34.4481C9.22544 34.5244 9.20619 34.6041 9.20094 34.6821C9.20094 34.6908 9.19394 34.6995 9.19569 34.7099L9.19919 34.7237C9.01019 34.6197 8.81419 34.5296 8.60769 34.4811C8.41519 34.4325 8.15269 34.3129 7.96019 34.1639C7.76244 34.0165 7.65569 33.8415 7.66269 33.7409L7.66619 33.7045ZM8.51669 36.3427L8.29619 36.4172C8.20869 36.5247 8.10719 36.6477 8.00394 36.7344C7.89894 36.8245 7.79919 36.8696 7.70644 36.8696L7.50344 36.8055C7.42819 36.7535 7.40719 36.7101 7.40194 36.6148C7.39144 36.4137 7.62944 36.0601 7.95319 35.9388L8.08969 35.762L7.99694 35.5592C7.88844 35.4829 7.87444 35.4275 7.87444 35.4032L7.94094 35.3061C7.99869 35.2663 8.10194 35.2281 8.24894 35.2299L8.33994 35.2333C8.39244 35.2455 8.73544 35.32 9.08544 35.32C9.20444 35.3165 9.32519 35.3096 9.44069 35.2801H9.44419C9.45644 35.2767 9.46169 35.2697 9.47569 35.2663C9.51419 35.2559 9.54919 35.242 9.58069 35.2264C9.63319 35.1969 9.67519 35.1709 9.68569 35.1605L9.69094 35.1536L9.71194 35.1397L9.75744 35.0357L9.78019 34.9924V34.9837L9.71369 34.8277L9.64369 34.7064L9.67169 34.6544C9.68219 34.6423 9.70144 34.6249 9.72419 34.6076L9.84669 34.5677L9.91669 34.5643C10.1092 34.5677 10.3052 34.5955 10.4837 34.644C10.4889 34.644 10.4924 34.6475 10.4977 34.6492C10.6814 34.7012 10.8477 34.7705 10.9789 34.8399L10.9842 34.8433L11.2239 34.8173L11.2309 34.8L11.2957 34.5885L11.2922 34.5799C11.2712 34.514 11.2572 34.4533 11.2397 34.3927L11.2152 34.2783C11.2012 34.202 11.1907 34.1327 11.1907 34.0807L11.2047 33.994L11.2099 33.9871H11.2204L11.2904 33.994C11.4829 34.0373 11.6929 34.1153 11.8644 34.2124C11.9292 34.2471 11.9799 34.2887 12.0272 34.3337C12.0587 34.358 12.0972 34.3823 12.1199 34.4117C12.1759 34.4776 12.2074 34.5417 12.2249 34.6059L12.2389 34.6301L12.2354 34.6648V34.67L12.2529 34.774L12.1707 34.7688H12.1654H12.1619C12.0167 34.7688 11.8784 34.7931 11.7507 34.8295C11.7104 34.8416 11.6807 34.8641 11.6404 34.8815C11.5634 34.9092 11.4829 34.9335 11.4129 34.9803C11.4059 34.9803 11.4024 34.9907 11.3954 34.9941L11.3814 35.0028C11.3464 35.0271 11.3237 35.0635 11.2939 35.0929C11.2362 35.1449 11.1784 35.19 11.1364 35.2524C11.1014 35.3044 11.0944 35.3651 11.0752 35.4257C11.0542 35.4777 11.0227 35.5245 11.0157 35.5852V35.6303C11.0157 35.6424 11.0209 35.6511 11.0227 35.6649C11.0279 35.7308 11.0437 35.7949 11.0717 35.8556C11.0804 35.8764 11.0822 35.8989 11.0927 35.9163C10.9737 35.9163 10.8547 35.9041 10.7427 35.8903C10.6674 35.8781 10.5904 35.8677 10.5292 35.8556L10.4627 35.8504C10.4364 35.8469 10.4014 35.84 10.3752 35.8383L10.2912 35.8348L10.2737 35.8313L10.2684 35.8348H10.2632C10.1827 35.8348 10.1057 35.8435 10.0357 35.8625C10.0217 35.866 10.0094 35.8747 9.99369 35.8799C9.94119 35.8972 9.89394 35.918 9.84844 35.944L9.82744 35.9544C9.81344 35.9648 9.80644 35.9787 9.79244 35.9891C9.75744 36.0168 9.71894 36.0497 9.69094 36.0879L9.66294 36.1225C9.65419 36.1364 9.64019 36.1485 9.63319 36.1624C9.62269 36.1832 9.62269 36.1971 9.61219 36.2144C9.60344 36.2369 9.58769 36.2577 9.58069 36.2785L9.57019 36.3305C9.54569 36.4241 9.53519 36.5039 9.53519 36.5351V36.542C9.54219 36.5507 9.48269 36.7621 9.37769 36.906C9.26744 37.0655 9.13269 37.166 9.01019 37.1608L8.93319 37.1504L8.85619 37.0915C8.81069 37.0325 8.76869 36.9181 8.73894 36.802C8.71269 36.6841 8.69869 36.5801 8.68294 36.5021L8.51669 36.3427ZM9.74869 39.1264L9.90969 38.9635C9.96744 38.8941 10.0182 38.7797 10.0182 38.6567C10.0182 38.5405 9.92369 38.4435 9.80469 38.44C9.62269 38.4296 9.58419 38.3811 9.54219 38.3239L9.49494 38.1159V38.1124C9.48444 37.9183 9.69794 37.6721 9.87994 37.5924C10.0514 37.5057 10.3262 37.3844 10.5274 37.2804C10.6149 37.2388 10.6604 37.1487 10.6464 37.0551C10.6324 36.9632 10.5589 36.8904 10.4679 36.8731C10.3139 36.8471 10.1757 36.7864 10.0899 36.7171L9.97269 36.5177L10.0007 36.4137L10.0584 36.3305C10.0637 36.3253 10.0654 36.3201 10.0724 36.3167L10.0952 36.308C10.1302 36.2907 10.1774 36.2733 10.2579 36.2733H10.2842L10.3927 36.2855C10.4697 36.2924 10.5712 36.3097 10.6902 36.3253L10.7952 36.3392C10.9072 36.3531 11.0227 36.3635 11.1399 36.3635C11.2222 36.3635 11.3079 36.3392 11.3919 36.3288C11.4707 36.3184 11.5494 36.3201 11.6299 36.2941L11.6387 36.2837L11.7752 36.1312L11.7717 36.1208L11.7804 36.1104L11.7454 36.0411L11.7052 35.9249L11.6754 35.9076V35.9024C11.6457 35.8851 11.6282 35.8677 11.6054 35.8539C11.5704 35.8279 11.5407 35.8019 11.5144 35.7707L11.4917 35.7464C11.4654 35.7117 11.4567 35.6771 11.4532 35.6511L11.4497 35.6268C11.4497 35.6147 11.4584 35.6008 11.4602 35.5921C11.4654 35.5609 11.4724 35.5297 11.4952 35.4933C11.5162 35.4621 11.5529 35.4309 11.5897 35.3997C11.6072 35.3824 11.6159 35.3703 11.6352 35.3564C11.6824 35.3217 11.7402 35.2992 11.8032 35.2749C11.8259 35.2663 11.8434 35.2541 11.8697 35.2472C11.9572 35.2212 12.0517 35.2056 12.1497 35.2056H12.1654C12.2354 35.2056 12.3142 35.2229 12.3877 35.2403C12.4454 35.2524 12.4997 35.2576 12.5627 35.2801L12.6554 35.3148C12.7552 35.3529 12.8567 35.3963 12.9634 35.45L13.0124 35.4743L13.1559 35.5575C13.5899 35.8296 13.9399 36.074 14.2269 36.2993L14.3004 36.36C14.1359 36.3947 13.9679 36.4536 13.8174 36.5507C13.3904 36.8488 13.2994 37.3133 13.1997 37.6427C13.1507 37.8108 13.0999 37.9477 13.0422 38.024C12.9809 38.0933 12.9407 38.128 12.8042 38.1367H12.7727L12.5942 38.0985C12.5347 38.0673 12.4542 38.0049 12.3404 37.8905L12.0657 37.8559C11.9169 37.9477 11.8382 38.0933 11.8032 38.2199C11.7507 38.4071 11.7507 38.5787 11.7122 38.7017C11.6702 38.8231 11.6387 38.8924 11.4724 38.9704L11.3902 38.9843C11.3027 38.9843 11.1697 38.9323 11.0524 38.6965L10.8424 38.5717C10.7112 38.5769 10.5799 38.6376 10.5029 38.7347C10.3909 38.8785 10.3857 39.0241 10.3717 39.1437C10.3629 39.2651 10.3542 39.376 10.3332 39.4315L10.3279 39.4401C10.2929 39.5095 10.0479 39.6516 9.94294 39.6395C9.80294 39.6395 9.71544 39.61 9.68044 39.5823C9.64894 39.5511 9.62094 39.5216 9.61744 39.3968C9.62269 39.2408 9.65944 39.2131 9.74694 39.1247M14.6242 46.526C14.6312 46.2001 14.7047 45.8032 14.9742 45.4219C15.2419 45.0405 15.3627 44.914 15.4642 44.7892C15.5692 44.6592 15.6444 44.5292 15.7617 44.2467C15.8037 44.1496 15.7669 44.0387 15.6777 43.9797L15.3977 44.0144L15.3032 44.1115C15.1212 44.2935 14.6697 44.6488 14.3407 44.6765L14.1044 44.6869L13.8769 44.6835C13.6197 44.6783 13.3169 44.7285 12.9792 44.9088C13.0527 44.7909 13.1314 44.6973 13.2189 44.6228C13.4237 44.4443 13.7264 44.3247 14.1639 44.0993C14.5402 43.9017 14.8499 43.8081 15.1719 43.4407C15.4729 43.094 15.5622 42.7993 15.7897 42.4769C15.8719 42.3487 15.9034 42.2048 15.9472 41.9985C16.0644 41.3971 16.1397 40.3623 16.1397 39.5649C16.1397 39.1628 16.1222 38.8317 16.0697 38.6151C15.9752 38.2337 15.9997 37.7796 15.6759 37.2145C15.4712 36.8557 15.1334 36.4657 14.5594 36.0064C14.7467 36.0376 14.9322 36.0584 15.1159 36.0653C15.1422 36.0653 15.1719 36.074 15.1982 36.074C15.3329 36.0705 15.4537 36.0601 15.5657 36.0445H15.5832C15.6252 36.0376 15.6584 36.0237 15.6952 36.0168C15.7739 35.9995 15.8527 35.9873 15.9192 35.9648L15.9367 35.9475L15.9437 35.944L16.0434 35.84V35.8279L16.0487 35.8244C16.0837 35.7117 16.1187 35.5644 16.1484 35.3737C16.1554 35.3287 16.1607 35.2732 16.1659 35.2177C16.1799 35.1051 16.1869 34.9751 16.1887 34.8295H16.1939L16.2114 34.8243L16.3987 34.7827C16.4074 34.7775 16.4109 34.7688 16.4197 34.7653L16.4424 34.7567C16.4774 34.7324 16.5054 34.6977 16.5369 34.6648C16.5509 34.6475 16.5684 34.6371 16.5824 34.6197C16.6174 34.5799 16.6454 34.5279 16.6734 34.4724V45.122H16.6629C16.3777 45.122 15.9839 45.1567 15.6339 45.3577C15.3994 45.4964 15.1877 45.6749 14.9812 45.9523C14.8657 46.1048 14.7502 46.2937 14.6277 46.5243M5.13044 35.3807H7.43344V35.3911C7.43344 35.4916 7.46319 35.5887 7.51744 35.6771C7.18494 35.9059 6.96619 36.2491 6.95744 36.6044C6.95394 36.8159 7.06244 37.0447 7.27594 37.166C7.41594 37.2492 7.56294 37.2908 7.70119 37.2873C7.94094 37.2873 8.13519 37.1764 8.27869 37.0516C8.30494 37.0343 8.31369 37.0135 8.33644 36.9944L8.34694 37.0412C8.38194 37.14 8.42569 37.2457 8.49744 37.3411C8.56744 37.4364 8.67244 37.5248 8.81594 37.5612L9.00494 37.5855C9.09769 37.5855 9.17994 37.5647 9.26044 37.5335C9.14319 37.6895 9.05919 37.8749 9.05044 38.0933V38.1037C9.05394 38.1973 9.06269 38.3637 9.16594 38.5371C9.19219 38.5821 9.24819 38.6168 9.29194 38.6584L6.02994 38.6549C5.65719 37.6565 5.35269 36.5645 5.13044 35.3789M23.0994 45.7443C21.5419 47.0824 19.9844 47.9543 18.8224 48.4881C18.2379 48.7551 17.7549 48.9388 17.4172 49.0532L17.3787 49.0653V45.8483L19.8917 47.4256L20.1402 47.4135L20.2189 47.1795L19.4752 44.6783L21.7414 43.0385L21.8219 42.7959C21.7922 42.7092 21.7082 42.6468 21.6119 42.6468H18.8084L17.7269 39.4332H27.7019C26.5119 42.2273 24.8057 44.2657 23.0994 45.7425M17.0234 22.3945H3.89844V30.9225C3.89319 38.7503 7.13594 43.5585 10.3874 46.3613C13.6354 49.1693 16.8624 49.9979 16.9027 50.0083L17.0077 50.036L17.1127 50.0083C17.1477 49.9979 20.3852 49.1676 23.6437 46.3631C26.8987 43.5637 30.1537 38.7537 30.1502 30.926V22.398L17.0234 22.3945Z" fill="white"/>
<path d="M24.9095 31.6094C24.8133 31.6094 24.7275 31.6718 24.6995 31.7619C24.6767 31.8451 24.5595 31.9734 24.3495 32.0496C24.1885 32.1103 24.017 32.216 23.87 32.3738C23.7265 32.5298 23.6145 32.7551 23.6145 33.0151C23.6145 33.2924 23.7545 33.5126 23.884 33.6738C24.0118 33.835 24.1588 33.9598 24.1815 33.9858L24.1955 34.017L24.1552 34.1036L24.1237 34.147L23.989 34.1851L23.9452 34.1591C23.9277 34.1314 23.8508 33.9546 23.7388 33.783C23.6233 33.6096 23.4553 33.412 23.1893 33.3236C23.093 33.2942 22.9967 33.2786 22.904 33.2786C22.5102 33.282 22.2075 33.5074 22.036 33.7206C21.896 33.8939 21.7385 33.9632 21.651 33.9632H21.6475C21.5512 33.9632 21.4673 34.0239 21.4375 34.114L21.525 34.3567C21.595 34.4018 21.6825 34.5526 21.6895 34.7762C21.6965 34.9495 21.742 35.1436 21.8522 35.3308C21.9572 35.5128 22.1322 35.6879 22.386 35.7694L22.6537 35.8092C22.8637 35.8092 23.051 35.7434 23.1997 35.6792C23.345 35.6151 23.4692 35.544 23.492 35.5354L23.5165 35.5284L23.5865 35.5804L23.6268 35.6428V35.6498L23.6302 35.7018L23.6128 35.7919L23.5812 35.8144C23.5462 35.8231 23.3537 35.8387 23.1577 35.8924C22.9565 35.9479 22.7132 36.0484 22.5452 36.2703C22.4192 36.4471 22.3702 36.6447 22.3702 36.825C22.3702 37.085 22.4613 37.3138 22.5715 37.4802C22.659 37.6119 22.6992 37.7402 22.6975 37.8303L22.68 37.917L22.7622 38.1631H23.0212C23.065 38.1284 23.1438 38.1007 23.2523 38.1007L23.4745 38.1354C23.5725 38.1614 23.6845 38.177 23.8018 38.177C24.0818 38.177 24.4212 38.0834 24.6417 37.7818C24.7852 37.5842 24.8167 37.3606 24.8167 37.1699C24.8167 36.9272 24.7642 36.7054 24.7607 36.6672V36.6551L24.8133 36.5979L24.892 36.5719H24.9008L25.0162 36.6066L25.0547 36.6551V36.6655C25.0547 36.7054 24.997 36.929 24.997 37.1682C24.997 37.3588 25.0285 37.5842 25.172 37.7818C25.3925 38.0834 25.732 38.1804 26.012 38.177C26.1292 38.177 26.2395 38.1596 26.3375 38.1336L26.558 38.1024C26.6665 38.1024 26.747 38.1302 26.789 38.1631H27.0515L27.1285 37.9204L27.1145 37.8338C27.1145 37.7436 27.1495 37.6136 27.2422 37.4802C27.3525 37.3155 27.4418 37.0884 27.4435 36.8284C27.4435 36.6464 27.391 36.4471 27.265 36.2738C27.0987 36.0484 26.8572 35.9496 26.656 35.8924C26.4565 35.8404 26.2658 35.8231 26.2325 35.8162L26.1975 35.7954L26.18 35.7087L26.187 35.6567L26.243 35.57L26.299 35.5319L26.3217 35.5371C26.348 35.5492 26.4705 35.6203 26.6158 35.6844C26.7645 35.7486 26.9517 35.8144 27.1635 35.8144L27.433 35.7746C27.6833 35.6931 27.86 35.518 27.9667 35.3343C28.0717 35.1471 28.1207 34.953 28.1242 34.7796C28.1347 34.5543 28.2222 34.407 28.294 34.3636L28.3763 34.1175C28.3465 34.0308 28.2607 33.9667 28.1662 33.9684H28.161C28.0787 33.9719 27.9195 33.8991 27.7847 33.7258C27.6132 33.5143 27.3087 33.289 26.9167 33.2838C26.8222 33.2838 26.7242 33.2976 26.6297 33.3271C26.3637 33.4138 26.1922 33.6131 26.0785 33.7864C25.9682 33.9598 25.8947 34.1366 25.8755 34.1626L25.83 34.1903L25.7337 34.1678L25.7057 34.1574L25.6217 34.0187L25.6393 33.9892C25.6568 33.9632 25.8037 33.8384 25.9332 33.6772C26.0627 33.5178 26.1992 33.2959 26.201 33.0186C26.2045 32.7586 26.0907 32.5332 25.9472 32.3772C25.8037 32.2212 25.6323 32.1138 25.4695 32.0531C25.2595 31.9768 25.1405 31.8486 25.1195 31.7654C25.0898 31.6735 25.004 31.6128 24.9095 31.6128V31.6094ZM24.9095 32.2022C25.0198 32.3062 25.1545 32.3963 25.3172 32.457C25.4117 32.4916 25.5342 32.5644 25.6217 32.665C25.7092 32.762 25.7618 32.8764 25.7653 33.0151C25.7653 33.1364 25.6953 33.2803 25.5903 33.4051C25.4853 33.5334 25.3802 33.6218 25.3067 33.6998C25.2245 33.7916 25.1807 33.9112 25.1842 34.017C25.1982 34.3255 25.4117 34.4676 25.4222 34.4884L25.431 34.4954L25.4398 34.504L25.4625 34.5162C25.48 34.5231 25.6165 34.6202 25.83 34.6202C25.9647 34.6288 26.1572 34.5543 26.2535 34.381C26.306 34.2908 26.3585 34.1608 26.446 34.0222C26.537 33.887 26.6507 33.7743 26.768 33.7379L26.9167 33.7154C27.1162 33.7102 27.3367 33.8592 27.4365 33.9927C27.545 34.1262 27.6692 34.2302 27.804 34.3012C27.7392 34.4399 27.699 34.5959 27.6903 34.764C27.6868 34.8628 27.6517 35.0015 27.5852 35.1142C27.5187 35.2303 27.4277 35.317 27.2947 35.3603L27.1635 35.3776C27.0497 35.3776 26.9133 35.3378 26.796 35.284C26.6735 35.232 26.5825 35.1766 26.502 35.1402L26.3025 35.0968C26.0925 35.1003 25.9647 35.2234 25.8912 35.3135C25.816 35.4071 25.7827 35.4868 25.7775 35.5007L25.767 35.5354C25.767 35.5458 25.7495 35.6134 25.7495 35.7087C25.7495 35.7867 25.7583 35.889 25.8143 35.9964C25.8668 36.1056 25.9857 36.2096 26.138 36.2391C26.243 36.2616 26.383 36.2703 26.5405 36.3136C26.698 36.3535 26.8415 36.4263 26.9132 36.5268C26.9798 36.6204 27.0077 36.721 27.0077 36.8284C27.0077 36.981 26.9465 37.1439 26.88 37.241C26.7802 37.3866 26.7277 37.5356 26.705 37.6882C26.6525 37.6812 26.607 37.6708 26.558 37.6708C26.4478 37.6708 26.3305 37.6882 26.2167 37.7176L26.012 37.7454C25.823 37.7454 25.6393 37.6847 25.5273 37.5287C25.4625 37.442 25.4328 37.3138 25.4345 37.1734C25.4345 36.9879 25.4765 36.8232 25.4905 36.7088V36.6568C25.4957 36.4107 25.3067 36.2582 25.179 36.2062C25.046 36.149 24.934 36.1403 24.9217 36.1368H24.8867C24.8692 36.1403 24.7642 36.149 24.6295 36.2062C24.5035 36.2582 24.3198 36.4142 24.3215 36.6568L24.325 36.7088C24.3355 36.8232 24.3775 36.9862 24.3775 37.1734C24.3775 37.312 24.3512 37.4438 24.2865 37.5304C24.1745 37.6864 23.989 37.7471 23.8018 37.7488L23.5952 37.7211C23.4797 37.6899 23.3642 37.6726 23.254 37.6726C23.2015 37.6726 23.1577 37.6847 23.1105 37.6899C23.0842 37.5408 23.0317 37.39 22.9355 37.2444C22.869 37.1474 22.806 36.9844 22.8077 36.8319C22.8077 36.7227 22.834 36.6239 22.9023 36.5303C22.9723 36.4298 23.1157 36.357 23.2732 36.3154C23.4307 36.2703 23.5708 36.2634 23.6758 36.2408C23.828 36.2096 23.9487 36.1056 24.003 35.9982C24.059 35.889 24.0677 35.7867 24.0677 35.707C24.0677 35.6116 24.0503 35.544 24.0503 35.5336L24.0398 35.499C24.0345 35.4886 23.9995 35.4071 23.9242 35.3135C23.8542 35.2234 23.7213 35.1003 23.5148 35.0968L23.3153 35.1402C23.233 35.1748 23.1437 35.232 23.0212 35.284C22.9022 35.336 22.7657 35.3794 22.6537 35.3776L22.519 35.3603C22.3878 35.3152 22.2967 35.2286 22.2285 35.1124C22.1637 34.9998 22.1287 34.8611 22.127 34.7623C22.12 34.589 22.078 34.4364 22.0097 34.2995C22.1462 34.2302 22.2722 34.1262 22.3772 33.9875C22.4822 33.8575 22.701 33.7102 22.9023 33.7136L23.051 33.7379C23.1682 33.7726 23.282 33.8852 23.3695 34.0204C23.4605 34.1591 23.513 34.2891 23.5655 34.3792C23.66 34.5526 23.8507 34.6254 23.9855 34.6184C24.2042 34.615 24.3477 34.5144 24.3635 34.5092L24.3932 34.4867C24.402 34.4694 24.6173 34.3238 24.633 34.0152C24.633 33.9112 24.5927 33.7899 24.5105 33.698C24.437 33.6218 24.3285 33.5334 24.2253 33.4034C24.1255 33.2786 24.0502 33.1347 24.0537 33.0134C24.0537 32.8747 24.1097 32.7603 24.199 32.6615C24.2865 32.5627 24.409 32.4882 24.5035 32.4535C24.661 32.3946 24.801 32.3062 24.9095 32.2004V32.2022ZM24.9742 34.5907C25.1265 34.6774 25.2315 34.8438 25.2315 35.0327C25.2315 35.3152 25.004 35.5406 24.7187 35.5406C24.5297 35.5406 24.3635 35.4366 24.2742 35.2875C24.3127 35.5943 24.577 35.8318 24.899 35.8318C25.2455 35.8318 25.529 35.5544 25.529 35.213C25.529 34.894 25.284 34.6306 24.9725 34.5942L24.9742 34.5907Z" fill="white"/>
<path d="M77.8349 43.9336C77.7684 43.9336 77.7037 43.9336 77.6389 43.9423C77.1314 43.9908 76.6414 44.2196 76.3509 44.646C76.0709 45.0533 76.0219 45.5855 76.1759 46.05C76.3404 46.5423 76.7324 46.8733 77.1909 47.0952C77.6109 47.2945 78.0764 47.4245 78.4649 47.6915C78.8324 47.9463 79.0372 48.3363 78.9654 48.7835C78.8954 49.2168 78.5734 49.5392 78.1429 49.6328C77.6529 49.7403 77.1174 49.6085 76.7604 49.2515C76.5732 49.0608 76.4367 48.8216 76.3579 48.5685C76.3229 48.4576 76.2617 47.8804 76.0132 48.0572C75.9222 48.1265 75.9379 48.26 75.9467 48.3571C75.9572 48.4957 75.9607 48.6396 75.9642 48.78C75.9712 49.0452 75.9519 49.3 75.9239 49.5652C75.9134 49.6744 75.9467 49.8824 76.1112 49.8252C76.2162 49.7871 76.2599 49.6397 76.3177 49.5531C76.5487 49.6779 76.7674 49.8165 77.0177 49.9084C77.2679 49.9985 77.5304 50.0419 77.7982 50.0419C78.3197 50.0419 78.8622 49.8928 79.2682 49.56C79.6567 49.2445 79.8772 48.7921 79.8894 48.2947C79.9017 47.8336 79.7372 47.4107 79.4274 47.0813C79.3749 47.0293 79.3224 46.9773 79.2664 46.9305C78.8289 46.5631 78.2864 46.3585 77.7737 46.1245C77.3572 45.9339 76.8462 45.6947 76.8462 45.1712C76.8462 44.7413 77.1909 44.3947 77.5987 44.3132C78.0712 44.2231 78.5699 44.3964 78.8587 44.776C79.0214 44.9909 79.0809 45.244 79.1842 45.4867C79.2262 45.582 79.3032 45.6721 79.4117 45.6115C79.5114 45.556 79.5079 45.4277 79.5097 45.3307C79.5132 45.0256 79.4799 44.7205 79.5027 44.4155C79.5097 44.308 79.5307 44.1832 79.4747 44.0861C79.4222 43.9856 79.3137 43.9873 79.2367 44.0636C79.1667 44.1381 79.1282 44.2612 79.1019 44.3583C78.8692 44.2404 78.6592 44.1017 78.4072 44.022C78.2199 43.9648 78.0257 43.9353 77.8297 43.9353L77.8349 43.9336ZM92.4054 44.0203C92.2357 44.0168 92.0659 44.0307 91.8979 44.0376C91.4954 44.0549 91.0929 44.0619 90.6904 44.0688C90.1007 44.0775 89.5074 44.0792 88.9159 44.0723C88.4697 44.0671 88.0234 44.0584 87.5807 44.0428C87.3707 44.0341 87.1607 44.0203 86.9507 44.0168C86.8107 44.0133 86.6479 44.0255 86.6147 44.1849C86.5867 44.3271 86.6077 44.4883 86.6077 44.6321C86.6077 44.7916 86.6042 44.9511 86.6077 45.1123C86.6077 45.2076 86.5849 45.3983 86.6987 45.4451C86.7862 45.4797 86.8457 45.4139 86.8614 45.3411C86.9017 45.1504 86.9087 44.9528 87.0014 44.7812C87.2359 44.3617 87.9114 44.4172 88.3174 44.4172C88.4504 44.4137 88.5834 44.4137 88.7199 44.4137C88.8197 44.4137 88.9422 44.4033 89.0384 44.4484C89.1469 44.5004 89.1557 44.6217 89.1609 44.7309C89.1732 45.3411 89.1732 47.8163 89.1732 48.4455C89.1732 48.6968 89.2012 49.0001 89.1137 49.2393C89.0384 49.4473 88.8197 49.5028 88.6202 49.5305C88.5222 49.5444 88.3927 49.5375 88.3139 49.6068C88.2194 49.6865 88.2439 49.8269 88.3542 49.8755C88.4732 49.9275 88.6114 49.8876 88.7357 49.8789C88.8932 49.8685 89.0507 49.8616 89.2082 49.8616C89.5354 49.8512 89.8609 49.8512 90.1847 49.8581C90.3422 49.8633 90.4962 49.8755 90.6502 49.8876C90.7692 49.8997 90.9511 49.9223 91.0387 49.8183C91.2539 49.5583 90.6712 49.5323 90.5557 49.5028C90.2844 49.4369 90.1794 49.274 90.1619 49.0053C90.1444 48.7072 90.1444 48.4056 90.1444 48.1075C90.1444 47.4748 90.1497 44.9701 90.1549 44.7881C90.1584 44.6443 90.1427 44.5247 90.3037 44.4709C90.5487 44.3895 90.8321 44.4155 91.0842 44.4189C91.3362 44.4189 91.5952 44.4189 91.8419 44.4744C92.0799 44.5264 92.2672 44.6477 92.3547 44.8835C92.4019 45.0117 92.4124 45.1435 92.4369 45.2787C92.4579 45.4 92.5874 45.5439 92.6767 45.3775C92.7397 45.2596 92.6994 45.0724 92.6994 44.9441V44.4761C92.6994 44.3652 92.7274 44.2057 92.6644 44.1069C92.6119 44.0237 92.4981 44.0168 92.4072 44.0168L92.4054 44.0203ZM71.0939 44.0428C70.6214 44.0428 70.0789 44.0827 69.4664 44.0827C69.3089 44.0827 69.1584 44.0827 69.0062 44.0757C68.9117 44.0705 68.8137 44.0619 68.7209 44.0792C68.6859 44.0861 68.6439 44.1 68.6159 44.1243C68.5634 44.1711 68.5634 44.2803 68.6159 44.3271C68.6684 44.3739 68.7594 44.3843 68.8294 44.3929C68.8819 44.3999 68.9379 44.4068 68.9957 44.4172C69.1462 44.4467 69.2932 44.5039 69.3457 44.6651C69.3807 44.7691 69.3912 44.8869 69.3912 45.0759V48.8303C69.3912 49.0261 69.3842 49.1475 69.3509 49.2515C69.2809 49.4629 69.0394 49.5115 68.8434 49.5357C68.7857 49.5427 68.7209 49.5496 68.6684 49.5773C68.5984 49.612 68.5547 49.7021 68.5809 49.7784C68.6089 49.8599 68.7139 49.8859 68.7909 49.8911C68.8819 49.898 68.9712 49.8824 69.0604 49.8737L69.3317 49.8616C69.5154 49.8547 69.7027 49.8512 69.8882 49.8512C70.0754 49.8512 70.2592 49.8547 70.4447 49.8616L70.7597 49.8824C70.8594 49.8893 70.9732 49.9049 71.0712 49.8824C71.2112 49.8477 71.2357 49.6397 71.1114 49.5704C71.0729 49.5461 71.0239 49.5531 70.9802 49.5427C70.8629 49.5219 70.7404 49.5167 70.6302 49.4664C70.5479 49.4317 70.4622 49.3572 70.4289 49.2515C70.3939 49.1475 70.3869 49.0261 70.3869 48.8303V47.2703L70.5059 47.2737C70.6459 47.2651 70.7807 47.3257 70.8594 47.4419L72.7022 49.7299C72.8317 49.8824 72.9297 49.8807 73.1134 49.8859L73.5159 49.8772C73.6559 49.8772 73.7994 49.8807 73.9412 49.8893C74.0532 49.898 74.2492 49.9465 74.3349 49.8512C74.4119 49.768 74.3349 49.638 74.2527 49.5947C74.1914 49.56 74.1232 49.5375 74.0567 49.508C73.8957 49.4387 73.6892 49.3347 73.5142 49.1336L71.7677 47.1056L71.9252 47.0709C72.5027 46.9461 73.0417 46.6255 73.2027 46.0344C73.3654 45.4537 73.2464 44.7448 72.7197 44.3912C72.3627 44.152 71.8132 44.0376 71.0922 44.0393L71.0939 44.0428ZM94.5562 44.0463C94.4512 44.0515 94.3532 44.0809 94.3112 44.1676C94.1992 44.3808 94.5439 44.4276 94.6682 44.4623C94.9009 44.5264 95.0182 44.7049 95.1267 44.906C95.2492 45.1365 95.3717 45.3671 95.4994 45.5941C95.7707 46.076 96.0419 46.5596 96.3097 47.0415C96.3692 47.1455 96.4269 47.2495 96.4917 47.3535C96.5494 47.4401 96.6142 47.5337 96.6247 47.6395C96.6422 47.7955 96.6247 47.9688 96.6247 48.1248V48.9152C96.6247 49.1059 96.6159 49.326 96.4374 49.4404C96.3359 49.5028 96.2187 49.5236 96.1049 49.5305C96.0051 49.5375 95.8897 49.5392 95.8319 49.6311C95.7794 49.7177 95.8056 49.8252 95.8949 49.8737C95.9964 49.9257 96.1224 49.898 96.2274 49.8859C96.3902 49.8685 96.5529 49.8651 96.7174 49.8616C97.0534 49.8529 97.3946 49.8512 97.7324 49.8685C97.8776 49.8755 98.0229 49.8928 98.1699 49.8963C98.2574 49.8963 98.3799 49.8963 98.4254 49.8044C98.5129 49.6363 98.3099 49.5617 98.1839 49.534C98.0194 49.4993 97.8391 49.5063 97.7254 49.3607C97.6029 49.2012 97.6239 48.9707 97.6239 48.7817C97.6239 48.4056 97.6064 48.0243 97.6169 47.6499C97.6222 47.5008 97.7324 47.3795 97.8129 47.2633C97.9092 47.1247 97.9984 46.9808 98.0877 46.8387C98.2679 46.5509 98.4464 46.2615 98.6197 45.972C98.7946 45.6808 98.9609 45.3896 99.1324 45.1001C99.2776 44.8505 99.4159 44.5836 99.6889 44.4501C99.7904 44.4016 99.9164 44.3808 100.007 44.3149C100.056 44.2803 100.088 44.2213 100.081 44.1693C100.076 44.1347 100.058 44.1069 100.021 44.0861C99.9409 44.0393 99.8237 44.0688 99.7379 44.0757C99.5682 44.0896 99.4002 44.0983 99.2304 44.0983C98.9749 44.0983 98.7159 44.0549 98.4639 44.0723C98.3344 44.0827 98.0859 44.1815 98.2486 44.3427C98.3659 44.4571 98.5759 44.4016 98.7072 44.5021C98.8997 44.6495 98.7457 44.9701 98.6599 45.1348C98.3659 45.7068 98.0177 46.2511 97.6799 46.7988C97.5959 46.9375 97.5224 47.0865 97.4244 47.2148C97.2739 46.9895 97.1654 46.7208 97.0394 46.4781L96.6544 45.7397L96.2992 45.0637C96.2152 44.9112 96.0857 44.6876 96.2047 44.5212C96.3324 44.3409 96.5634 44.4519 96.7209 44.3479C96.7997 44.2959 96.8259 44.1971 96.7647 44.1225C96.6947 44.0359 96.5634 44.0532 96.4636 44.0532C95.9264 44.0532 95.3874 44.1156 94.8502 44.0671C94.7749 44.0601 94.6612 44.0411 94.5562 44.0445V44.0463ZM45.8362 44.0515C45.8012 44.0515 45.7662 44.0584 45.7312 44.0688C45.6227 44.1035 45.5824 44.2733 45.6892 44.3392C45.7872 44.4033 45.9167 44.3739 46.0269 44.4051C46.1284 44.4311 46.2229 44.4831 46.2859 44.5645C46.3997 44.7101 46.4312 44.9077 46.4312 45.1816V48.4507L43.0362 44.2387C42.9452 44.1225 42.8472 44.0792 42.7037 44.0775C42.5602 44.0775 42.3974 44.0913 42.2189 44.0913C42.0789 44.0913 41.9389 44.074 41.7989 44.0688C41.7079 44.0619 41.6134 44.0567 41.5224 44.0636C41.4314 44.0723 41.3527 44.1035 41.3299 44.1971C41.2984 44.3236 41.4052 44.3773 41.5172 44.3947C41.6362 44.412 41.7622 44.4328 41.8707 44.4865C42.0037 44.5524 42.1104 44.6547 42.1927 44.776L42.2137 44.8055V48.6881C42.2137 48.9135 42.2032 49.066 42.1664 49.1873C42.1314 49.3087 42.0492 49.4005 41.9354 49.4612L41.7954 49.5132H41.7867L41.6327 49.5427C41.5154 49.5652 41.3474 49.6501 41.4367 49.7923C41.5207 49.9223 41.7692 49.8859 41.8969 49.8789C42.0544 49.872 42.2084 49.8616 42.3642 49.8616C42.5462 49.8616 42.7282 49.8685 42.9067 49.8789C43.0047 49.8859 43.1079 49.9049 43.2077 49.8841C43.3827 49.8495 43.4527 49.6241 43.2479 49.5652C43.1359 49.534 43.0152 49.5305 42.9102 49.4785C42.7877 49.4161 42.6879 49.3225 42.6407 49.1943C42.5917 49.066 42.5847 48.9169 42.5829 48.6985V45.2267L46.2264 49.716C46.2824 49.7853 46.3419 49.8495 46.4014 49.9153C46.4994 50.0193 46.7339 50.0505 46.7934 49.8841C46.8144 49.8287 46.8109 49.768 46.8109 49.7108V45.1885C46.8109 44.9805 46.8197 44.8419 46.8564 44.7275C46.8914 44.6096 46.9754 44.5264 47.0874 44.4727C47.0874 44.4727 47.2327 44.4207 47.2397 44.4207C47.3447 44.4033 47.5582 44.386 47.5932 44.2681C47.6107 44.2161 47.5967 44.1607 47.5634 44.1208C47.5424 44.0983 47.5162 44.0827 47.4864 44.0775C47.4392 44.0671 47.3867 44.0653 47.3377 44.0688C47.2852 44.0688 47.2327 44.074 47.1802 44.0775C47.0297 44.0861 46.8774 44.0913 46.7252 44.0913C46.5362 44.0913 46.3507 44.0809 46.1617 44.0671L45.9482 44.0532C45.9167 44.0532 45.8782 44.0497 45.8432 44.0532L45.8362 44.0515ZM52.1257 44.0549C52.0102 44.0549 51.8877 44.0775 51.8107 44.0809C51.3382 44.1017 50.8604 44.1017 50.3844 44.0861L50.0257 44.0688C49.9277 44.0636 49.8104 44.0515 49.7177 44.0983C49.6389 44.1364 49.5812 44.2283 49.6354 44.3063C49.6792 44.3721 49.7684 44.3756 49.8384 44.3843C50.0134 44.4016 50.2182 44.4051 50.3687 44.5177C50.5034 44.6183 50.5174 44.802 50.5262 44.9563V48.8337C50.5262 49.0851 50.5122 49.3711 50.2322 49.4751C50.0922 49.5271 49.9557 49.5271 49.8122 49.5513C49.7352 49.5635 49.6722 49.5912 49.6372 49.664C49.5147 49.9413 49.9382 49.8893 50.0799 49.8824C50.2444 49.872 50.4089 49.8651 50.5734 49.8616C50.9024 49.8529 51.2314 49.8547 51.5604 49.8651C51.7179 49.8703 51.8754 49.8772 52.0329 49.8893C52.1502 49.8997 52.3129 49.9205 52.3934 49.8113C52.4529 49.7333 52.4109 49.6484 52.3409 49.5999C52.3199 49.5825 52.2937 49.5704 52.2657 49.5652C52.1257 49.5305 51.9752 49.5305 51.8334 49.4855C51.5359 49.3901 51.5149 49.1007 51.5149 48.8355V45.5473V45.0793C51.5149 44.9285 51.5149 44.75 51.5849 44.6148C51.6847 44.4293 51.8999 44.4241 52.0802 44.3947C52.1852 44.3773 52.5107 44.3323 52.4004 44.152C52.3532 44.0757 52.2429 44.0549 52.1257 44.0549ZM84.6442 44.0549C84.5269 44.0549 84.4044 44.0775 84.3292 44.0809C83.8532 44.1017 83.3789 44.1017 82.9029 44.0861L82.5407 44.0688C82.4427 44.0636 82.3254 44.0515 82.2327 44.0983C82.1574 44.1364 82.0979 44.2283 82.1522 44.3063C82.1959 44.3721 82.2852 44.3756 82.3552 44.3843C82.5337 44.4016 82.7402 44.4051 82.8872 44.5177C83.0219 44.6183 83.0377 44.802 83.0447 44.9563V48.8337C83.0447 49.0851 83.0324 49.3711 82.7507 49.4751C82.6107 49.5271 82.4742 49.5271 82.3307 49.5513C82.2554 49.5635 82.1907 49.5912 82.1557 49.664C82.0332 49.9413 82.4584 49.8893 82.5984 49.8824C82.7612 49.872 82.9257 49.8651 83.0884 49.8616C83.4209 49.8529 83.7482 49.8547 84.0772 49.8651C84.2347 49.8703 84.3922 49.8772 84.5497 49.8893C84.6669 49.8997 84.8297 49.9205 84.9102 49.8113C84.9714 49.7333 84.9312 49.6484 84.8629 49.5999C84.8384 49.5825 84.8104 49.5704 84.7859 49.5652C84.6407 49.5305 84.4919 49.5305 84.3519 49.4855C84.0544 49.3901 84.0317 49.1007 84.0317 48.8355V45.5473V45.0793C84.0317 44.9285 84.0317 44.75 84.1017 44.6148C84.1997 44.4293 84.4132 44.4241 84.5969 44.3947C84.7019 44.3773 85.0257 44.3323 84.9154 44.152C84.8664 44.0757 84.7579 44.0549 84.6407 44.0549H84.6442ZM35.5217 44.0584C35.3589 44.0549 35.1717 44.0861 35.0982 44.0896C34.7797 44.0983 34.4629 44.1 34.1444 44.0948C33.9449 44.0948 33.7419 44.0844 33.5442 44.0723C33.4129 44.0671 33.1417 44.0584 33.1942 44.2629C33.2379 44.4328 33.5127 44.3964 33.6457 44.4293C33.8644 44.4813 33.9747 44.6148 34.0009 44.8349C34.0184 45.0031 34.0114 45.1747 34.0114 45.3445V47.8804C34.0114 48.0433 34.0062 48.2097 34.0184 48.3709C34.0534 48.8216 34.2109 49.2601 34.5662 49.5583C35.2574 50.1355 36.3739 50.1303 37.2034 49.9257C37.7914 49.7819 38.2412 49.4231 38.4512 48.8511C38.6262 48.3709 38.6437 47.8544 38.6437 47.3483V46.1349V45.0811C38.6437 44.9251 38.6367 44.7223 38.7312 44.5819C38.8239 44.4432 38.9762 44.4363 39.1302 44.4172C39.2404 44.4033 39.4312 44.386 39.4574 44.2491C39.4644 44.2144 39.4609 44.1849 39.4522 44.1624C39.4032 44.0549 39.1984 44.0688 39.0987 44.0757C38.6787 44.1035 38.2709 44.0983 37.8562 44.0757C37.7232 44.0671 37.4134 44.0532 37.4817 44.2733C37.5289 44.4259 37.7512 44.3912 37.8737 44.4155C37.9962 44.4397 38.1187 44.4796 38.1974 44.5819C38.2989 44.7205 38.2919 44.9233 38.2919 45.0811V47.6932C38.2867 48.4316 38.0784 49.1977 37.3014 49.456C36.6434 49.6744 35.6109 49.6605 35.2154 48.9967C34.9827 48.6049 35.0002 48.1404 35.0002 47.7019V45.0793C35.0002 44.8783 34.9967 44.6044 35.1962 44.4831C35.3484 44.3929 35.7877 44.4657 35.8139 44.23C35.8314 44.0983 35.6879 44.0619 35.5234 44.0567L35.5217 44.0584ZM62.1182 44.0619C61.9922 44.0532 61.8382 44.0619 61.8207 44.1953C61.8032 44.3409 61.9712 44.3895 62.0832 44.4033C62.2127 44.4207 62.3404 44.4172 62.4542 44.49C62.6537 44.6183 62.6362 44.8887 62.6362 45.0915V48.8216C62.6362 49.0123 62.6537 49.2688 62.4874 49.4023C62.3229 49.5305 62.1112 49.4837 61.9309 49.5617C61.8189 49.6085 61.7734 49.7697 61.8784 49.8477C61.9957 49.9344 62.1882 49.872 62.3212 49.8651L62.7937 49.8477C63.1017 49.8425 63.4114 49.8443 63.7212 49.8477C64.2007 49.8477 64.6802 49.8529 65.1614 49.8616L66.0277 49.8789C66.1764 49.8841 66.4652 49.9309 66.5789 49.8356C66.6384 49.7836 66.6349 49.6796 66.6367 49.6103C66.6402 49.4543 66.6454 49.2983 66.6542 49.1423C66.6612 49.0071 66.7592 48.4559 66.5457 48.4073H66.5142C66.3794 48.4073 66.3567 48.6015 66.3322 48.6951C66.2972 48.8251 66.2482 48.9516 66.1712 49.0591C66.0364 49.2497 65.8334 49.3659 65.6112 49.4231C65.3697 49.4855 65.1177 49.4924 64.8727 49.4959C64.6364 49.4959 64.3862 49.5011 64.1552 49.4473C63.9924 49.4127 63.8402 49.3347 63.7474 49.1873C63.6424 49.014 63.6337 48.8008 63.6302 48.6032C63.6249 48.3467 63.6267 48.0901 63.6267 47.8319V47.0172C63.9942 47.0172 64.4597 46.9999 64.7257 47.298C64.8202 47.402 64.8762 47.5407 64.9147 47.6741C64.9392 47.7608 64.9462 47.9168 65.0407 47.9688C65.1719 48.0347 65.2332 47.8579 65.2384 47.7608C65.2472 47.4904 65.1982 47.2061 65.1894 46.934C65.1824 46.648 65.1947 46.362 65.2157 46.0777C65.2244 45.9564 65.2507 45.7969 65.2087 45.6791C65.1737 45.5751 65.0547 45.5369 64.9777 45.6236C64.9252 45.6877 64.9147 45.7796 64.8989 45.8576C64.8814 45.9616 64.8534 46.0725 64.8079 46.1696C64.6102 46.5856 64.1132 46.6289 63.7054 46.6584C63.6809 46.6584 63.6529 46.6619 63.6267 46.6653C63.6144 46.258 63.6267 45.8507 63.6267 45.4433C63.6267 45.2423 63.6179 45.0395 63.6267 44.8367C63.6267 44.7188 63.5917 44.4831 63.7422 44.4467C63.9137 44.4033 64.1202 44.4259 64.2934 44.4259C64.4684 44.4259 64.6487 44.4293 64.8254 44.4432C65.1089 44.4605 65.4169 44.4952 65.6409 44.6859C65.7704 44.7899 65.8474 44.9355 65.8859 45.0967C65.9104 45.2145 65.9384 45.5179 66.1414 45.4312C66.3059 45.3619 66.2062 45.0672 66.1974 44.9424C66.1834 44.7344 66.2202 44.5333 66.2149 44.3271C66.2114 44.1572 66.1064 44.1017 65.9524 44.0844C65.7599 44.0619 65.5709 44.0671 65.3802 44.0671L64.1237 44.0844C63.6984 44.0931 63.2749 44.0983 62.8514 44.0913C62.6414 44.0879 62.4367 44.0792 62.2302 44.0671C62.2004 44.0671 62.1602 44.0619 62.1182 44.0601V44.0619ZM54.3902 44.0653C54.3464 44.0653 54.3027 44.0653 54.2607 44.0688C54.1382 44.0809 54.0332 44.1641 54.0997 44.2941C54.1627 44.4224 54.3972 44.4207 54.5144 44.4432C54.8557 44.5125 54.9519 44.8679 55.0569 45.1539L55.9494 47.4817C56.1017 47.8717 56.2504 48.2617 56.4009 48.6535L56.6249 49.2359C56.6949 49.4144 56.7509 49.6051 56.8402 49.7732C56.9102 49.9153 57.0449 50.0817 57.2077 49.9587C57.3197 49.8755 57.3827 49.7333 57.4422 49.612C57.5384 49.4092 57.6259 49.196 57.7099 48.988L57.8552 48.6292L58.1999 47.7799L58.6112 46.7624C58.7337 46.4677 58.8509 46.1731 58.9699 45.8784C59.0294 45.7328 59.0872 45.5837 59.1502 45.4329C59.2429 45.2076 59.3374 44.9753 59.4652 44.7673C59.5264 44.6668 59.5964 44.568 59.6927 44.5039C59.8029 44.4311 59.9202 44.4259 60.0392 44.3929C60.1722 44.3548 60.2842 44.1676 60.1144 44.0896C60.1074 44.0844 60.0969 44.0827 60.0899 44.0792C59.9849 44.0445 59.8519 44.0792 59.7469 44.0879C59.6122 44.0965 59.4757 44.1052 59.3409 44.1052C59.1099 44.1104 58.8807 44.1017 58.6514 44.0827C58.5342 44.074 58.3714 44.0307 58.2664 44.1087C58.1877 44.1693 58.1929 44.2889 58.2787 44.3409C58.3837 44.4016 58.5184 44.3929 58.6287 44.4189C58.8772 44.4744 58.9384 44.6685 58.8877 44.8973C58.8352 45.1348 58.7512 45.3653 58.6637 45.5907C58.5884 45.7917 58.5097 45.9893 58.4309 46.1852L58.1247 46.9531L57.8097 47.74L57.5472 48.3779C57.5209 48.4472 57.4947 48.52 57.4632 48.5911C57.4544 48.6136 57.4387 48.6916 57.4159 48.7072L57.4107 48.7211L57.2969 48.4091L57.0222 47.6585L56.6897 46.752L56.4009 45.9616L56.2539 45.5629C56.1909 45.3844 56.1227 45.1989 56.0614 45.0152C56.0142 44.8627 55.9302 44.6425 56.0614 44.5056C56.1787 44.3843 56.3589 44.4293 56.5059 44.3964C56.6459 44.3687 56.7439 44.1711 56.5847 44.0879C56.5217 44.0532 56.4307 44.0705 56.3642 44.0705C56.2592 44.0792 56.1542 44.0879 56.0527 44.0879C55.8392 44.1 55.6274 44.1052 55.4157 44.1052C55.2057 44.1087 54.9957 44.1052 54.7857 44.0948C54.6562 44.0896 54.5232 44.0653 54.3902 44.0601V44.0653ZM70.8227 44.36C71.0204 44.36 71.2217 44.3895 71.4037 44.4467C71.8622 44.5853 72.1124 44.9545 72.1702 45.4173C72.2227 45.8645 72.1667 46.4001 71.7537 46.6688C71.3862 46.9063 70.9049 46.9149 70.4832 46.9149C70.4604 46.9149 70.4097 46.9253 70.3957 46.908C70.3817 46.8907 70.3957 46.8092 70.3957 46.7867C70.3957 46.7035 70.3957 46.6168 70.3922 46.5319V46.0223C70.3922 45.6825 70.3922 45.3411 70.3887 44.9996C70.3887 44.8557 70.3852 44.7084 70.3974 44.5663C70.4097 44.4276 70.5024 44.3791 70.6319 44.3669C70.6967 44.36 70.7614 44.3583 70.8244 44.3583L70.8227 44.36Z" fill="white"/>
</svg>
