<svg width="51" height="39" viewBox="0 0 51 39" fill="none" xmlns="http://www.w3.org/2000/svg">
<path d="M20.6428 29.1376L20.6437 38.4291H23.2678V29.1378L20.6428 29.1376ZM4.19886e-06 29.125V38.4291H2.64745V31.3644L4.69838 31.3651C5.37778 31.3651 5.86164 31.5341 6.18902 31.8835C6.6041 32.3258 6.7735 33.0388 6.7735 34.3437V38.4291L9.33817 38.4287L9.33863 33.2887C9.33863 29.6198 6.99996 29.125 4.71208 29.125H4.19886e-06ZM24.868 29.1379V38.4291H29.1241C31.3918 38.4291 32.1319 38.052 32.9324 37.2064C33.4982 36.6128 33.8638 35.3097 33.8638 33.8857C33.8638 32.5797 33.5543 31.4146 33.0144 30.689C32.0423 29.3916 30.6417 29.1379 28.5508 29.1379H24.868ZM27.4709 31.161H28.5992C30.236 31.161 31.2946 31.8961 31.2946 33.8033C31.2946 35.711 30.236 36.446 28.5992 36.446H27.4709V31.161ZM16.8593 29.1379L14.6693 36.5018L12.5708 29.1384L9.73815 29.1379L12.7351 38.4291H16.5172L19.5377 29.1379H16.8593ZM35.0848 38.4291H37.7093V29.1384L35.0842 29.1379L35.0848 38.4291ZM42.441 29.1413L38.7768 38.4259H41.3643L41.944 36.7849H46.2805L46.8292 38.4259H49.6385L45.9463 29.1405L42.441 29.1413ZM44.1444 30.8352L45.734 35.1849H42.5046L44.1444 30.8352Z" fill="#F9F6EF"/>
<path d="M17.1758 7.37368V5.14146C17.3924 5.12611 17.6113 5.11453 17.8344 5.10748C23.9394 4.91563 27.9448 10.3533 27.9448 10.3533C27.9448 10.3533 23.6188 16.3617 18.9806 16.3617C18.3126 16.3617 17.7147 16.254 17.1758 16.073V9.3043C19.5524 9.5914 20.0303 10.6413 21.4596 13.023L24.6375 10.3436C24.6375 10.3436 22.3177 7.30103 18.4072 7.30103C17.9817 7.30103 17.575 7.33104 17.1758 7.37368ZM17.1758 0V3.33422C17.3949 3.31683 17.6143 3.303 17.8344 3.29497C26.3244 3.00897 31.8555 10.2577 31.8555 10.2577C31.8555 10.2577 25.5022 17.9832 18.8837 17.9832C18.2772 17.9832 17.7093 17.9272 17.1758 17.8327V19.8937C17.6321 19.9517 18.1047 19.9859 18.598 19.9859C24.7575 19.9859 29.2118 16.8406 33.5251 13.1176C34.2396 13.6902 37.1675 15.0832 37.7696 15.6937C33.6682 19.1268 24.111 21.8939 18.6928 21.8939C18.1706 21.8939 17.6684 21.8624 17.1758 21.815V24.7115H40.5863V0H17.1758ZM17.1758 16.073V17.8327C11.4789 16.8171 9.89784 10.8953 9.89784 10.8953C9.89784 10.8953 12.633 7.86474 17.1758 7.37368L17.1758 9.3043C17.1723 9.3043 17.17 9.3034 17.1669 9.3034C14.7832 9.01709 12.9205 11.2445 12.9205 11.2445C12.9205 11.2445 13.964 14.994 17.1758 16.073ZM7.05765 10.6386C7.05765 10.6386 10.434 5.65657 17.1758 5.14146L17.1758 3.33422C9.7086 3.93347 3.24219 10.2577 3.24219 10.2577C3.24219 10.2577 6.90438 20.8457 17.1758 21.815V19.8937C9.63845 18.9454 7.05765 10.6386 7.05765 10.6386Z" fill="#76B900"/>
</svg>
