<svg width="157" height="38" viewBox="0 0 157 38" fill="none" xmlns="http://www.w3.org/2000/svg">
<path d="M23.7145 12.6005C22.6937 12.0151 21.7586 11.4798 20.8235 10.9372C19.4885 10.1591 18.1465 9.38106 16.8116 8.59583C16.6046 8.47447 16.4332 8.48158 16.2334 8.59583C15.1412 9.2311 14.049 9.86643 12.9568 10.5018C11.5434 11.3227 10.13 12.1437 8.70944 12.9645C7.08898 13.8997 5.46141 14.8348 3.84098 15.7771C3.09143 16.2126 2.33475 16.6266 1.66374 17.1762C1.07838 17.6546 0.521581 18.1614 0.157518 18.861C0.0504408 18.7753 0.10041 18.6468 0.10041 18.5397C0.10041 16.4981 0.228903 14.4422 0.0575795 12.4149C-0.113744 10.3661 0.921334 9.13118 2.43469 8.14606C3.72676 7.30373 5.10449 6.58986 6.44655 5.81893C7.85278 5.00514 9.25196 4.19135 10.6511 3.37043C12.0645 2.54236 13.4708 1.7143 14.8913 0.893374C15.3554 0.622113 15.8479 0.400818 16.2833 0.101002C16.4975 -0.0489062 16.6331 -0.0132138 16.8116 0.0867249C17.8395 0.67922 18.8675 1.28599 19.9026 1.87849C21.2446 2.64944 22.5867 3.41326 23.9215 4.19135C25.5562 5.14077 27.1838 6.09733 28.8185 7.03963C29.6323 7.50362 30.4818 7.91762 31.2171 8.49585C32.3235 9.35245 33.1944 10.3804 33.1373 11.9009C33.0873 13.2358 32.4163 14.2709 31.4098 15.0633C29.8465 16.2911 28.0476 17.1477 26.3486 18.1543C24.5283 19.2321 22.7008 20.2886 20.8734 21.3451C19.5885 22.0875 18.2892 22.8228 17.0043 23.5652C16.7973 23.6865 16.5974 23.7151 16.3762 23.5866C13.9919 22.1874 11.6005 20.7883 9.21624 19.3963C8.9236 19.225 8.61663 19.068 8.30965 18.9181C8.03839 18.7824 8.00274 18.7039 8.30965 18.5325C9.45185 17.8901 10.5725 17.212 11.7005 16.5552C12.3786 16.1626 13.0781 15.7914 13.7492 15.3845C13.9491 15.2631 14.0704 15.2489 14.2703 15.3773C14.9556 15.7914 15.6623 16.1768 16.3547 16.5766C16.5189 16.6694 16.626 16.6837 16.8116 16.5766C19.0745 15.2631 21.3445 13.9711 23.7145 12.6147" fill="#4DB059"/>
<path d="M83.848 15.5778C83.1343 16.927 82.4207 18.2761 81.6922 19.6181C80.5289 21.774 79.3509 23.9155 78.1871 26.0713C78.0805 26.2641 77.9733 26.3212 77.766 26.3212C76.5311 26.3212 75.2962 26.314 74.0613 26.3212C73.8689 26.3212 73.7617 26.257 73.6758 26.0999C72.8478 24.558 72.0269 23.0089 71.1918 21.467C70.1139 19.4754 69.0359 17.4766 67.9005 15.3779V15.899C67.9005 19.2184 67.9005 22.545 67.9082 25.8714C67.9082 26.2212 67.8295 26.3283 67.4652 26.3212C66.1089 26.2998 64.7526 26.2998 63.3963 26.3212C63.1108 26.3212 63.0469 26.2427 63.0469 25.9643C63.054 21.1029 63.054 16.2416 63.0469 11.3732C63.0469 11.0805 63.1393 11.0234 63.4105 11.0305C65.381 11.0448 67.3438 11.0092 69.3143 11.052C70.192 11.0734 70.8921 11.4589 71.3345 12.294C72.7619 14.9995 74.2325 17.6765 75.6818 20.3677C75.7458 20.4891 75.9104 20.539 75.853 20.796C76.3457 20.2178 76.5667 19.5967 76.874 19.0399C77.8235 17.3267 78.7296 15.592 79.6719 13.8645C80.0291 13.2149 80.3862 12.5653 80.786 11.9371C81.2071 11.2875 81.8781 11.0448 82.6132 11.0377C84.5475 11.0163 86.4896 11.0377 88.4239 11.0234C88.7023 11.0234 88.7811 11.0876 88.7811 11.3732C88.774 16.2345 88.774 21.0958 88.7811 25.9643C88.7811 26.2498 88.7023 26.3212 88.4239 26.314C87.0534 26.2998 85.6758 26.2927 84.3053 26.314C83.9695 26.314 83.9126 26.2141 83.9126 25.9072C83.9197 22.6306 83.9126 19.354 83.9126 16.0775V15.5778C83.9126 15.5778 83.8623 15.5706 83.8409 15.5635" fill="#E82E3D"/>
<path d="M33.1331 18.5117V21.6955C33.1331 22.959 33.1046 24.2296 33.1402 25.4932C33.1688 26.5068 32.7691 27.3135 32.1123 28.0273C31.3485 28.8625 30.3991 29.455 29.414 30.0118C27.8007 30.9255 26.2017 31.8678 24.5955 32.7958C23.3676 33.5097 22.1327 34.2235 20.9049 34.9445C19.6271 35.694 18.3493 36.4436 17.0644 37.2002C16.7646 37.3716 16.5361 37.4001 16.1792 37.186C14.723 36.3008 13.2239 35.487 11.7462 34.6304C10.2686 33.7809 8.79801 32.91 7.32751 32.0534C6.07113 31.3253 4.80761 30.6043 3.5441 29.8904C2.44477 29.2694 1.36685 28.6198 0.63159 27.549C-0.346381 26.1213 -0.160781 24.351 0.995653 23.066C1.59529 22.4022 2.302 21.9096 3.03012 21.4171C3.25856 21.2671 3.42988 21.3528 3.62976 21.4742C4.80761 22.1595 5.99976 22.8305 7.17761 23.5087C8.48392 24.2653 9.7974 25.022 11.1038 25.7858C12.8241 26.7852 14.5374 27.7917 16.2577 28.7911C16.4648 28.9125 16.6432 28.9838 16.9288 28.8126C19.1559 27.4776 21.4046 26.1856 23.6532 24.8792C25.8233 23.6228 28.0006 22.3808 30.1635 21.1101C31.2985 20.4391 32.3907 19.7038 33.126 18.5117" fill="#E82E3D"/>
<path d="M142.043 18.663C142.043 20.262 142.05 21.861 142.043 23.4601C142.043 23.7741 142.115 23.8669 142.443 23.8669C144.042 23.8455 145.641 23.8669 147.24 23.8527C148.068 23.8455 148.903 23.9312 149.731 23.767C150.838 23.5529 151.68 22.5392 151.666 21.5184C151.644 19.6124 151.666 17.7135 151.658 15.8076C151.658 15.6434 151.658 15.4864 151.609 15.3222C151.152 13.9516 150.26 13.5661 149.032 13.5304C146.84 13.4733 144.642 13.5233 142.45 13.509C142.129 13.509 142.05 13.5875 142.05 13.9087C142.072 15.4935 142.057 17.0782 142.057 18.663M137.211 18.6916C137.211 16.2859 137.211 13.8731 137.203 11.4674C137.203 11.1319 137.275 11.0391 137.625 11.0391C142.414 11.0533 147.197 11.0248 151.98 11.0605C154.164 11.0748 156.07 12.6024 156.442 14.7725C156.484 15.0295 156.52 15.2722 156.52 15.5292C156.52 17.6351 156.52 19.7338 156.52 21.8396C156.52 23.974 154.943 25.83 152.829 26.2226C152.422 26.294 152.001 26.3368 151.573 26.3368C146.94 26.3226 142.307 26.3226 137.674 26.3368C137.296 26.3368 137.196 26.2512 137.203 25.8657C137.225 23.4743 137.211 21.0829 137.211 18.6916Z" fill="#E82E3D"/>
<path d="M96.4634 18.692C96.4634 20.291 96.4705 21.8901 96.4634 23.4891C96.4634 23.7889 96.5493 23.8675 96.8418 23.8603C98.8408 23.846 100.84 23.8603 102.831 23.8532C103.238 23.8532 103.645 23.8103 104.044 23.7889C105.258 23.7104 106.193 22.4612 106.172 21.3404C106.143 19.6343 106.143 17.9282 106.172 16.2221C106.2 14.616 105.137 13.5381 103.509 13.5309C101.282 13.5166 99.0546 13.5309 96.8347 13.5166C96.535 13.5166 96.4563 13.5952 96.4563 13.895C96.4705 15.494 96.4563 17.093 96.4563 18.692M91.695 18.6635C91.695 16.2721 91.7021 13.8807 91.6879 11.4822C91.6879 11.111 91.7951 11.0396 92.1374 11.0396C96.8774 11.0539 101.624 11.0182 106.364 11.061C108.606 11.0824 110.305 12.3816 110.891 14.6017C110.976 14.9229 111.019 15.2727 111.012 15.6296C110.998 17.6142 110.991 19.5915 111.012 21.576C111.033 23.739 109.656 25.6949 107.464 26.1732C107.1 26.2517 106.736 26.3374 106.357 26.3374C101.617 26.3374 96.8703 26.3374 92.1303 26.3374C91.7667 26.3374 91.6808 26.2446 91.6879 25.8877C91.7021 23.482 91.695 21.0692 91.695 18.6635Z" fill="#E82E3D"/>
<path d="M126.708 20.0907C125.63 18.0633 124.588 16.1073 123.532 14.1229C122.461 16.1431 121.419 18.1061 120.369 20.0907H126.708ZM111.71 26.3225C112.446 24.952 113.131 23.6599 113.831 22.3678C114.323 21.4541 114.83 20.5475 115.322 19.6338C116.693 17.1067 118.049 14.5654 119.448 12.0455C119.834 11.3531 120.533 11.0605 121.304 11.0462C122.768 11.0248 124.231 11.0176 125.695 11.0462C126.63 11.0676 127.365 11.4602 127.829 12.3382C129.135 14.801 130.463 17.2566 131.791 19.7123C132.776 21.5398 133.761 23.3672 134.754 25.1947C134.904 25.4659 135.046 25.7443 135.203 26.0156C135.325 26.2155 135.303 26.3154 135.039 26.3154C133.426 26.3154 131.805 26.3154 130.192 26.3154C130.014 26.3154 129.956 26.2155 129.899 26.1013C129.335 25.0376 128.771 23.974 128.229 22.9032C128.093 22.6319 127.936 22.5463 127.636 22.5534C124.91 22.5677 122.176 22.5606 119.448 22.5534C119.206 22.5534 119.034 22.5891 118.906 22.8461C118.492 23.667 117.992 24.4523 117.621 25.2875C117.293 26.0441 116.878 26.4011 115.979 26.3368C114.587 26.2369 113.181 26.3083 111.703 26.3083" fill="#E82E3D"/>
<path d="M52.6694 26.3226C50.3065 26.3226 47.9437 26.344 45.5808 26.3155C44.61 26.3012 43.6606 26.0941 42.8468 25.5017C41.6261 24.6236 40.9265 23.4529 40.9194 21.9181C40.9123 19.7052 40.9123 17.4994 40.9194 15.2865C40.9194 13.6375 42.1615 11.9885 43.6891 11.4103C44.3959 11.139 45.124 11.0391 45.8807 11.0391C50.4564 11.0462 55.0322 11.0462 59.6011 11.0391C59.9576 11.0391 60.0648 11.1319 60.0435 11.4888C60.0151 12.0385 60.0151 12.5881 60.0435 13.1307C60.0648 13.4662 59.9434 13.5233 59.6366 13.5233C55.8889 13.509 52.134 13.509 48.3863 13.5233C47.1157 13.5233 46.1376 14.1301 45.8307 15.3365C45.6666 15.9718 45.7878 16.6357 45.7736 17.2853C45.7665 17.5494 45.9949 17.4423 46.1163 17.4423C47.5226 17.4495 48.9217 17.4423 50.328 17.4423C52.5694 17.4423 54.8109 17.4495 57.0524 17.4352C57.4236 17.4352 57.5093 17.5423 57.495 17.892C57.4664 18.3917 57.4593 18.8986 57.495 19.3983C57.5235 19.798 57.4236 19.9265 56.9882 19.9265C53.4046 19.9051 49.8211 19.9265 46.2376 19.9051C45.8664 19.9051 45.7308 19.9836 45.7665 20.3691C45.8307 21.1257 45.6308 21.911 46.0663 22.6177C46.4589 23.253 47.0157 23.6171 47.7509 23.7599C48.579 23.9169 49.4142 23.8384 50.2423 23.8384C53.4118 23.8527 56.5884 23.8527 59.758 23.8384C60.1217 23.8384 60.2721 23.8955 60.2431 24.2952C60.2005 24.8235 60.2147 25.3589 60.2431 25.8943C60.2644 26.2298 60.172 26.3226 59.822 26.3226C57.4451 26.3083 55.0607 26.3155 52.6837 26.3155" fill="#E82E3D"/>
</svg>
