<svg width="92" height="23" viewBox="0 0 92 23" fill="none" xmlns="http://www.w3.org/2000/svg">
<path d="M13.8047 7.3346C13.2105 6.99388 12.6662 6.68226 12.1218 6.36643C11.3448 5.91352 10.5636 5.46062 9.78655 5.00354C9.66606 4.9329 9.56632 4.93704 9.45 5.00354C8.81424 5.37333 8.17848 5.74314 7.54271 6.11296C6.71999 6.59083 5.89727 7.06869 5.07037 7.54652C4.12712 8.09086 3.17973 8.63519 2.23649 9.1837C1.80019 9.43716 1.35974 9.67818 0.969145 9.99811C0.628414 10.2765 0.304306 10.5715 0.0923893 10.9788C0.0300607 10.9289 0.0591473 10.8541 0.0591473 10.7918C0.0591473 9.60337 0.133942 8.40665 0.034216 7.22659C-0.0655098 6.03401 0.536998 5.31517 1.41791 4.74173C2.17001 4.25142 2.97197 3.83589 3.75317 3.38714C4.57172 2.91344 5.38617 2.43974 6.20058 1.96189C7.02334 1.47988 7.84189 0.997875 8.66879 0.520023C8.9389 0.362126 9.2256 0.233312 9.47906 0.0587923C9.60373 -0.0284678 9.68268 -0.0076916 9.78655 0.0504816C10.3849 0.395367 10.9833 0.748562 11.5858 1.09345C12.367 1.54221 13.1482 1.98682 13.9252 2.43974C14.8767 2.99239 15.8241 3.54919 16.7757 4.0977C17.2494 4.36778 17.7438 4.60876 18.1718 4.94535C18.8159 5.44397 19.3228 6.04232 19.2896 6.92741C19.2605 7.70442 18.8699 8.30695 18.284 8.76816C17.374 9.48287 16.3269 9.98149 15.338 10.5674C14.2784 11.1948 13.2146 11.8098 12.1509 12.4248C11.4029 12.8569 10.6467 13.2849 9.89873 13.7171C9.77824 13.7877 9.66189 13.8043 9.53309 13.7295C8.14524 12.9151 6.75322 12.1007 5.36538 11.2904C5.19503 11.1907 5.01635 11.0993 4.83766 11.012C4.67976 10.9331 4.65901 10.8873 4.83766 10.7876C5.50252 10.4136 6.15487 10.0189 6.81142 9.6366C7.20616 9.40806 7.61335 9.192 8.00396 8.95516C8.12031 8.88452 8.19096 8.87621 8.30728 8.95099C8.70619 9.192 9.11755 9.41637 9.52061 9.64908C9.61621 9.7031 9.67854 9.71141 9.78655 9.64908C11.1038 8.88452 12.4251 8.13243 13.8047 7.34291" fill="#4DB059"/>
<path d="M48.8074 9.06704C48.3919 9.8524 47.9765 10.6377 47.5524 11.4189C46.8753 12.6738 46.1896 13.9204 45.5122 15.1752C45.4501 15.2874 45.3877 15.3207 45.2671 15.3207C44.5483 15.3207 43.8294 15.3165 43.1106 15.3207C42.9986 15.3207 42.9362 15.2833 42.8862 15.1919C42.4042 14.2943 41.9264 13.3926 41.4403 12.4951C40.8128 11.3358 40.1854 10.1723 39.5245 8.95069V9.25404C39.5245 11.1862 39.5245 13.1226 39.529 15.0589C39.529 15.2625 39.4831 15.3248 39.2711 15.3207C38.4816 15.3082 37.6921 15.3082 36.9026 15.3207C36.7365 15.3207 36.6992 15.275 36.6992 15.1129C36.7034 12.2832 36.7034 9.45348 36.6992 6.61959C36.6992 6.44925 36.753 6.41602 36.9109 6.42015C38.0579 6.42846 39.2004 6.40771 40.3474 6.43263C40.8583 6.44508 41.2658 6.66948 41.5234 7.15562C42.3542 8.73046 43.2103 10.2887 44.0539 11.8552C44.0911 11.9259 44.187 11.9549 44.1535 12.1045C44.4403 11.768 44.5689 11.4064 44.7479 11.0823C45.3005 10.0851 45.828 9.07535 46.3765 8.06977C46.5844 7.69164 46.7923 7.31352 47.025 6.94787C47.2701 6.56974 47.6607 6.42846 48.0885 6.42432C49.2145 6.41184 50.345 6.42432 51.4709 6.41602C51.633 6.41602 51.6788 6.45339 51.6788 6.61959C51.6747 9.44934 51.6747 12.2791 51.6788 15.1129C51.6788 15.2791 51.633 15.3207 51.4709 15.3165C50.6732 15.3082 49.8713 15.3041 49.0735 15.3165C48.878 15.3165 48.8449 15.2584 48.8449 15.0797C48.8491 13.1724 48.8449 11.2652 48.8449 9.35791V9.06704C48.8449 9.06704 48.8156 9.06287 48.8032 9.05873" fill="#E82E3D"/>
<path d="M19.2864 10.7754V12.6286C19.2864 13.3641 19.2698 14.1037 19.2906 14.8392C19.3072 15.4292 19.0745 15.8988 18.6922 16.3143C18.2476 16.8005 17.695 17.1454 17.1216 17.4695C16.1825 18.0013 15.2517 18.5498 14.3168 19.09C13.6021 19.5055 12.8832 19.921 12.1685 20.3408C11.4247 20.777 10.681 21.2133 9.93301 21.6538C9.75849 21.7535 9.62552 21.7701 9.41774 21.6455C8.57009 21.1302 7.69748 20.6565 6.83735 20.1579C5.97722 19.6634 5.12123 19.1565 4.26527 18.6579C3.53394 18.234 2.79846 17.8144 2.06298 17.3988C1.42307 17.0373 0.795631 16.6592 0.367642 16.0359C-0.201625 15.2049 -0.0935887 14.1744 0.579559 13.4264C0.928599 13.04 1.33997 12.7533 1.7638 12.4666C1.89677 12.3793 1.9965 12.4292 2.11284 12.4998C2.79846 12.8987 3.4924 13.2893 4.17801 13.6841C4.9384 14.1245 5.70297 14.565 6.46339 15.0096C7.4648 15.5913 8.46204 16.1772 9.46345 16.7589C9.58398 16.8296 9.68785 16.8711 9.85406 16.7714C11.1505 15.9944 12.4594 15.2423 13.7683 14.4818C15.0315 13.7505 16.2988 13.0275 17.5579 12.2879C18.2185 11.8973 18.8543 11.4693 19.2823 10.7754" fill="#E82E3D"/>
<path d="M82.6824 10.8636C82.6824 11.7944 82.6866 12.7251 82.6824 13.6559C82.6824 13.8387 82.7241 13.8928 82.9151 13.8928C83.846 13.8803 84.7768 13.8928 85.7077 13.8845C86.1896 13.8803 86.6757 13.9302 87.1577 13.8346C87.8017 13.7099 88.2923 13.1199 88.2837 12.5257C88.2713 11.4162 88.2837 10.3109 88.2795 9.20151C88.2795 9.10591 88.2795 9.01451 88.2506 8.91895C87.9848 8.12111 87.4652 7.89675 86.7505 7.87596C85.4749 7.84272 84.1952 7.87182 82.9193 7.86351C82.7324 7.86351 82.6866 7.90923 82.6866 8.09619C82.6993 9.01865 82.6907 9.94111 82.6907 10.8636M79.8696 10.8802C79.8696 9.4799 79.8696 8.07543 79.8654 6.67511C79.8654 6.4798 79.9068 6.42578 80.1106 6.42578C82.8986 6.43409 85.6825 6.41747 88.4667 6.43826C89.7382 6.44657 90.8476 7.3358 91.0638 8.59898C91.0886 8.74857 91.1093 8.88985 91.1093 9.03944C91.1093 10.2652 91.1093 11.4869 91.1093 12.7127C91.1093 13.9551 90.1912 15.0355 88.9611 15.264C88.7243 15.3055 88.4791 15.3305 88.2299 15.3305C85.5332 15.3221 82.8362 15.3221 80.1395 15.3305C79.9192 15.3305 79.8613 15.2806 79.8654 15.0562C79.8778 13.6642 79.8696 12.2722 79.8696 10.8802Z" fill="#E82E3D"/>
<path d="M56.1511 10.8805C56.1511 11.8113 56.1552 12.7421 56.1511 13.6728C56.1511 13.8474 56.2011 13.8931 56.3714 13.8889C57.5349 13.8806 58.6985 13.8889 59.8575 13.8848C60.0944 13.8848 60.3312 13.8598 60.5639 13.8474C61.2704 13.8016 61.8147 13.0745 61.8023 12.4221C61.7858 11.429 61.7858 10.4359 61.8023 9.4428C61.8189 8.50786 61.1997 7.88044 60.2523 7.87627C58.956 7.86796 57.6594 7.87627 56.3672 7.86796C56.1928 7.86796 56.1469 7.91367 56.1469 8.08819C56.1552 9.01896 56.1469 9.94973 56.1469 10.8805M53.3755 10.8639C53.3755 9.4719 53.3796 8.07988 53.3713 6.68372C53.3713 6.46763 53.4337 6.42609 53.633 6.42609C56.3921 6.4344 59.1553 6.41361 61.9144 6.43857C63.2192 6.45102 64.2084 7.20727 64.549 8.49955C64.599 8.68654 64.6238 8.89016 64.6196 9.09791C64.6114 10.2531 64.6072 11.4041 64.6196 12.5592C64.6321 13.8183 63.8302 14.9568 62.5546 15.2352C62.3425 15.2809 62.1305 15.3308 61.9102 15.3308C59.1511 15.3308 56.3879 15.3308 53.6289 15.3308C53.4172 15.3308 53.3672 15.2767 53.3713 15.069C53.3796 13.6687 53.3755 12.2642 53.3755 10.8639Z" fill="#E82E3D"/>
<path d="M73.7558 11.6936C73.1284 10.5135 72.5216 9.37498 71.9069 8.21985C71.2836 9.39577 70.6768 10.5385 70.0659 11.6936H73.7558ZM65.0256 15.3211C65.4538 14.5233 65.8527 13.7712 66.2598 13.0191C66.5467 12.4873 66.8414 11.9595 67.1283 11.4277C67.926 9.95672 68.7155 8.47745 69.5298 7.01065C69.7543 6.6076 70.1614 6.43726 70.6103 6.42895C71.4622 6.41647 72.3141 6.4123 73.166 6.42895C73.7103 6.44139 74.1382 6.66993 74.4081 7.18103C75.1687 8.61459 75.9416 10.044 76.7145 11.4734C77.2879 12.5371 77.8612 13.6009 78.439 14.6646C78.5262 14.8225 78.6093 14.9846 78.7007 15.1425C78.7713 15.2588 78.7589 15.317 78.6052 15.317C77.6661 15.317 76.7228 15.317 75.7837 15.317C75.6799 15.317 75.6465 15.2588 75.6134 15.1923C75.2848 14.5732 74.9566 13.9541 74.6408 13.3308C74.5619 13.1729 74.4705 13.123 74.2961 13.1272C72.7088 13.1355 71.1174 13.1313 69.5298 13.1272C69.3888 13.1272 69.2889 13.1479 69.214 13.2975C68.9731 13.7754 68.6824 14.2325 68.4663 14.7187C68.2753 15.1591 68.034 15.3669 67.5106 15.3295C66.7004 15.2713 65.8816 15.3128 65.0215 15.3128" fill="#E82E3D"/>
<path d="M30.6591 15.3221C29.2837 15.3221 27.9083 15.3346 26.5329 15.318C25.9678 15.3097 25.4151 15.1892 24.9414 14.8443C24.2309 14.3332 23.8237 13.6517 23.8195 12.7584C23.8154 11.4702 23.8154 10.1863 23.8195 8.89816C23.8195 7.93829 24.5426 6.97842 25.4317 6.64187C25.8431 6.48398 26.2669 6.42578 26.7074 6.42578C29.3709 6.42995 32.0344 6.42995 34.6939 6.42578C34.9015 6.42578 34.9639 6.4798 34.9515 6.68759C34.9349 7.00752 34.9349 7.32749 34.9515 7.64328C34.9639 7.83859 34.8932 7.87182 34.7146 7.87182C32.5331 7.86351 30.3474 7.86351 28.1659 7.87182C27.4263 7.87182 26.857 8.22502 26.6783 8.92725C26.5828 9.29707 26.6534 9.68351 26.6451 10.0616C26.6409 10.2154 26.7739 10.153 26.8446 10.153C27.6631 10.1572 28.4776 10.153 29.2961 10.153C30.6009 10.153 31.9056 10.1572 33.2104 10.1489C33.4264 10.1489 33.4763 10.2112 33.468 10.4148C33.4514 10.7057 33.4472 11.0007 33.468 11.2916C33.4846 11.5243 33.4264 11.5991 33.173 11.5991C31.087 11.5866 29.0011 11.5991 26.9152 11.5866C26.6991 11.5866 26.6202 11.6323 26.6409 11.8567C26.6783 12.2971 26.562 12.7542 26.8155 13.1656C27.044 13.5354 27.3681 13.7473 27.7961 13.8304C28.2781 13.9218 28.7643 13.8761 29.2463 13.8761C31.0912 13.8845 32.9403 13.8845 34.7853 13.8761C34.997 13.8761 35.0845 13.9094 35.0676 14.1421C35.0428 14.4495 35.0511 14.7612 35.0676 15.0729C35.0801 15.2681 35.0263 15.3221 34.8225 15.3221C33.4389 15.3138 32.051 15.318 30.6674 15.318" fill="#E82E3D"/>
</svg>
