<svg width="83" height="41" viewBox="0 0 83 41" fill="none" xmlns="http://www.w3.org/2000/svg">
<path d="M59.7099 1.53906C57.6459 1.53906 55.7895 2.27023 54.3453 3.67516C52.9827 5.02406 52.2841 6.6791 52.2841 8.52273C52.2869 10.5919 52.9578 12.1335 54.4463 13.5111C55.7881 14.737 57.6086 15.4107 59.631 15.4107C61.5262 15.4107 63.4988 14.655 64.8144 13.4291C66.1175 12.2264 66.899 10.4005 66.8977 8.48446C66.8949 6.56156 66.3402 5.04866 65.1547 3.7968C63.7949 2.37136 61.8098 1.53906 59.7099 1.53906ZM68.1551 1.71673H67.9933C67.8411 1.7263 67.6613 1.74406 67.5575 1.86706C67.433 2.02286 67.4718 2.27706 67.4718 2.45746C67.4718 3.01096 67.4773 3.56446 67.4718 4.1207C67.4676 4.2519 67.4648 4.3831 67.4745 4.5143C67.4842 4.62363 67.498 4.7562 67.6225 4.79036C67.8715 4.8587 67.9075 4.4692 67.931 4.3175C68.0071 3.8419 68.0721 3.34306 68.4235 2.97543C68.7112 2.67886 69.1124 2.55176 69.5094 2.47386C69.8248 2.41373 70.1457 2.38093 70.4639 2.37C70.955 2.35086 71.4599 2.33446 71.9482 2.36316C72.135 2.37273 72.3328 2.3864 72.4808 2.5135C72.5915 2.60643 72.6191 2.74856 72.6274 2.8866C72.6482 3.2556 72.6413 3.5877 72.6413 3.9977L72.6302 12.7758C72.6302 13.1175 72.6385 13.4701 72.5292 13.8008C72.4324 14.0933 72.2041 14.2928 71.9206 14.4158C71.5886 14.5566 71.2372 14.5689 70.8831 14.6126C70.7447 14.6304 70.5262 14.6536 70.4846 14.8176C70.4404 14.9857 70.6092 15.0937 70.753 15.1183C70.9329 15.1483 71.1237 15.1183 71.3022 15.1046C71.482 15.0937 71.6646 15.0814 71.8458 15.0732C72.1557 15.0595 72.4656 15.0486 72.7755 15.0417C73.1794 15.0335 73.5833 15.0308 73.9873 15.0335C74.3511 15.0363 74.7149 15.0445 75.0801 15.0554C75.3955 15.0691 75.7123 15.0827 76.0291 15.1032C76.2393 15.1169 76.4579 15.162 76.6654 15.1128C76.8176 15.0759 76.9905 14.9529 76.9006 14.7807C76.8355 14.6522 76.6377 14.6345 76.5132 14.6167C76.3292 14.5894 76.1439 14.5825 75.9599 14.5538C75.6307 14.4992 75.2765 14.3871 75.051 14.1261C74.8754 13.9211 74.8159 13.645 74.7937 13.384C74.7619 13.0587 74.7661 3.94303 74.7661 3.94303C74.7661 3.60546 74.755 3.26243 74.7757 2.92623C74.784 2.79503 74.8117 2.64743 74.8961 2.54356C74.9791 2.44243 75.1133 2.4069 75.2364 2.38776C75.4204 2.36043 75.6099 2.36043 75.7953 2.36043C76.4966 2.35223 77.2104 2.34676 77.9021 2.47386C78.2659 2.53946 78.638 2.66246 78.9091 2.9194C79.2162 3.2064 79.3463 3.6205 79.421 4.01956C79.4597 4.2273 79.4583 4.4774 79.5552 4.666C79.6063 4.76166 79.735 4.85186 79.836 4.7644C79.8636 4.74116 79.8802 4.707 79.8913 4.67283C79.9397 4.52796 79.9148 4.35166 79.9148 4.20133V2.5955C79.9148 2.42603 79.937 2.2511 79.9148 2.083C79.901 2.00373 79.8802 1.9231 79.8277 1.85886C79.7447 1.75636 79.6036 1.7304 79.4791 1.7222C79.2578 1.7058 79.0406 1.72766 78.8206 1.73996C77.6005 1.80556 76.368 1.83563 75.152 1.84656C74.6333 1.8534 74.1145 1.85476 73.5972 1.85476C73.0909 1.85476 72.5873 1.85203 72.0796 1.84656L70.854 1.82606C70.1167 1.80966 69.3794 1.77823 68.6407 1.74406C68.4816 1.73586 68.3184 1.71946 68.1565 1.71673H68.1551ZM37.7854 1.77823C36.6829 1.7755 35.4061 1.8739 33.9813 1.8739C33.0032 1.8739 32.4402 1.8329 32.3669 1.8329C32.2604 1.83563 32.1359 1.84656 32.0487 1.9149C31.9657 1.97776 31.9519 2.09666 32.0252 2.17456C32.1151 2.27296 32.2701 2.29483 32.3987 2.30576C32.5564 2.31943 32.7169 2.3331 32.8746 2.36043C33.0198 2.38366 33.1582 2.41783 33.2854 2.47523C33.5165 2.57363 33.7101 2.75676 33.7973 3.00823C33.8844 3.26106 33.9024 3.56036 33.9024 3.9977V12.8537C33.9024 13.3006 33.8886 13.6054 33.8014 13.8609C33.7184 14.1206 33.5247 14.3078 33.284 14.4158C32.9451 14.5825 32.5703 14.5497 32.2134 14.6413C32.0501 14.685 31.8814 14.8395 32.01 15.013C32.0377 15.054 32.0847 15.0841 32.1345 15.1019C32.2659 15.1511 32.407 15.1333 32.5454 15.1251C32.7349 15.1114 32.9258 15.0978 33.1167 15.0868C33.5538 15.0622 34.1708 15.0376 34.9731 15.0376C35.7754 15.0376 36.3924 15.0622 36.8295 15.0868C36.9789 15.095 37.1339 15.1087 37.286 15.1169C37.4354 15.1265 37.6014 15.1497 37.7467 15.1169C37.8435 15.0978 37.9376 15.0554 37.968 14.957C38.0095 14.834 37.9154 14.7137 37.8048 14.6659C37.6734 14.6085 37.5171 14.6112 37.376 14.5907C37.0232 14.5361 36.6289 14.4787 36.3661 14.219C36.2651 14.1206 36.1863 14.0003 36.1448 13.8637C36.059 13.6095 36.0479 13.3033 36.0452 12.8578L36.0369 9.01746C36.3191 9.01746 36.6372 8.99013 36.9029 9.1063C37.0689 9.1801 37.1933 9.30173 37.3123 9.45343L41.6145 14.7875C41.7528 14.957 41.8704 15.0253 42.0018 15.0677C42.1346 15.1087 42.2965 15.1169 42.4998 15.1169C42.7903 15.1169 43.1085 15.0964 43.4377 15.0964C44.6786 15.0964 46.239 15.0513 47.4798 15.0417C48.314 15.0322 49.1467 15.0417 49.9809 15.0868L50.4927 15.1169C50.6781 15.1306 50.9119 15.1716 51.0834 15.08C51.2176 15.0076 51.2522 14.8381 51.1387 14.7288C51.1194 14.7096 51.0972 14.6932 51.0696 14.6796C50.9312 14.6153 50.7652 14.6153 50.6186 14.5976C50.3737 14.5702 50.1441 14.5429 49.9103 14.4609C49.606 14.3543 49.3404 14.1903 49.2187 13.8787C49.1108 13.619 49.0859 13.3074 49.0845 12.8592V4.00316C49.0845 3.51936 49.1204 3.18726 49.2436 2.92076C49.3639 2.65016 49.6102 2.4889 49.873 2.4233C50.122 2.36316 50.3848 2.34676 50.6421 2.31396C50.7943 2.29346 51.1913 2.3085 51.2038 2.08573C51.2107 1.99006 51.1152 1.92583 51.0336 1.8944C50.9091 1.84383 50.7708 1.84246 50.6407 1.83973C50.5854 1.83973 50.306 1.8616 49.8661 1.88073C49.4234 1.90123 48.8009 1.92173 48.0124 1.92173C47.4176 1.92173 46.8227 1.90806 46.2251 1.88073C46.0287 1.87253 45.8323 1.85886 45.6344 1.8534C45.4449 1.8452 45.2471 1.83016 45.059 1.88073C44.9622 1.90806 44.828 1.96 44.8238 2.07753C44.8169 2.25793 45.059 2.29346 45.1945 2.30986C45.4228 2.33446 45.6538 2.33173 45.8821 2.36453C46.0481 2.39186 46.1933 2.42466 46.3247 2.48206C46.5544 2.58183 46.7508 2.7636 46.8407 3.01506C46.9348 3.26926 46.9569 3.5713 46.9583 4.00453V12.8605C46.9583 13.2979 46.9362 13.6054 46.8338 13.8664C46.7314 14.1302 46.5198 14.3119 46.2639 14.4213C45.9969 14.5347 45.6967 14.5812 45.4104 14.5989C45.095 14.6153 44.7657 14.5962 44.4738 14.4718C44.045 14.2887 43.6646 13.9703 43.363 13.6245L39.0996 8.69356C39.7498 8.5569 40.3944 8.42433 40.9892 8.11956C41.3489 7.9378 41.6809 7.70273 41.9576 7.4089C42.4777 6.84446 42.753 6.11603 42.7543 5.18533C42.7488 3.9362 42.3338 3.13123 41.5232 2.58866C40.7098 2.042 39.4482 1.78233 37.7785 1.78233L37.7854 1.77823ZM8.67732 1.837C8.61783 1.83973 8.55697 1.84656 8.49748 1.85066C8.30935 1.86023 8.11845 1.87116 7.92755 1.878C7.48903 1.89986 6.87207 1.919 6.0808 1.919C5.35593 1.919 4.63107 1.89986 3.9062 1.8616C3.6987 1.85066 3.4497 1.80693 3.24773 1.87116C3.0596 1.9313 3.03055 2.1486 3.21315 2.23743C3.32105 2.2921 3.45938 2.29756 3.57697 2.31123C3.71253 2.32763 3.84672 2.3413 3.9809 2.36316C4.12753 2.38776 4.26448 2.42193 4.39313 2.47933C4.62277 2.5791 4.81643 2.76086 4.9022 3.01506C4.99073 3.26516 5.00872 3.56583 5.0101 4.0018V12.8578C5.0101 13.3061 4.99627 13.6095 4.90912 13.8664C4.82612 14.1261 4.63245 14.3106 4.39175 14.4199C4.25757 14.4882 4.11232 14.5251 3.96707 14.5511C3.81075 14.5784 3.65305 14.5853 3.49673 14.6099C3.37223 14.6276 3.19517 14.6468 3.11908 14.7561C3.03885 14.8709 3.08173 15.0212 3.20208 15.0868C3.36117 15.1716 3.56452 15.1306 3.73743 15.1183C3.90067 15.1073 4.0639 15.095 4.22852 15.0868C4.66565 15.0595 5.28262 15.0376 6.08218 15.0376C6.88452 15.0376 7.50287 15.0609 7.94 15.0868C8.106 15.0964 8.272 15.1142 8.438 15.1278C8.63167 15.1415 9.0605 15.2098 9.09923 14.9269C9.10753 14.8695 9.08817 14.8094 9.05358 14.7629C9.00932 14.7083 8.94015 14.6673 8.87098 14.6495C8.65933 14.588 8.43662 14.5853 8.21805 14.5484C8.07418 14.521 7.93032 14.4828 7.79337 14.4144C7.55405 14.3078 7.35623 14.122 7.2677 13.8637C7.17502 13.6067 7.15703 13.2992 7.15703 12.8551V8.58423H14.2729V12.8578C14.2729 13.3061 14.2591 13.6095 14.1719 13.8664C14.0889 14.1261 13.8952 14.3106 13.6559 14.4199C13.5204 14.4882 13.3765 14.5251 13.2271 14.5511C13.0113 14.588 12.7872 14.5894 12.5728 14.6495C12.476 14.6768 12.3819 14.7178 12.3487 14.8231C12.3127 14.942 12.386 15.0554 12.4981 15.0991C12.7056 15.1811 12.9546 15.1265 13.169 15.1101C13.9077 15.0527 14.6492 15.0376 15.3906 15.0417C16.1293 15.0445 16.8708 15.0554 17.604 15.1183C17.8087 15.136 18.2099 15.2085 18.3316 14.9843C18.3731 14.9078 18.3593 14.8067 18.2998 14.7424C18.2555 14.6946 18.1919 14.6714 18.1296 14.6536C17.7672 14.5511 17.3826 14.5894 17.0368 14.4185C16.8016 14.3119 16.6052 14.1261 16.5222 13.8678C16.4364 13.6108 16.4226 13.3074 16.4212 12.8592V4.00316C16.4212 3.56583 16.4406 3.26516 16.5291 3.01643C16.7325 2.43423 17.3729 2.38366 17.9028 2.30576C18.0522 2.28253 18.3247 2.28116 18.351 2.083C18.3607 2.02013 18.3233 1.95726 18.2721 1.919C18.2209 1.878 18.1559 1.86433 18.0923 1.8534C17.9028 1.82606 17.7119 1.8575 17.5251 1.86433C17.3342 1.87116 17.1447 1.8821 16.9552 1.88893C16.4212 1.9108 15.8859 1.92036 15.3505 1.92036C14.5592 1.92036 13.9423 1.90123 13.5038 1.87936C13.306 1.87116 13.1095 1.8616 12.9131 1.8493C12.7443 1.8411 12.4704 1.80283 12.3805 1.9928C12.3487 2.06113 12.357 2.14586 12.4178 2.1978C12.4593 2.22923 12.5119 2.24563 12.5645 2.2593C12.9283 2.35496 13.3115 2.33173 13.6615 2.48206C13.8897 2.58183 14.0834 2.7636 14.1678 3.0178C14.2563 3.2679 14.2743 3.56856 14.2757 4.00453V7.9009H7.15427V4.0018C7.15427 3.51936 7.18885 3.1859 7.31197 2.92213C7.4337 2.6488 7.67993 2.48753 7.94277 2.4233C8.21943 2.35496 8.50993 2.31806 8.79213 2.27296C8.87237 2.2593 8.95813 2.2388 9.01347 2.17456C9.12413 2.04336 8.99272 1.88756 8.85577 1.85203C8.79767 1.83836 8.7368 1.83426 8.67593 1.83836L8.67732 1.837ZM20.0207 1.83973C19.9003 1.83973 19.7302 1.8534 19.6582 1.96273C19.5863 2.07206 19.6679 2.1978 19.7758 2.24153C20.0068 2.33446 20.2849 2.3208 20.5283 2.3618C20.675 2.3864 20.8133 2.42056 20.9406 2.47796C21.1702 2.57773 21.3639 2.7595 21.4496 3.0137C21.5368 3.2638 21.5548 3.56446 21.5562 4.00043V12.8564C21.5562 13.3047 21.5423 13.6081 21.4552 13.865C21.3722 14.1247 21.1785 14.3092 20.9378 14.4185C20.6943 14.5279 20.426 14.5661 20.1631 14.6017C19.9792 14.6249 19.5821 14.6345 19.6236 14.916C19.6375 15.0226 19.7412 15.0964 19.845 15.121C19.9861 15.1511 20.1382 15.1278 20.2793 15.121C20.8548 15.0882 21.4275 15.0527 22.0057 15.0431L22.6282 15.039C27.1905 15.039 29.6556 15.1374 30.0194 15.1347C30.1467 15.1347 30.2767 15.1347 30.4026 15.1155C30.5741 15.0882 30.6792 15.0007 30.7 14.8285C30.7207 14.6645 30.7138 14.4937 30.7166 14.327C30.7207 14.1438 30.7304 13.958 30.7415 13.7748C30.7622 13.4058 30.7899 13.0368 30.7941 12.6678C30.7941 12.4683 30.8162 12.2442 30.7332 12.0583C30.6958 11.9763 30.6253 11.9216 30.5312 11.9298C30.4372 11.9353 30.3583 12.005 30.3154 12.087C30.2629 12.1868 30.2463 12.3111 30.2227 12.4205C30.1951 12.5407 30.1646 12.661 30.1259 12.7785C30.0747 12.9398 30.0014 13.1202 29.888 13.3074C29.6168 13.7639 29.2143 14.0823 28.6748 14.2641C28.1353 14.4445 27.4575 14.5101 26.5721 14.5101C25.8486 14.5101 25.3133 14.4732 24.8914 14.3652C24.4764 14.26 24.1582 14.055 23.9728 13.7407C23.8483 13.5329 23.7819 13.2924 23.7418 13.0163C23.6865 12.6473 23.681 12.21 23.681 11.6702L23.6989 8.44073C24.3145 8.44073 24.9508 8.4298 25.5485 8.60746C25.6176 8.6266 25.684 8.64846 25.7504 8.6758C26.1931 8.84663 26.5085 9.1514 26.698 9.56003C26.781 9.7336 26.8433 9.9181 26.8917 10.1067C26.929 10.257 26.947 10.421 27.0272 10.5618C27.1075 10.7067 27.2901 10.7395 27.38 10.5891C27.481 10.4251 27.4464 10.227 27.4325 10.0493L27.3911 9.48896C27.3496 8.92863 27.3274 8.37103 27.3274 7.81206C27.3274 7.2326 27.3689 6.65586 27.4104 6.0764C27.4243 5.90146 27.4588 5.691 27.4007 5.52153C27.3454 5.3712 27.1711 5.2687 27.0314 5.38486C26.8986 5.4983 26.882 5.7033 26.8543 5.86046C26.8322 5.9944 26.8059 6.1584 26.7575 6.3347C26.7091 6.5028 26.6468 6.67636 26.5403 6.84993C26.319 7.20526 26.0105 7.4622 25.5996 7.61526C25.1902 7.77243 24.6839 7.84486 24.0088 7.89133L23.681 7.91183C23.681 7.75466 23.6561 3.23783 23.7017 2.92896C23.7155 2.84013 23.7363 2.7513 23.7778 2.67476C23.8884 2.46703 24.1153 2.43286 24.3311 2.41236C24.5469 2.39323 24.807 2.39323 25.1404 2.39323H25.2994C26.2636 2.39323 27.2914 2.4233 27.8821 2.56133C28.4673 2.698 28.9196 2.9645 29.2046 3.42233C29.3056 3.57813 29.3678 3.74213 29.4093 3.89793C29.4508 4.06193 29.473 4.20543 29.4923 4.3216C29.5103 4.43093 29.5242 4.54573 29.5698 4.6455C29.621 4.75483 29.7413 4.82316 29.8631 4.79036C29.9696 4.76303 30.0291 4.66736 30.0429 4.5635C30.065 4.3995 30.0291 4.22866 30.0097 4.06603C29.9848 3.85283 29.9682 3.63826 29.9682 3.4237C29.9682 2.85926 30.0305 2.49436 30.0291 2.36043C30.0291 2.2306 30.0014 2.13903 29.9599 2.07343C29.8741 1.94633 29.7137 1.90533 29.5698 1.88483C29.1714 1.82743 28.7605 1.85203 28.358 1.85203C26.4905 1.85203 24.5898 1.9108 23.1484 1.9108C21.2753 1.9108 20.1936 1.8288 20.022 1.83153L20.0207 1.83973ZM59.6324 2.0256C61.0227 2.0256 62.2428 2.60506 63.088 3.7066C63.9346 4.8095 64.416 6.4126 64.416 8.46533C64.416 10.5208 63.9041 12.128 63.0382 13.235C62.1736 14.3393 60.9493 14.9256 59.5909 14.9242C58.2242 14.9242 57.0068 14.2983 56.1575 13.1708C55.3053 12.0433 54.8073 10.4279 54.8073 8.42843C54.8073 6.43856 55.315 4.84503 56.1768 3.74076C57.0387 2.63376 58.2657 2.0256 59.6324 2.02696V2.0256ZM36.9872 2.24426C38.1354 2.24426 39.0069 2.4766 39.5962 3.026C40.1869 3.57676 40.44 4.4036 40.44 5.47506C40.4428 6.5192 40.1772 7.31323 39.5104 7.81206C38.8506 8.30406 37.8809 8.48583 36.5169 8.48856L36.0521 8.48583V2.9727C36.0521 2.81553 36.0659 2.70346 36.0977 2.60643C36.1296 2.51076 36.1946 2.42876 36.2499 2.3905C36.4118 2.2757 36.6041 2.247 36.9914 2.24016L36.9872 2.24426Z" fill="white"/>
<path d="M48.8969 17.3959C48.8 17.3959 48.7336 17.4342 48.6672 17.5052C48.6091 17.5708 48.5524 17.6761 48.5054 17.7922L44.0607 28.2609C43.8809 28.6846 43.6942 29.111 43.4521 29.5046C43.2307 29.8599 42.9264 30.1838 42.5225 30.341C42.2735 30.4366 42.0106 30.4776 41.7547 30.5432C41.669 30.5651 41.5749 30.5952 41.5334 30.6717C41.4919 30.74 41.5099 30.8316 41.5583 30.8945C41.6095 30.9573 41.6869 30.9929 41.7658 31.0093C41.8861 31.0366 42.0203 31.0325 42.1434 31.027C42.4201 31.0188 42.6926 30.9888 42.9665 30.9724C43.2473 30.9587 43.5309 30.9505 43.8131 30.9519C44.0663 30.9519 44.3208 30.9655 44.574 30.986C44.7026 30.9942 44.8326 31.0065 44.9613 31.0175C45.0886 31.0284 45.2214 31.0544 45.3486 31.0544C45.5008 31.068 45.6585 31.0885 45.8051 31.0407C45.8743 31.0175 45.9545 30.9724 45.9794 30.8986C45.9891 30.8644 45.9891 30.8275 45.9794 30.7933C45.9379 30.6157 45.7028 30.5883 45.5547 30.5569C45.3943 30.5227 45.2366 30.4817 45.0886 30.4202C44.8921 30.3382 44.7151 30.2207 44.585 30.0376C44.4564 29.8558 44.4356 29.6166 44.4522 29.4034C44.4661 29.1984 44.5034 29.0016 44.5587 28.8021C44.6002 28.6559 44.65 28.5096 44.7068 28.3675L45.5755 26.2259H50.5638L51.4726 28.6039C51.5598 28.8281 51.6345 29.0577 51.6884 29.2914C51.7438 29.5182 51.8033 29.7601 51.741 29.9925C51.6359 30.3929 51.1157 30.4653 50.7658 30.5159C50.7478 30.5159 50.7298 30.52 50.7104 30.5214C50.5444 30.5487 50.1543 30.5733 50.1073 30.781C50.0713 30.9409 50.2567 31.0202 50.3812 31.0434C50.55 31.0749 50.7229 31.0708 50.893 31.0639C51.0632 31.0585 51.2319 31.053 51.4007 31.0421C51.9568 31.0065 52.5101 30.956 53.069 30.9519C53.6293 30.9464 54.1895 30.9765 54.7484 31.0011C54.8245 31.0052 54.9005 31.012 54.978 31.012C55.2298 31.0229 55.494 31.0585 55.7458 31.0257C55.8564 31.0093 55.9906 30.9573 56.0252 30.8412C56.0625 30.7182 55.9505 30.6225 55.8454 30.5842C55.6683 30.5159 55.4774 30.5063 55.292 30.4681C55.162 30.4407 55.0264 30.4052 54.8909 30.3478C54.6322 30.2439 54.4178 30.0581 54.2352 29.8039C54.0498 29.5442 53.8893 29.2162 53.7123 28.7925L49.3133 17.8319C49.2552 17.6979 49.1915 17.5777 49.1307 17.5093C49.0615 17.4328 48.9979 17.3959 48.8996 17.3945L48.8969 17.3959ZM54.6723 17.6282H54.5132C54.361 17.6364 54.1784 17.6528 54.0761 17.7786C53.9488 17.933 53.9875 18.1858 53.9875 18.3662C53.9875 18.9225 53.9945 19.4773 53.9875 20.0308C53.9848 20.162 53.982 20.2946 53.9917 20.4272C54 20.5324 54.0152 20.6677 54.1383 20.7005C54.3873 20.7688 54.4219 20.3793 54.4468 20.229C54.5229 19.7507 54.5851 19.2532 54.9379 18.8869C55.2242 18.5904 55.6254 18.4633 56.0224 18.3867C56.3364 18.328 56.6546 18.2952 56.9769 18.2829C57.4666 18.2651 57.9702 18.2473 58.4599 18.276C58.6466 18.2897 58.8444 18.3034 58.9938 18.4264C59.1045 18.522 59.1322 18.6642 59.1391 18.8008C59.1626 19.1698 59.1529 19.5033 59.1557 19.9133L59.1418 28.6914C59.1418 29.0331 59.1515 29.3884 59.0422 29.7164C58.9454 30.0102 58.7199 30.2125 58.4377 30.3314C58.1057 30.4735 57.7516 30.4858 57.4002 30.5296C57.2619 30.5473 57.0406 30.5733 56.9991 30.7346C56.9548 30.904 57.1236 31.012 57.2674 31.0352C57.4473 31.0667 57.6382 31.0352 57.818 31.0243C57.9978 31.0106 58.1804 30.9997 58.3616 30.9901C58.6715 30.9765 58.9841 30.9655 59.2926 30.9587C59.6938 30.9491 60.0991 30.945 60.503 30.9491C60.8669 30.9519 61.2307 30.9587 61.5959 30.971C61.9113 30.9847 62.2281 30.9983 62.5448 31.0202C62.7523 31.0339 62.9737 31.0749 63.1812 31.027C63.3333 30.9915 63.5076 30.8699 63.4163 30.699C63.3513 30.5692 63.1535 30.5487 63.029 30.5323C62.845 30.505 62.661 30.4995 62.4784 30.4694C62.1464 30.4148 61.7923 30.3027 61.5682 30.043C61.3911 29.838 61.333 29.562 61.3095 29.2996C61.2819 28.9757 61.2915 28.6477 61.2915 28.3224L61.2819 19.8627C61.2819 19.5238 61.2736 19.1794 61.2929 18.8432C61.3012 18.7134 61.3289 18.5644 61.4133 18.4605C61.4963 18.3608 61.6305 18.3239 61.7522 18.3047C61.9597 18.2747 62.1644 18.2774 62.3719 18.2774H62.2723C62.6527 18.2774 63.0332 18.2747 63.4136 18.2911C63.7511 18.302 64.0886 18.3321 64.4193 18.3922C64.7831 18.4578 65.1552 18.5808 65.4291 18.8391C65.7334 19.1288 65.8621 19.5402 65.9368 19.9406C65.9755 20.1456 65.9741 20.3971 66.0723 20.583C66.1221 20.6786 66.2522 20.7716 66.3518 20.6841C66.3794 20.6595 66.396 20.6267 66.4071 20.5912C66.4555 20.4463 66.4306 20.27 66.4306 20.1197L66.4334 19.0496V18.5138C66.4334 18.3444 66.4541 18.1694 66.4306 18.0013C66.4196 17.9221 66.3974 17.8414 66.3449 17.7786C66.2619 17.6761 66.1208 17.6501 65.9963 17.6419C65.7749 17.6255 65.5577 17.6487 65.3378 17.661L64.6932 17.6925C64.4386 17.7061 64.1841 17.7143 63.9296 17.7225C63.5976 17.7335 63.2628 17.7417 62.9294 17.7499C62.5075 17.7581 62.0856 17.7635 61.6678 17.769C61.1491 17.7731 60.6303 17.7745 60.1129 17.7745C59.608 17.7745 59.1031 17.7745 58.5968 17.7663C58.1873 17.7622 57.7806 17.7553 57.3712 17.7458C56.6325 17.728 55.8952 17.6966 55.1578 17.6638C54.9974 17.6556 54.8341 17.6392 54.6737 17.6364L54.6723 17.6282ZM68.1626 17.6282H68.0007C67.8485 17.6364 67.6687 17.6528 67.565 17.7786C67.4405 17.933 67.4778 18.1858 67.4778 18.3662C67.4778 18.9225 67.4847 19.4773 67.4778 20.0308C67.475 20.162 67.4709 20.2946 67.482 20.4272C67.4916 20.5324 67.5055 20.6677 67.63 20.7005C67.879 20.7688 67.9149 20.3793 67.9384 20.229C68.0159 19.7507 68.0768 19.2532 68.4309 18.8869C68.7173 18.5904 69.1184 18.4633 69.5155 18.3867C69.8309 18.328 70.149 18.2952 70.47 18.2829C70.961 18.2651 71.466 18.2473 71.9543 18.276C72.141 18.2897 72.3388 18.3034 72.4882 18.4264C72.5989 18.522 72.6238 18.6642 72.6321 18.8008C72.6542 19.1698 72.6459 19.5033 72.6487 19.9133L72.6349 28.6914C72.6349 29.0331 72.6446 29.3884 72.5353 29.7164C72.4384 30.0102 72.2116 30.2125 71.9307 30.3314C71.5987 30.4735 71.2446 30.4858 70.8905 30.5296C70.7522 30.5473 70.5336 30.5733 70.4921 30.7346C70.4478 30.904 70.6166 31.012 70.7605 31.0352C70.9403 31.0667 71.134 31.0352 71.311 31.0243C71.4909 31.0106 71.6735 30.9997 71.8547 30.9901C72.1659 30.9765 72.4772 30.9655 72.787 30.9587C73.1882 30.9491 73.5935 30.945 73.9974 30.9491C74.3599 30.9519 74.7237 30.9587 75.0861 30.971C75.4043 30.9847 75.7225 30.9983 76.0365 31.0202C76.2468 31.0339 76.4653 31.0749 76.6728 31.027C76.8278 30.9915 76.9993 30.8699 76.9107 30.699C76.8416 30.5692 76.6479 30.5487 76.5207 30.5323C76.3381 30.505 76.1527 30.4995 75.9701 30.4694C75.6381 30.4148 75.2853 30.3027 75.0599 30.043C74.8828 29.838 74.8247 29.562 74.8026 29.2996C74.7721 28.9757 74.7749 19.86 74.7749 19.86C74.7749 19.5211 74.7652 19.1767 74.7846 18.8405C74.7915 18.7106 74.8192 18.5617 74.9035 18.4578C74.9838 18.358 75.1193 18.3211 75.2425 18.302C75.4292 18.2747 75.616 18.2747 75.8027 18.2747C76.5041 18.2665 77.2179 18.2637 77.9095 18.3895C78.2733 18.4551 78.6427 18.5781 78.9194 18.8364C79.2237 19.1261 79.3523 19.5388 79.427 19.9379C79.4658 20.1429 79.4644 20.3944 79.5612 20.5802C79.6124 20.6759 79.7411 20.7688 79.842 20.6814C79.8697 20.6568 79.8863 20.624 79.8974 20.5884C79.9458 20.4436 79.9209 20.2673 79.9209 20.1169V18.5111C79.9236 18.3416 79.943 18.1667 79.9209 17.9986C79.9071 17.9193 79.8863 17.8387 79.8337 17.7758C79.7507 17.6733 79.6083 17.6474 79.4838 17.6392C79.2624 17.6228 79.0439 17.646 78.8253 17.6583C77.608 17.7239 76.374 17.754 75.1567 17.7649C74.6393 17.769 74.1192 17.7704 73.6032 17.7704C73.0969 17.7704 72.5934 17.7704 72.0857 17.7622C71.6776 17.7581 71.2695 17.7512 70.8601 17.7417C70.1227 17.7239 69.3854 17.6925 68.6467 17.6597C68.4876 17.6515 68.3244 17.6351 68.1626 17.6323V17.6282ZM35.8839 17.7102C35.8562 17.7075 35.8258 17.7102 35.7981 17.713C35.6653 17.7348 35.5768 17.8168 35.5076 17.9234C35.4287 18.0492 35.3554 18.2692 35.278 18.5248L32.2651 28.526L32.034 27.7744L31.969 27.5653C31.2497 25.2447 30.6784 23.3969 30.2703 22.0166C30.0324 21.2103 29.8553 20.5748 29.7363 20.0992C29.6187 19.6208 29.5565 19.3133 29.5537 19.107C29.5537 19.0154 29.5606 18.9225 29.5952 18.8241C29.6229 18.7257 29.6893 18.6286 29.7751 18.5576C29.9065 18.451 30.0683 18.3936 30.2288 18.3485C30.4128 18.3006 30.5981 18.2665 30.7863 18.2419C30.9066 18.2282 31.0284 18.2186 31.1459 18.1913C31.2455 18.1681 31.3576 18.1257 31.3673 18.0095C31.3728 17.9098 31.2981 17.8182 31.2068 17.7854C31.1141 17.7485 30.9537 17.7307 30.7724 17.7307C30.0573 17.7307 29.2162 17.8305 28.3018 17.8319C26.9461 17.8319 26.1272 17.7526 25.8948 17.7526C25.8021 17.7553 25.6873 17.7499 25.6043 17.7936C25.5448 17.8209 25.5033 17.8811 25.4936 17.9467C25.4867 18.0054 25.5047 18.0697 25.5448 18.1134C25.632 18.2118 25.8049 18.2364 25.928 18.261C26.0857 18.2883 26.2462 18.2993 26.4011 18.3334C26.6363 18.3881 26.8521 18.5138 27.0001 18.7298C27.1523 18.9402 27.2588 19.2177 27.3916 19.629L30.8388 30.2781C30.9135 30.4995 30.9869 30.7209 31.0823 30.9341C31.1321 31.0434 31.1957 31.1528 31.2898 31.2279C31.5457 31.437 31.8293 31.273 31.987 31.0407C32.1046 30.863 32.2153 30.576 32.3232 30.2166L35.195 20.8467L38.028 30.3546C38.0834 30.5432 38.1387 30.7305 38.2175 30.9095C38.2812 31.0516 38.3725 31.2238 38.5219 31.2894C38.674 31.3578 38.8636 31.2935 38.9839 31.1801C39.1333 31.0352 39.2135 30.8289 39.2924 30.6416C39.4169 30.3369 39.5096 30.0198 39.6078 29.7068C39.677 29.495 39.742 29.2832 39.8084 29.0727C39.8969 28.7925 39.9882 28.5124 40.0754 28.2281L40.3908 27.2263C40.507 26.8601 40.6232 26.4924 40.7366 26.1248C40.8611 25.7421 40.9801 25.3595 41.1018 24.9768L41.4615 23.8384L41.799 22.7655L42.0992 21.8143C42.1822 21.5547 42.2652 21.295 42.3454 21.0353C42.4007 20.8549 42.4602 20.6732 42.5169 20.4914C42.5446 20.4053 42.5723 20.3206 42.5972 20.2358C42.5972 20.2304 42.5999 20.2263 42.6013 20.2222C42.7673 19.6892 42.9001 19.2997 43.0634 19.0004C43.2238 18.7038 43.4424 18.4851 43.7357 18.3758C43.8837 18.3211 44.04 18.2883 44.1894 18.2446C44.3097 18.2091 44.4425 18.1735 44.5311 18.0833C44.6085 18.0013 44.621 17.8551 44.5117 17.7922C44.4329 17.7458 44.3319 17.7471 44.2433 17.7417C44.0981 17.7321 43.9528 17.7499 43.8104 17.7608C43.5475 17.7799 43.2875 17.7936 43.0246 17.7936C42.5543 17.7936 42.084 17.784 41.6164 17.7635C41.319 17.7499 41.0216 17.7266 40.7269 17.7171C40.5498 17.7116 40.1985 17.7212 40.1971 17.9672C40.1999 18.0956 40.2939 18.1722 40.4143 18.1995C40.5194 18.2268 40.6301 18.2268 40.7366 18.2432C41.0686 18.2911 41.4241 18.3662 41.669 18.6068C41.8391 18.7844 41.9124 19.0168 41.911 19.2464C41.911 19.9775 41.7132 21.0845 41.2553 22.5236L39.457 28.2951L36.4469 18.5712L36.35 18.261C36.3016 18.1052 36.2532 17.9221 36.1204 17.81C36.0554 17.7553 35.9724 17.7212 35.8852 17.7143L35.8839 17.7102ZM48.1582 20.0295L50.3397 25.5822H45.8273L47.9299 20.5734L48.1582 20.0295Z" fill="white"/>
<path d="M17.5495 18.6408C17.3476 18.6408 17.1207 18.6723 16.8814 18.7502C16.5356 18.8663 16.2686 18.9005 16.0721 18.9005C15.9241 18.9005 15.8176 18.88 15.7498 18.8636L15.6779 18.8404L15.6641 18.8349L15.4953 18.8404L15.4676 18.8923L15.4123 18.988V19.0809H15.4068C15.3293 19.0809 15.2408 19.07 15.1757 19.0563L15.0651 19.0317L14.9129 19.059L14.8438 19.1957V23.2766L14.9544 23.4365C14.9682 23.4392 15.3473 23.5868 15.8992 23.5868C16.104 23.5868 16.335 23.5663 16.5771 23.5089C16.7929 23.4583 16.999 23.4365 17.1968 23.4365C17.6436 23.4365 18.0434 23.5499 18.3975 23.7139L18.4017 23.7235L18.5677 23.733C18.9315 23.5636 19.3465 23.4433 19.8071 23.4433C19.9967 23.4433 20.1945 23.4638 20.402 23.5116C20.633 23.5622 20.8585 23.58 21.0618 23.58C21.6193 23.58 22.0219 23.4406 22.0329 23.4365C22.1021 23.4132 22.1477 23.3476 22.1477 23.2752V19.1943L22.0786 19.0577L21.9292 19.0303L21.8144 19.0549C21.7452 19.0686 21.6525 19.0823 21.5709 19.0823L21.5626 19.0795V18.9839L21.5073 18.8882L21.4837 18.8417H21.481V18.839L21.3108 18.8335C21.297 18.8404 21.1614 18.8978 20.9014 18.8978C20.7077 18.8978 20.4366 18.8636 20.0935 18.7474C19.8514 18.6695 19.6273 18.6381 19.4253 18.6381C18.9688 18.6381 18.6438 18.7939 18.4874 18.8868C18.3325 18.7939 18.0088 18.6381 17.5523 18.6367L17.5495 18.6408ZM17.5495 18.9825C17.8096 18.9825 18.0199 19.0454 18.1651 19.1082L18.3131 19.1834V22.7408C18.1126 22.6124 17.8096 22.4948 17.3586 22.4989C17.2341 22.4989 17.1027 22.5071 16.9575 22.5263C16.5342 22.5809 16.0832 22.6588 15.8287 22.6575C15.801 22.6575 15.783 22.6547 15.7595 22.652V19.2558C15.7637 19.2422 15.7706 19.2326 15.7706 19.2203V19.2135C15.8536 19.2271 15.9504 19.2408 16.0749 19.2408C16.3101 19.2408 16.6172 19.1998 16.9948 19.0741C17.1996 19.0057 17.3863 18.9811 17.5509 18.9811L17.5495 18.9825ZM19.4212 18.9825C19.5872 18.9825 19.7712 19.0071 19.9773 19.0754C20.3536 19.2012 20.6607 19.2394 20.8958 19.2394C21.0203 19.2394 21.1172 19.2285 21.2002 19.2121V19.2189C21.2002 19.2326 21.2098 19.2422 21.2112 19.2558V22.6534L21.1421 22.6575C20.8861 22.6575 20.4366 22.5796 20.0133 22.5235C19.868 22.5058 19.7366 22.4962 19.6121 22.4962C19.1597 22.4962 18.8568 22.611 18.6576 22.7395V19.1834C18.7683 19.1151 19.0366 18.9784 19.4184 18.9811L19.4212 18.9825ZM21.7978 19.4034V23.1481C21.6539 23.1864 21.3869 23.241 21.0577 23.241C20.8751 23.241 20.6759 23.2233 20.4725 23.1782C20.2415 23.1235 20.016 23.103 19.803 23.103C19.3825 23.103 19.0007 23.1932 18.6604 23.3244L18.6576 23.1918C18.7171 23.1071 18.9426 22.8461 19.6121 22.8406C19.7186 22.8406 19.8376 22.8488 19.969 22.8652C20.384 22.9199 20.8267 23.0019 21.1421 23.0019C21.2624 22.9991 21.3634 22.995 21.4699 22.939L21.5584 22.7887V19.4239H21.5681C21.6539 19.4239 21.73 19.4157 21.8005 19.4062L21.7978 19.4034ZM15.1882 19.4034C15.2546 19.4144 15.3265 19.4239 15.404 19.4239H15.4109V22.7887L15.4994 22.939C15.6046 22.9937 15.707 22.9978 15.8273 23.0005C16.1413 23.0005 16.5854 22.9185 17.0031 22.8638C17.1332 22.8502 17.2521 22.8406 17.3586 22.8406C17.7778 22.8406 18.0199 22.9499 18.161 23.0456L18.2993 23.1741L18.3131 23.1877L18.309 23.3107C17.977 23.1823 17.6063 23.0962 17.1982 23.0962C16.9768 23.0962 16.7417 23.1208 16.4996 23.1782C16.2866 23.2287 16.0846 23.2465 15.902 23.2465C15.6571 23.2465 15.4496 23.2137 15.3044 23.1809L15.1937 23.1508L15.1882 19.4034ZM19.5208 19.7451C19.1694 19.7451 18.8762 19.8449 18.8665 19.8476C18.7738 19.8777 18.7254 19.9747 18.7558 20.0635C18.7862 20.1537 18.8845 20.2029 18.9744 20.1729L19.0159 20.1592C19.0989 20.136 19.3064 20.0868 19.5194 20.0881C19.6384 20.0881 19.7587 20.1018 19.8611 20.1428C20.1793 20.2576 20.4656 20.3205 20.6703 20.3205C20.7575 20.3177 20.8322 20.3205 20.9263 20.2521C20.9996 20.192 21.0093 20.0854 20.9512 20.0116C20.8958 19.946 20.8018 19.9378 20.7298 19.9802L20.7271 19.9747L20.6717 19.9774C20.5389 19.9774 20.2706 19.9269 19.9801 19.8189C19.8251 19.7642 19.666 19.7451 19.518 19.7451H19.5208ZM17.4264 19.7752C17.2784 19.7752 17.1179 19.7929 16.9644 19.849C16.6739 19.9583 16.4041 20.0089 16.2727 20.0089L16.2202 20.0061H16.2174V20.0102C16.1427 19.9692 16.0514 19.9774 15.9961 20.043C15.9338 20.1155 15.9449 20.2234 16.0182 20.2836C16.1123 20.3519 16.187 20.3492 16.2741 20.3519C16.4788 20.3519 16.7638 20.289 17.0834 20.1742C17.1857 20.1332 17.3075 20.1196 17.4264 20.1196C17.5689 20.1196 17.7073 20.1401 17.8096 20.1606L17.93 20.192L17.9715 20.2057C18.0614 20.233 18.1596 20.1865 18.19 20.0963C18.2205 20.0075 18.1721 19.9105 18.0821 19.8804C18.0711 19.8777 17.7778 19.7793 17.4264 19.7779V19.7752ZM19.5568 20.6731C19.1722 20.6731 18.8513 20.792 18.843 20.7961C18.7531 20.8275 18.7046 20.9259 18.7392 21.0147C18.7724 21.1022 18.872 21.1487 18.9605 21.1159L19.0062 21.1022C19.0989 21.0749 19.3244 21.0161 19.5568 21.0161C19.6633 21.0161 19.7712 21.0298 19.868 21.0571C20.1862 21.1528 20.4628 21.2074 20.6662 21.2074C20.7561 21.2047 20.8322 21.2074 20.929 21.1391C21.0023 21.079 21.012 20.9724 20.9539 20.8986C20.8986 20.833 20.8045 20.8248 20.7326 20.8685L20.7298 20.863L20.6662 20.8685C20.5306 20.8685 20.2623 20.8207 19.9676 20.7318C19.8293 20.6908 19.6909 20.6772 19.5568 20.6772V20.6731ZM17.3905 20.7045C17.2577 20.7045 17.1179 20.7182 16.9796 20.7592C16.6836 20.8494 16.4152 20.8958 16.281 20.8958L16.2215 20.8917H16.2174L16.2146 20.8958C16.1427 20.8548 16.0486 20.8617 15.9933 20.9286C15.9338 21.0011 15.9449 21.109 16.021 21.1678C16.115 21.2361 16.1911 21.232 16.281 21.2361C16.4816 21.2361 16.761 21.1815 17.0792 21.0858C17.176 21.0585 17.2839 21.0448 17.3905 21.0448C17.5454 21.0448 17.6976 21.0694 17.8096 21.0954L17.941 21.1309L17.9867 21.1446C18.0766 21.1774 18.1762 21.1309 18.208 21.0421C18.2412 20.9546 18.1942 20.8562 18.1043 20.8234C18.0946 20.8207 17.775 20.7045 17.3905 20.7031V20.7045ZM19.5955 21.586C19.1763 21.586 18.8305 21.7227 18.8181 21.7268C18.7295 21.7623 18.6866 21.8607 18.7212 21.9495C18.7558 22.0384 18.8568 22.0821 18.9453 22.0452L18.9951 22.0315C19.0947 21.996 19.341 21.9277 19.5955 21.929C19.6896 21.929 19.7836 21.9372 19.8722 21.9564C20.1876 22.0315 20.4601 22.0794 20.6579 22.0794C20.7506 22.0766 20.828 22.0794 20.9276 22.011C21.001 21.9509 21.0107 21.8429 20.9525 21.7705C20.8972 21.7022 20.8031 21.694 20.7312 21.7363L20.7284 21.7309L20.7118 21.7363L20.6565 21.7391C20.5182 21.7391 20.2512 21.6981 19.951 21.6256C19.8307 21.5983 19.7103 21.5874 19.5941 21.5874L19.5955 21.586ZM17.3517 21.6161C17.2369 21.6161 17.1166 21.627 16.9921 21.6571C16.6946 21.7254 16.429 21.7691 16.2907 21.7664L16.2215 21.7637H16.2174L16.2146 21.7678C16.1427 21.724 16.0486 21.7322 15.9933 21.7992C15.9338 21.8744 15.9449 21.981 16.021 22.0411C16.1178 22.1094 16.1966 22.1067 16.2907 22.1094C16.4871 22.1094 16.761 22.0616 17.0723 21.9892C17.1636 21.9673 17.2577 21.9577 17.3517 21.9577C17.5219 21.9577 17.6879 21.9878 17.8082 22.0179L17.9521 22.0589L18.0005 22.0766C18.0904 22.1122 18.1914 22.0684 18.2246 21.981C18.2606 21.8921 18.2177 21.7937 18.1278 21.7596C18.1167 21.7568 17.7709 21.6202 17.3531 21.6188L17.3517 21.6161Z" fill="white"/>
<path d="M11.3698 34.2886C11.273 34.3391 11.1651 34.3884 11.024 34.4622C10.6989 34.6316 10.443 34.7246 10.2134 34.9159C9.98511 35.1072 9.82326 35.3833 9.69046 35.8534C9.66971 35.9286 9.70153 36.0065 9.76931 36.0448L9.97681 36.0215C10.4513 35.5773 10.6726 35.5705 10.959 35.5623H11.1388C11.208 35.5623 11.2827 35.5623 11.3601 35.5541C11.457 35.5432 11.5469 35.5131 11.6368 35.4803C11.605 35.5213 11.5773 35.5596 11.5427 35.6088C11.2758 35.9874 11.2038 36.385 11.2052 36.6966C11.2052 37.0492 11.2937 37.2952 11.2979 37.3076L11.4542 37.4223L11.6202 37.3226C11.8139 36.8962 11.9702 36.6174 12.1113 36.4302C12.2496 36.2429 12.3714 36.1432 12.5263 36.0543C12.7103 35.945 12.969 35.9122 13.1626 35.9136H13.1709V38.6961C12.3548 38.4228 10.2106 37.5727 8.17986 35.6539C7.75103 35.248 7.3222 34.7929 6.91688 34.2872L11.3698 34.2886ZM7.25441 31.0933C7.26133 31.2464 7.31943 31.3885 7.43148 31.4719C7.55598 31.5621 7.69985 31.5867 7.84925 31.5867C7.99173 31.5867 8.119 31.5361 8.22966 31.4705C8.34033 31.3981 8.4344 31.3229 8.48558 31.1931C8.49941 31.1576 8.49941 31.1275 8.50495 31.0933H12.399V31.1863C12.399 31.5894 12.3741 32.0883 12.3299 32.501C12.3091 32.7087 12.2828 32.8973 12.2552 33.0394C12.2303 33.1802 12.1901 33.2882 12.186 33.2882C12.0892 33.4303 12.02 33.5547 11.9577 33.6668H6.44793C5.9112 32.9151 5.42011 32.0609 5.0065 31.0906L7.25441 31.0933ZM3.74075 24.6946H5.4215C5.44501 24.7315 5.463 24.7698 5.4879 24.7985C5.46853 24.8067 5.4464 24.8067 5.42565 24.8176C5.18356 24.9338 5.09088 25.1811 5.0978 25.3916V25.4572C5.11716 25.7538 5.31913 25.9629 5.55015 26.0954C5.64421 26.1501 5.74796 26.187 5.85171 26.2239C5.76318 26.3127 5.72721 26.4234 5.71338 26.5054L5.70508 26.5943C5.71061 26.8539 5.88491 27.0494 6.07581 27.1997C6.11455 27.2298 6.15881 27.2502 6.20308 27.2762H3.94133C3.82098 26.4699 3.7532 25.6089 3.73936 24.6932M3.73106 21.5185H7.05383C6.957 21.6551 6.92103 21.815 6.9155 21.9886V22.0064C6.9155 22.1704 6.97913 22.3644 7.03585 22.5393C7.04968 22.5708 7.05798 22.6009 7.06905 22.6295C6.89336 22.6842 6.72598 22.8263 6.64021 23.0587C6.61255 23.1216 6.60148 23.1926 6.60148 23.2692C6.60148 23.5015 6.73566 23.7803 7.05106 24.0072C7.04415 24.0113 7.03446 24.0113 7.02616 24.0167C6.99435 24.0304 6.96391 24.0523 6.93486 24.0741H6.53093C6.51295 24.0263 6.49773 23.9785 6.4673 23.9375C6.37461 23.8104 6.22521 23.727 6.044 23.6969L5.93886 23.6901C5.71476 23.6846 5.4796 23.8268 5.38276 24.0755H3.73106V21.5185ZM13.1695 20.3773C13.1488 20.3363 13.128 20.2912 13.1004 20.2543C13.0381 20.1805 12.962 20.1272 12.8763 20.0862C12.8943 20.0288 12.9039 19.97 12.9039 19.9044C12.9095 19.5258 12.6549 19.1391 12.2123 19.0803L12.0988 19.0721C11.9328 19.0721 11.7765 19.1309 11.67 19.243C11.5593 19.355 11.5012 19.5026 11.4736 19.6666V19.683C11.4542 19.683 11.439 19.6721 11.421 19.6721C11.2453 19.6694 11.0932 19.7541 11.006 19.8661C10.9189 19.9755 10.8774 20.1026 10.8538 20.2215L10.8428 20.3486C10.8428 20.4606 10.8704 20.5768 10.9161 20.6861C10.894 20.6861 10.8691 20.6903 10.8511 20.693C10.8165 20.6971 10.775 20.7162 10.7349 20.734C10.6519 20.652 10.555 20.5837 10.425 20.5591L10.342 20.5509C10.324 20.5509 10.3102 20.5604 10.2908 20.5645C10.3157 20.4729 10.3323 20.3896 10.3323 20.3117C10.3365 20.145 10.2673 20.0028 10.1705 19.9181C10.0736 19.8306 9.96298 19.7924 9.86338 19.7814H9.82741C9.68078 19.7814 9.52308 19.8456 9.37368 19.9727C9.36676 19.9796 9.36261 19.9905 9.3557 19.9974C9.28653 19.9646 9.2063 19.9427 9.12053 19.9427L9.06935 19.9454C8.99741 19.9509 8.93378 19.9823 8.87291 20.0178C8.85355 19.9058 8.81758 19.7992 8.74841 19.7144C8.65158 19.5914 8.49111 19.5163 8.31958 19.519C8.10655 19.5163 7.92256 19.6256 7.81466 19.7814C7.704 19.9372 7.65281 20.1327 7.65281 20.339C7.65281 20.4074 7.67356 20.4648 7.6874 20.5263C7.65973 20.5167 7.63206 20.5099 7.59056 20.5085C7.43148 20.5058 7.28623 20.5727 7.19216 20.6807C7.13683 20.7436 7.10501 20.8174 7.0815 20.8966H3.73383V18.3054H13.1682L13.1695 20.3773ZM23.171 24.081H13.7326V18.3082H23.1697L23.171 24.081ZM9.63236 30.3198C9.63928 30.2788 9.6462 30.2542 9.6545 30.2282C9.696 30.261 9.74026 30.3102 9.78591 30.3335C9.88275 30.384 9.98788 30.4045 10.0861 30.4018H10.1234C10.3171 30.3991 10.4831 30.3034 10.573 30.1749C10.7114 29.9863 10.7473 29.7649 10.8137 29.564C10.876 29.3618 10.9521 29.195 11.1042 29.0966C11.2177 29.0146 11.4224 28.9818 11.6299 28.96C11.8443 29.165 11.9868 29.3467 12.0781 29.5066C12.2801 29.8551 12.2718 30.1312 12.3465 30.4769H9.60746C9.61576 30.4223 9.6213 30.3676 9.63098 30.3225M7.68601 29.2893C7.70676 29.2565 7.71783 29.2264 7.73581 29.1937C7.74135 29.1991 7.74411 29.2073 7.74965 29.2073C7.76901 29.2251 7.79391 29.2347 7.81605 29.2483L7.66388 29.3208C7.66941 29.3112 7.67771 29.3016 7.6874 29.2907M7.24335 22.9507L7.28485 22.9562L7.45085 22.8933L7.47436 22.7225C7.47436 22.7225 7.41903 22.5927 7.3637 22.4355C7.31113 22.2783 7.25856 22.0829 7.26133 22.0118V22.0023C7.2641 21.856 7.2973 21.7562 7.3388 21.707C7.3803 21.6578 7.43148 21.6251 7.5712 21.6223H7.57535L7.71368 21.6497L7.78976 21.7426C7.79945 21.759 7.80913 21.7795 7.81743 21.8C7.85201 21.8902 7.8783 21.9777 7.8949 22.0638C7.9115 22.1458 7.91703 22.2209 7.92256 22.2961L7.92671 22.3617V22.5025L7.98481 22.5844L8.02908 22.6583H8.03461L8.03738 22.661L8.15496 22.6336L8.22413 22.62L8.23381 22.6118C8.26563 22.5804 8.30298 22.5503 8.34448 22.5298C8.37906 22.5093 8.41365 22.4997 8.44685 22.497C8.45376 22.497 8.46068 22.4929 8.46621 22.4929L8.59763 22.523C8.60178 22.523 8.60316 22.5257 8.60731 22.5284L8.70968 22.6377L8.71383 22.6487C8.73458 22.7061 8.7415 22.7826 8.7415 22.8564L8.74426 22.8619L8.73873 22.9849C8.71936 23.1161 8.67371 23.25 8.48973 23.4906L8.5091 23.7188L8.7415 23.7229L8.76916 23.6997L9.01401 23.5794H9.01955C9.08456 23.593 9.12191 23.6067 9.15373 23.6286L9.17725 23.645C9.18831 23.6559 9.19661 23.6764 9.20768 23.6915C9.18831 23.7188 9.17171 23.7325 9.15511 23.7639C9.12191 23.8254 9.10531 23.9101 9.09425 23.999C9.0901 24.0236 9.07765 24.0372 9.07626 24.0645V24.1001C9.07626 24.2067 9.10393 24.2969 9.13713 24.3802L9.14543 24.4008C9.15096 24.4144 9.15511 24.4322 9.16203 24.4459L9.1067 24.4595C9.09701 24.4623 9.08733 24.4595 9.07626 24.465C8.99741 24.4923 8.91026 24.547 8.8577 24.6399C8.85355 24.6468 8.85493 24.6536 8.85216 24.6618C8.82035 24.7247 8.80513 24.7916 8.80098 24.8586C8.80098 24.8722 8.79268 24.8818 8.79268 24.8927C8.79268 24.9064 8.80236 24.9174 8.80375 24.9297L8.81205 25.0117C8.82173 25.0581 8.84386 25.0978 8.86185 25.1401C8.87153 25.162 8.87568 25.1866 8.88675 25.2057C8.93378 25.2877 8.99741 25.3615 9.06935 25.4312L9.08318 25.4449C9.09286 25.4558 9.1067 25.4613 9.11638 25.4695C9.18831 25.5296 9.26301 25.5829 9.33495 25.6253L9.29345 25.6499C9.25471 25.6704 9.2146 25.6936 9.17448 25.7237C9.17033 25.7278 9.16618 25.7291 9.16065 25.7319L9.1565 25.7374C9.13298 25.7565 9.10393 25.7715 9.08318 25.7948C9.04998 25.8303 9.03338 25.8699 9.01401 25.9109V25.915C8.98081 25.9875 8.95868 26.0612 8.95453 26.1337V26.1911C8.9573 26.2758 8.9822 26.3551 9.01955 26.4316C9.02508 26.4453 9.0237 26.4658 9.03061 26.4781L8.98911 26.4672L8.91303 26.4576L8.88121 26.4494H8.86323C8.81343 26.4494 8.76363 26.4631 8.71798 26.4808C8.7 26.4877 8.68478 26.4972 8.66956 26.5082C8.65573 26.515 8.63913 26.5218 8.62806 26.5314L8.61146 26.5546C8.61146 26.5574 8.60731 26.5587 8.60593 26.5615C8.6004 26.5615 8.59763 26.5587 8.5921 26.5574L8.53261 26.5396C8.45653 26.5122 8.37076 26.474 8.28361 26.4303L8.23381 26.4002C8.17571 26.366 8.12038 26.3319 8.07058 26.2963C8.02355 26.2608 7.98205 26.2253 7.94608 26.1897C7.92533 26.1706 7.90458 26.1528 7.89075 26.1351C7.86308 26.1036 7.84095 26.0749 7.82435 26.0449C7.79945 26.0011 7.7787 25.956 7.78008 25.9191L7.91841 25.8986L7.92948 25.8959L7.94331 25.8932C7.97928 25.8863 8.02631 25.8658 8.06505 25.8303L8.08718 25.8207C8.14528 25.7661 8.17433 25.6786 8.17295 25.6048V25.5857C8.17295 25.5611 8.16326 25.5406 8.15911 25.5173V25.4859L8.15635 25.4585C8.15358 25.4394 8.14528 25.4244 8.14251 25.4066C8.13145 25.3684 8.119 25.3314 8.10516 25.2945C8.09133 25.2631 8.0775 25.2331 8.05813 25.203C8.04706 25.1852 8.04015 25.162 8.0277 25.1442L7.99588 25.106L7.98205 25.0923C7.97513 25.0841 7.97236 25.0732 7.96268 25.065C7.94885 25.0513 7.92671 25.0417 7.91011 25.0294L7.84786 24.9748L7.81743 24.9543C7.80775 24.9474 7.79391 24.9488 7.78285 24.9447C7.73443 24.9215 7.67218 24.9119 7.61131 24.9037C7.5795 24.8982 7.55598 24.8818 7.52416 24.8818H7.5048H7.4882L7.47851 24.8846H7.46468C7.36231 24.8709 7.30836 24.8408 7.27101 24.7998L7.23643 24.6946L7.19078 24.5812L7.1811 24.5538L7.17695 24.547L7.16726 24.5238C7.16311 24.5169 7.15343 24.5128 7.1479 24.506L7.14375 24.4992L7.08841 24.4486C7.10225 24.3898 7.123 24.3598 7.18525 24.3215C7.26548 24.2805 7.40105 24.2532 7.53523 24.2313C7.60716 24.2176 7.66388 24.163 7.67356 24.0892C7.68463 24.0167 7.6459 23.9443 7.58088 23.9115L7.31113 23.7789C7.01371 23.5876 6.95146 23.3922 6.9487 23.2705L6.96253 23.1831C7.04553 22.9835 7.14513 22.9507 7.24335 22.9466M9.18001 20.2543C9.18831 20.2352 9.19385 20.2188 9.20491 20.2024C9.19523 20.2188 9.18831 20.2352 9.18001 20.2543ZM13.7962 30.4756L13.7326 30.2884V28.8329H13.7879L13.882 28.8643L13.9096 28.9053V28.9121C13.9096 28.9449 13.864 29.1212 13.864 29.3112C13.864 29.4615 13.8916 29.6392 14.0023 29.7936C14.178 30.0301 14.4477 30.1052 14.6663 30.1039C14.7604 30.1039 14.8461 30.0902 14.925 30.0697L15.1007 30.0451C15.1878 30.0451 15.2501 30.067 15.2847 30.0916H15.4894L15.5503 29.9002L15.5406 29.8319C15.5406 29.7608 15.5682 29.6597 15.6402 29.5545C15.7287 29.4233 15.7993 29.2429 15.7993 29.0392C15.7993 28.8957 15.7605 28.7386 15.6609 28.6019C15.5281 28.4242 15.3372 28.3463 15.1768 28.304C15.0204 28.2602 14.8683 28.2493 14.8448 28.2425L14.8171 28.2247L14.8033 28.1564L14.8074 28.1153L14.8517 28.047L14.8959 28.0156L14.9139 28.0197C14.9319 28.0265 15.0301 28.0839 15.1449 28.1345C15.2625 28.1851 15.4105 28.2356 15.5765 28.2356L15.7868 28.2083C15.986 28.14 16.1257 28.0033 16.2101 27.8584C16.2959 27.7122 16.3346 27.5578 16.3374 27.4238C16.3443 27.2462 16.4135 27.1286 16.4716 27.0904L16.5338 26.899C16.5103 26.828 16.4425 26.7801 16.3678 26.7801H16.3637C16.2973 26.7829 16.17 26.7282 16.0635 26.5888C15.9279 26.4221 15.69 26.2471 15.3801 26.2417C15.3068 26.2417 15.2307 26.2553 15.1546 26.2786C14.9444 26.3469 14.8116 26.5041 14.7203 26.6407C14.6303 26.7747 14.5722 26.9141 14.557 26.9373L14.5211 26.9564L14.4436 26.94L14.4215 26.9305L14.3564 26.8239L14.3703 26.7993C14.3841 26.7774 14.5017 26.6763 14.6054 26.5533C14.7064 26.4248 14.8129 26.2526 14.8157 26.0312C14.8157 25.8262 14.7272 25.6513 14.6137 25.5255C14.5003 25.4025 14.3647 25.3178 14.2361 25.27C14.1462 25.2385 14.0563 25.1962 13.9954 25.1524L13.8986 25.054C13.875 24.983 13.81 24.9337 13.7326 24.931H13.7298V24.6987H23.16C23.124 26.9592 22.7394 28.867 22.1363 30.4797L13.7962 30.4756ZM14.2015 27.1929L14.2153 27.2038L14.2195 27.2079L14.2306 27.2161C14.2444 27.2215 14.3551 27.2954 14.5211 27.2981C14.6317 27.3036 14.7811 27.2434 14.8572 27.1068C14.8987 27.0384 14.9402 26.9346 15.0121 26.8266C15.0813 26.7173 15.1726 26.6298 15.2639 26.6011L15.3829 26.582C15.542 26.5792 15.7149 26.6968 15.7951 26.8006C15.8809 26.9072 15.9791 26.9892 16.0856 27.0466C16.0344 27.1532 16.0026 27.2749 15.9943 27.4102C15.9943 27.4894 15.9666 27.5988 15.9113 27.6876C15.8587 27.7764 15.7868 27.8461 15.6831 27.8789L15.5793 27.8953C15.4894 27.8953 15.3815 27.8625 15.286 27.8215C15.1892 27.7805 15.12 27.7354 15.0536 27.7067L14.8973 27.6739C14.7313 27.6739 14.629 27.7723 14.5709 27.8434C14.5114 27.9172 14.4851 27.9828 14.4809 27.991L14.4713 28.0183C14.4685 28.0265 14.4574 28.0785 14.4574 28.155C14.4574 28.2165 14.4643 28.2971 14.5086 28.3818C14.5501 28.4679 14.6469 28.55 14.7659 28.5732C14.8489 28.591 14.9596 28.5978 15.0841 28.632C15.2086 28.6661 15.322 28.7222 15.3787 28.8014C15.4299 28.8752 15.4507 28.9545 15.4507 29.0392C15.4507 29.1595 15.4036 29.2893 15.3497 29.3672C15.2722 29.4793 15.2307 29.5996 15.2113 29.7171C15.1726 29.713 15.1366 29.7034 15.0965 29.7034C15.0094 29.7034 14.9195 29.7171 14.8282 29.7417L14.6622 29.7622C14.5141 29.7622 14.3675 29.7143 14.279 29.5927C14.2292 29.5244 14.2057 29.4219 14.2057 29.3112C14.2057 29.165 14.2402 29.0351 14.2513 28.9449V28.9039C14.2555 28.7099 14.1102 28.5896 14.0106 28.5486C13.9069 28.5007 13.8211 28.4939 13.81 28.4939H13.7962L13.727 28.4912V28.2397C13.7505 28.2397 13.7685 28.2493 13.7893 28.2493C14.0632 28.2493 14.2873 28.0306 14.2873 27.7614C14.2873 27.5099 14.0936 27.3022 13.8474 27.2749C13.9691 27.3432 14.0521 27.473 14.0521 27.622C14.0521 27.8133 13.9138 27.9678 13.7284 28.0047V25.3766C13.7505 25.3957 13.7699 25.4176 13.792 25.4312C13.8889 25.4996 13.9995 25.5542 14.113 25.5952C14.1877 25.6225 14.2845 25.68 14.3537 25.7565C14.4228 25.8344 14.4671 25.9246 14.4671 26.0339C14.4671 26.1296 14.4118 26.243 14.3288 26.3414C14.2485 26.4426 14.1628 26.5136 14.1074 26.5738C14.041 26.6476 14.0065 26.7418 14.0078 26.8252C14.0217 27.0671 14.1904 27.1806 14.1974 27.1942M11.5898 26.4385C11.6064 26.407 11.6202 26.3729 11.6382 26.3455C11.6202 26.3729 11.6064 26.407 11.5912 26.4385M10.8248 25.3998C10.8898 25.3356 10.9604 25.2768 11.0392 25.2303C10.9604 25.2754 10.8898 25.3356 10.8234 25.3998M11.5303 28.0484C11.4196 28.0265 11.3159 27.9978 11.2204 27.9623C11.1056 27.9172 11.0185 27.8735 10.9576 27.8311C10.9576 27.8284 10.9534 27.8256 10.9493 27.8229C10.9244 27.8051 10.905 27.786 10.887 27.7682L10.8068 27.6124L10.7625 27.5332L10.7432 27.4867L10.7363 27.484L10.7321 27.4785L10.6021 27.4621L10.5772 27.458C10.5135 27.4826 10.425 27.4963 10.3379 27.499L10.313 27.5017C10.2341 27.5017 10.1608 27.4881 10.1055 27.4676L10.0432 27.4129L10.0252 27.3938L9.99756 27.3336V27.3295L10.0806 27.1601L10.147 27.0917L10.1691 27.0753L10.1732 27.0726L10.1788 27.0589C10.2147 27.0316 10.2424 26.9933 10.2479 26.9441C10.2479 26.9346 10.2396 26.9264 10.2383 26.9168L10.2424 26.9086L10.2341 26.9004C10.223 26.8403 10.1885 26.7883 10.1276 26.7692C9.97266 26.7186 9.84263 26.6667 9.73196 26.6148C9.7209 26.6079 9.70983 26.6011 9.69738 26.597C9.59778 26.5464 9.5134 26.4986 9.45391 26.4508C9.32941 26.3483 9.29483 26.2731 9.29068 26.1952L9.28791 26.1815V26.1733C9.29068 26.0872 9.31973 26.0435 9.37091 25.9984L9.54383 25.9164L9.55766 25.9109L9.7126 25.8617L9.85093 25.818C9.9201 25.7961 9.9699 25.7305 9.9699 25.654C9.9699 25.5802 9.92148 25.5146 9.84955 25.4927L9.80528 25.4763C9.74165 25.4545 9.68493 25.4285 9.6296 25.4011C9.5715 25.3738 9.5134 25.3397 9.44976 25.3014C9.4138 25.2741 9.37506 25.2522 9.34463 25.2262C9.31696 25.203 9.29621 25.1797 9.27546 25.1579C9.24365 25.1265 9.22013 25.0964 9.19938 25.0677C9.17725 25.0349 9.16065 25.0021 9.15096 24.972C9.14681 24.9584 9.14128 24.9419 9.1399 24.931L9.13436 24.8818L9.16203 24.8039L9.28653 24.7766L9.31696 24.7793L9.4304 24.7902L9.49956 24.7629L9.61023 24.7178V24.6331L9.60746 24.5238L9.59363 24.5046C9.53276 24.4226 9.49126 24.3502 9.4636 24.286C9.44561 24.245 9.4387 24.204 9.43178 24.163C9.42625 24.1384 9.41518 24.1083 9.41518 24.0878V24.0851C9.4221 24.0058 9.43731 23.9579 9.45668 23.921C9.47743 23.88 9.50371 23.8473 9.53691 23.8172H9.54383C9.54798 23.8117 9.5549 23.809 9.55766 23.8035C9.58948 23.7734 9.64343 23.7461 9.70983 23.7311C9.7292 23.7256 9.7458 23.7174 9.76931 23.7174L9.80528 23.7202C9.86061 23.7229 9.91318 23.7338 9.94638 23.7475L9.95606 23.753L10.0142 23.8131L10.0225 23.8404C10.0308 23.8678 10.0363 23.9046 10.0404 23.9552C10.0432 23.9648 10.0446 23.973 10.0446 23.9853C10.0446 24.0482 10.0349 24.1302 10.0169 24.2258L10.0128 24.2395V24.2463C9.99895 24.3188 10.0266 24.3939 10.0958 24.4308L10.1622 24.4213L10.2867 24.4172L10.3005 24.4008H10.3047L10.3462 24.3598L10.36 24.3461L10.4292 24.2737L10.4942 24.2395L10.5938 24.2805L10.6104 24.3024C10.627 24.3201 10.6436 24.3434 10.6616 24.3748L10.6754 24.4021C10.7072 24.4664 10.7307 24.5388 10.7473 24.614C10.7612 24.6727 10.7722 24.7233 10.7778 24.7711L10.7861 24.8258C10.793 24.9023 10.7999 24.9802 10.7999 25.0527C10.7999 25.1032 10.7957 25.1456 10.793 25.1893C10.793 25.2167 10.7902 25.244 10.7888 25.2686C10.7888 25.2754 10.7888 25.285 10.7861 25.2932C10.7778 25.3574 10.7681 25.4258 10.7584 25.5146C10.7542 25.5378 10.7639 25.5556 10.7681 25.5775C10.7708 25.5884 10.7681 25.6021 10.775 25.6116C10.7861 25.6335 10.8068 25.6499 10.8303 25.6663C10.8359 25.6718 10.8386 25.6799 10.8483 25.6854C10.8511 25.6854 10.8511 25.6882 10.8525 25.6882L11.0503 25.6554H11.053C11.1084 25.6007 11.1526 25.5652 11.1914 25.5392C11.2011 25.5351 11.2052 25.5283 11.2149 25.5255C11.2522 25.5023 11.2841 25.49 11.3076 25.4927L11.3311 25.4955C11.3408 25.4955 11.3477 25.4996 11.356 25.5023C11.3795 25.5091 11.4003 25.5159 11.4113 25.5228L11.4252 25.531C11.4321 25.5378 11.439 25.5447 11.4418 25.5501L11.4501 25.5638C11.4584 25.5775 11.4639 25.6089 11.468 25.654C11.468 25.6649 11.4708 25.6718 11.4722 25.6854C11.4722 25.7674 11.4556 25.874 11.4418 25.9916C11.4279 26.0667 11.4141 26.1392 11.4141 26.2184C11.4141 26.2936 11.4279 26.3715 11.4514 26.448C11.4653 26.489 11.4957 26.53 11.5165 26.571C11.5372 26.6093 11.5469 26.6462 11.5746 26.6804L11.5773 26.6831L11.5842 26.694L11.6811 26.7268L11.7364 26.7501H11.7433L11.854 26.6599L11.872 26.6462V26.6435L11.8817 26.6257C11.9052 26.5751 11.9259 26.5396 11.9467 26.5123C11.9909 26.4576 12.0297 26.4439 12.0573 26.4412C12.103 26.4384 12.1998 26.4877 12.2842 26.6189C12.3672 26.7514 12.4295 26.9646 12.4364 27.2475V27.3678L12.4322 27.5455V27.6138L12.4239 27.7067C12.4101 27.8571 12.3893 27.9664 12.3658 28.0566C12.269 28.0812 12.1445 28.0976 12.002 28.0976C11.9577 28.0976 11.9107 28.0894 11.8664 28.0867C11.7558 28.0812 11.6451 28.073 11.5344 28.0498M10.894 28.1946C10.811 28.1509 10.7459 28.1058 10.6906 28.058C10.7459 28.1058 10.811 28.1509 10.8926 28.1946M9.35293 26.5956C9.31143 26.5779 9.26993 26.5601 9.22843 26.5451C9.26993 26.5587 9.31143 26.5765 9.35293 26.5943M9.44008 25.6923C9.40273 25.6745 9.36676 25.6581 9.33218 25.6376C9.36676 25.6581 9.40135 25.6745 9.44008 25.6923ZM9.26716 23.3143C9.31835 23.3375 9.364 23.3689 9.4055 23.4058C9.364 23.3689 9.31835 23.3375 9.26716 23.3129M12.9136 26.9045C12.8998 26.9359 12.886 26.9687 12.8721 26.9947V26.9988L12.8168 27.0849L12.7891 27.1191H12.7781C12.7642 26.8553 12.6951 26.6188 12.5844 26.4412V26.4385C12.4599 26.2389 12.2801 26.1023 12.067 26.0995H12.0629C11.955 26.0995 11.8554 26.1405 11.7724 26.2089C11.7724 26.1378 11.7821 26.0585 11.7945 25.9765C11.8111 25.874 11.8222 25.7811 11.8222 25.7032V25.6895V25.6786C11.8222 25.6239 11.8139 25.5624 11.7973 25.5037L11.7793 25.4599C11.7655 25.4299 11.7599 25.3984 11.7406 25.367L11.717 25.3465C11.7115 25.3383 11.7101 25.3274 11.7032 25.3192C11.6852 25.3 11.6617 25.2918 11.6437 25.2782C11.623 25.2604 11.6022 25.2426 11.5801 25.2303C11.5386 25.2071 11.4929 25.1893 11.4445 25.1757C11.4362 25.1729 11.4307 25.1675 11.421 25.1675H11.4141L11.4003 25.1606L11.3103 25.151C11.2522 25.151 11.1997 25.1784 11.1443 25.1989V25.1961C11.1471 25.1551 11.1513 25.1223 11.1513 25.0786C11.1513 25.0048 11.1471 24.9228 11.1374 24.8258C11.1374 24.8203 11.1374 24.808 11.1347 24.8012L11.1208 24.6973C11.1125 24.6495 11.1015 24.6016 11.0904 24.5511C11.0821 24.5183 11.0793 24.4828 11.0696 24.45C11.06 24.409 11.042 24.3762 11.0281 24.3406C11.0281 24.3352 11.0254 24.327 11.0226 24.3201L11.0171 24.3133C11.0032 24.286 10.9922 24.2586 10.9756 24.2313L11.0309 24.2354L11.1098 24.2436C11.1928 24.2572 11.273 24.2122 11.3034 24.1343C11.3311 24.0591 11.2993 23.9743 11.2315 23.932H11.2287V23.9279L11.2149 23.921C11.154 23.88 11.0904 23.8309 11.0295 23.7789C10.977 23.7338 10.9272 23.686 10.8774 23.6313L10.8359 23.5808C10.7874 23.522 10.7432 23.4578 10.7017 23.3867L10.6519 23.3047C10.6007 23.2036 10.5633 23.0942 10.5481 22.9767L10.5454 22.9589L10.5412 22.8906C10.5412 22.8633 10.544 22.8469 10.5467 22.8318V22.8223L10.5606 22.7922L10.5882 22.7717L10.6546 22.7539C10.692 22.7539 10.7446 22.7649 10.8027 22.7812L10.8442 22.7908C10.9064 22.8113 10.9742 22.8373 11.0475 22.8728H11.0517L11.0613 22.8797C11.1443 22.9166 11.2439 22.8797 11.2854 22.7977C11.3269 22.7157 11.2937 22.6172 11.2121 22.5735L11.2024 22.5681V22.5653H11.1983C11.024 22.4833 10.9078 22.4013 10.8386 22.3261C10.7695 22.2496 10.7418 22.1827 10.7446 22.1348C10.7446 22.0802 10.7833 22.0118 10.8912 21.9367C10.9189 21.9203 10.9507 21.9052 10.988 21.8902C11.024 21.8765 11.0738 21.871 11.1236 21.8669H11.1347C11.2149 21.8642 11.3007 21.8847 11.3781 21.9175C11.403 21.9271 11.4265 21.9367 11.4528 21.9517C11.4846 21.9736 11.5123 21.9982 11.5317 22.0296C11.5317 22.0337 11.5358 22.0364 11.5372 22.0392C11.5593 22.0802 11.5732 22.128 11.5746 22.2004V22.2073C11.5746 22.2619 11.5663 22.3275 11.5427 22.4082C11.54 22.4191 11.5455 22.43 11.5427 22.4423C11.5427 22.4669 11.5386 22.4929 11.5483 22.5175C11.5524 22.523 11.5593 22.5257 11.5621 22.5311C11.5759 22.5585 11.5925 22.5858 11.6174 22.5995H11.623V22.6022L11.7793 22.579L11.8346 22.5722C11.8872 22.5175 11.9259 22.4901 11.9633 22.4628C11.9854 22.4492 11.9992 22.4396 12.0158 22.4327C12.0366 22.4245 12.0573 22.415 12.067 22.415L12.139 22.4833C12.1473 22.497 12.1556 22.5107 12.1625 22.5325L12.1735 22.564C12.1832 22.5954 12.1915 22.6323 12.1984 22.676C12.2012 22.7006 12.204 22.7239 12.204 22.7485L12.2067 22.7922L12.2012 22.8605C12.1984 22.9043 12.1901 22.9466 12.1818 22.9903C12.168 23.056 12.1542 23.1216 12.1307 23.1817C12.1307 23.1872 12.1279 23.1926 12.1251 23.1995C12.0975 23.265 12.0698 23.3279 12.0394 23.3771L11.9564 23.5069L11.9315 23.5398L11.9259 23.548V23.6614L11.9218 23.7652H11.9259C11.9813 23.8267 12.067 23.8472 12.139 23.8063L12.1459 23.8035C12.2081 23.768 12.2731 23.7434 12.3395 23.7243L12.3575 23.7174C12.4267 23.6983 12.4931 23.6901 12.5512 23.6901H12.554L12.702 23.7174C12.7061 23.7174 12.7075 23.7202 12.7117 23.7215L12.7808 23.7953C12.7905 23.8117 12.7988 23.8227 12.8085 23.8459L12.8721 24.1302C12.8777 24.1739 12.8818 24.1985 12.886 24.2149L12.8887 24.301C12.8887 24.3775 12.8777 24.4609 12.8113 24.6235C12.749 24.7711 12.684 24.8914 12.6729 25.0745C12.6702 25.162 12.7366 25.2358 12.8251 25.2494L12.8223 25.2522C12.8292 25.2577 13.0201 25.2891 13.1682 25.7469V26.0859C13.1336 26.2458 13.0893 26.418 13.034 26.5888C12.9925 26.7159 12.9537 26.8184 12.9205 26.8963M15.5171 36.8593L13.7326 35.7455V31.3653L14.5764 33.8526C14.5985 33.921 14.6649 33.9688 14.7382 33.9688H16.5504L15.0882 35.0211L15.0232 35.2084L15.5171 36.8593ZM11.1125 21.0196L11.237 21.0265C11.3159 21.0429 11.3975 20.9991 11.4279 20.9212C11.4597 20.8461 11.4307 20.7572 11.3588 20.7162C11.2702 20.6684 11.1845 20.488 11.1886 20.3513L11.1955 20.2885C11.2094 20.2037 11.2426 20.1245 11.2785 20.0807C11.3173 20.0397 11.3449 20.0179 11.4224 20.0151L11.4639 20.0288L11.5441 20.1518L11.5483 20.1573C11.6036 20.2338 11.7115 20.2488 11.7876 20.1942C11.8637 20.1395 11.8817 20.0356 11.8291 19.9591L11.8042 19.8443L11.818 19.7295C11.836 19.6065 11.8761 19.5286 11.919 19.4835C11.9605 19.4425 12.0089 19.4206 12.0988 19.4179L12.168 19.4234C12.417 19.4589 12.5553 19.6612 12.5595 19.9099L12.5401 20.0124L12.482 20.0534C12.4129 20.0903 12.3741 20.1709 12.3921 20.2475C12.4101 20.324 12.4806 20.3786 12.5609 20.3786H12.702L12.8292 20.4743L12.9039 20.6629L12.8113 20.8037C12.7504 20.8529 12.6549 20.8857 12.5429 20.8939L12.471 20.8966H12.4488C12.3561 20.8966 12.2787 20.9677 12.2745 21.0606C12.2704 21.1522 12.3409 21.2315 12.435 21.2383H12.4488L12.5069 21.241C12.518 21.241 12.5277 21.2369 12.5387 21.2356L12.702 21.2274L12.8043 21.2465C12.8901 21.2738 12.9358 21.3148 12.9745 21.3832C13.0132 21.4515 13.0354 21.5444 13.0395 21.6428L13.0437 21.8095C13.0437 21.9421 13.0298 22.0884 12.9911 22.1963C12.9496 22.3057 12.8998 22.3603 12.803 22.3918C12.7255 22.4164 12.6743 22.4874 12.6812 22.5694C12.6868 22.6514 12.7504 22.7143 12.8306 22.7252C12.9593 22.7457 12.9883 22.7703 13.0188 22.8127C13.0506 22.8591 13.0782 22.9671 13.0879 23.1407C13.0976 23.25 13.1018 23.3812 13.1018 23.5097V23.66L13.0603 23.5972C13.0464 23.578 13.0437 23.5561 13.0284 23.537C13.0243 23.5343 13.0188 23.5343 13.0146 23.5302C12.9662 23.4782 12.9095 23.4345 12.8514 23.4113L12.8265 23.4031C12.8071 23.3949 12.7891 23.3922 12.7711 23.3867C12.6881 23.3621 12.6051 23.3498 12.5332 23.3484L12.4308 23.3566L12.4336 23.3498L12.4585 23.2924C12.482 23.2268 12.5 23.1516 12.5138 23.0737C12.5194 23.0518 12.5277 23.0327 12.5318 23.0109C12.5346 23.0109 12.5318 23.0068 12.5346 23.0054V23.0013C12.5429 22.9562 12.5443 22.9111 12.5484 22.8646C12.5484 22.8469 12.5553 22.8318 12.5553 22.8141V22.7963V22.7881L12.5526 22.7553L12.5457 22.6555C12.5457 22.646 12.5415 22.6364 12.5387 22.6282C12.5318 22.579 12.5221 22.5325 12.5111 22.4915L12.4834 22.4095C12.4737 22.3863 12.4696 22.3617 12.4585 22.3412C12.4488 22.3193 12.4336 22.3002 12.4198 22.2783L12.4129 22.2674L12.4101 22.2619C12.3783 22.2168 12.334 22.1758 12.2856 22.143L12.2469 22.1212C12.1943 22.0938 12.139 22.0747 12.0767 22.0747H12.0712L12.0643 22.0719C12.0062 22.0747 11.9619 22.0924 11.9176 22.1102C11.9149 22.0829 11.9093 22.0556 11.9038 22.0282C11.9038 22.0241 11.901 22.02 11.8996 22.0173C11.8775 21.9257 11.8305 21.8341 11.753 21.7535L11.7253 21.7262C11.7074 21.7125 11.6935 21.6934 11.67 21.6784L11.6506 21.6688L11.6313 21.6551C11.5981 21.6333 11.5621 21.6278 11.5303 21.6141C11.4003 21.5526 11.2716 21.5185 11.1596 21.5185C11.1042 21.5185 11.053 21.5253 11.0074 21.5321V21.5253C11.0074 21.4228 10.9866 21.2957 10.9521 21.1645C10.941 21.1207 10.9272 21.0798 10.9106 21.0374C10.9548 21.0333 11.0323 21.0237 11.1084 21.0265M9.83018 20.7504L9.84401 20.9444L10.0377 20.9964C10.1387 20.9554 10.277 20.898 10.3379 20.9007L10.3545 20.9035C10.4333 20.9171 10.5011 20.9773 10.5592 21.088C10.5841 21.1385 10.6007 21.1891 10.6145 21.2383C10.638 21.334 10.656 21.4337 10.656 21.5362C10.656 21.5909 10.6491 21.6428 10.6422 21.6934C10.6394 21.6934 10.6367 21.6961 10.6353 21.6989C10.6131 21.7153 10.5938 21.733 10.573 21.7535C10.5454 21.7781 10.5205 21.8082 10.4997 21.8355C10.4859 21.8519 10.479 21.8683 10.4693 21.8847C10.4527 21.9148 10.4361 21.9435 10.4236 21.9749C10.4098 22.0214 10.3987 22.0665 10.396 22.1171L10.3932 22.1307V22.1417C10.3932 22.2428 10.4347 22.3384 10.49 22.4286L10.4762 22.4382C10.4679 22.441 10.4624 22.4464 10.4554 22.4492C10.4112 22.4656 10.3697 22.4902 10.3337 22.5243C10.3282 22.5284 10.3199 22.5298 10.3157 22.5339C10.306 22.5448 10.3019 22.5612 10.295 22.5694C10.2784 22.5913 10.2576 22.6077 10.2452 22.6295C10.2355 22.6487 10.2313 22.6706 10.2244 22.6883L10.2175 22.7061C10.1954 22.7703 10.1829 22.8346 10.1829 22.8974C10.1829 22.9207 10.1912 22.9412 10.194 22.9658L10.1968 23.0095C10.2009 23.0341 10.2106 23.0559 10.2147 23.0778C10.2258 23.1462 10.2396 23.2077 10.259 23.2664C10.2728 23.3033 10.2839 23.3348 10.2977 23.3648C10.3088 23.3894 10.3199 23.425 10.3296 23.4468C10.3365 23.4564 10.3434 23.4632 10.3489 23.4742C10.3849 23.5466 10.425 23.6136 10.4679 23.6751L10.4956 23.716C10.5564 23.798 10.6201 23.8664 10.6823 23.9306C10.6754 23.9306 10.6685 23.9347 10.6616 23.9375C10.6201 23.9211 10.5716 23.9129 10.5232 23.9101C10.5135 23.9101 10.5039 23.9006 10.4956 23.9006H10.4873L10.4568 23.9033C10.4292 23.9033 10.4112 23.917 10.3877 23.9252C10.3821 23.8486 10.3711 23.7694 10.3365 23.6887C10.3088 23.6204 10.2493 23.5548 10.1774 23.5015C10.1677 23.4947 10.1636 23.481 10.1539 23.4742C10.14 23.4646 10.1262 23.4646 10.1124 23.4577C10.0985 23.4536 10.0902 23.4441 10.0778 23.4373C10.0598 23.4304 10.046 23.4331 10.028 23.4277C9.95053 23.4031 9.87583 23.3867 9.80666 23.384C9.7956 23.384 9.78591 23.3785 9.779 23.3785L9.76516 23.3812H9.7375C9.68908 23.3812 9.64066 23.399 9.59225 23.414C9.57841 23.3908 9.57288 23.3635 9.55075 23.3457L9.53138 23.3361C9.41518 23.276 9.19523 23.0628 9.09148 22.9535L9.09425 22.9207L9.09148 22.8742V22.8687V22.8605L9.0818 22.7293L9.06243 22.6295L9.0486 22.5558C9.0486 22.5503 9.04306 22.5462 9.04168 22.5421C9.04168 22.5366 9.04168 22.5325 9.03753 22.5257C9.02646 22.4984 9.00156 22.4683 8.9822 22.4382C8.96836 22.4109 8.95453 22.3835 8.93516 22.3603C8.91856 22.3412 8.89366 22.3289 8.87568 22.3125L8.88121 22.2988C8.88813 22.2879 8.89781 22.277 8.90888 22.2688C8.91165 22.266 8.9158 22.2633 8.92271 22.2619C8.95038 22.2455 8.99603 22.2305 9.0652 22.2209H9.07488L9.16756 22.2127C9.23673 22.2059 9.31696 22.1991 9.40273 22.1881L9.43593 22.1854H9.447L9.5466 22.0938L9.5881 22.0583V22.0556L9.51893 21.8752L9.43593 21.8095C9.35293 21.7467 9.23258 21.6401 9.13713 21.5226C9.12606 21.5089 9.12053 21.4952 9.10946 21.4816C9.03615 21.3804 8.98496 21.2765 8.98496 21.2027L8.98773 21.1795C8.99188 21.1494 8.99741 21.1344 9.00156 21.1153L9.01263 21.0743L9.0237 21.0565L9.032 21.0429L9.06935 21.0333C9.11085 21.0333 9.19385 21.0606 9.26716 21.0921C9.27131 21.0921 9.27408 21.0921 9.27823 21.0948L9.28653 21.0989L9.40273 21.077L9.4719 21.0661V21.0634L9.51616 20.8802V20.8761C9.47466 20.7668 9.45806 20.6711 9.45668 20.5946V20.5782C9.45668 20.5058 9.47328 20.447 9.49541 20.3951L9.5134 20.3582C9.54106 20.3103 9.56873 20.2693 9.60608 20.2352C9.68631 20.16 9.79975 20.1258 9.82741 20.1299H9.83018L9.93808 20.1777C9.96575 20.2051 9.98788 20.2379 9.99065 20.3212C9.99065 20.406 9.95745 20.5495 9.83848 20.7518M7.40935 21.1508L7.40381 21.0825C7.40381 21.0087 7.42733 20.9513 7.45915 20.9158L7.5878 20.8611C7.60163 20.8665 7.6791 20.9021 7.74688 20.939C7.82711 20.9827 7.89213 21.0237 7.93363 21.0442L8.13836 21.0087L8.16188 20.8037C8.0609 20.6328 8.00418 20.4948 8.00418 20.3486C8.00418 20.1982 8.04291 20.0684 8.10101 19.9892C8.1605 19.9072 8.22275 19.873 8.32511 19.8702C8.40535 19.8702 8.44685 19.8948 8.48558 19.9386C8.52431 19.9837 8.55475 20.0657 8.55475 20.1846L8.54091 20.3212L8.62391 20.4948L8.81758 20.4852C8.9241 20.406 8.99741 20.3527 9.04168 20.3253L9.10393 20.2953H9.12745L9.16203 20.309C9.13436 20.3814 9.11223 20.4648 9.11223 20.5604V20.5877C9.11223 20.5959 9.11638 20.6055 9.11776 20.6151C9.11776 20.6424 9.12191 20.6698 9.12468 20.6998C9.1067 20.6998 9.09148 20.6916 9.0735 20.6916H9.07073C9.02508 20.6916 8.9739 20.6985 8.92271 20.719C8.90335 20.7258 8.88951 20.7408 8.87015 20.7518C8.84248 20.7654 8.81205 20.7791 8.78715 20.8037C8.78715 20.8037 8.78715 20.8064 8.78438 20.8078C8.78438 20.8119 8.78023 20.8119 8.77746 20.8133C8.74426 20.8502 8.72213 20.8953 8.7 20.939C8.7 20.9458 8.69308 20.9527 8.69031 20.9568C8.68616 20.965 8.68478 20.9759 8.68201 20.9868C8.67095 21.0196 8.66265 21.0524 8.65711 21.0743L8.6502 21.1194L8.64743 21.1385L8.64466 21.1659L8.63913 21.2068C8.64466 21.3804 8.71798 21.5253 8.80928 21.6538C8.86738 21.7385 8.93378 21.815 8.99603 21.8806L9.00433 21.8888C8.99465 21.8888 8.98496 21.8929 8.97666 21.8943C8.949 21.897 8.92686 21.8984 8.90058 21.9052L8.86323 21.9189C8.82173 21.9326 8.78023 21.9489 8.73873 21.9735L8.7249 21.9804C8.72075 21.9804 8.71798 21.9886 8.71106 21.9941C8.68893 22.0077 8.66403 22.0214 8.6419 22.0433C8.62391 22.0624 8.61146 22.0897 8.59625 22.1116L8.57273 22.1471C8.5672 22.1567 8.5589 22.1635 8.55475 22.1744C8.52708 22.1703 8.50356 22.1553 8.4759 22.1553H8.47175H8.46898C8.39566 22.1553 8.33065 22.1717 8.27255 22.1922C8.2684 22.1485 8.25871 22.102 8.2518 22.0556C8.2518 22.0419 8.24903 22.031 8.24626 22.0173C8.24073 21.99 8.23935 21.9667 8.23243 21.9408C8.20753 21.8615 8.18125 21.774 8.14943 21.6879C8.14113 21.6715 8.13975 21.6565 8.13283 21.6401V21.636C8.12315 21.6155 8.10793 21.6005 8.09825 21.5813C8.08856 21.5649 8.08441 21.5485 8.07335 21.5321C8.0692 21.528 8.05951 21.5239 8.05675 21.5185C8.01525 21.4597 7.96268 21.4091 7.8949 21.3681C7.89075 21.3681 7.8866 21.3613 7.88106 21.3585C7.78838 21.3093 7.6957 21.2957 7.61131 21.2902H7.57535C7.54491 21.2902 7.52001 21.2957 7.49235 21.2984C7.45085 21.2506 7.42318 21.2123 7.41211 21.1508M6.05645 26.5738L6.10763 26.4644C6.13945 26.433 6.2183 26.3865 6.3843 26.3469C6.46315 26.3278 6.51848 26.254 6.51571 26.1733C6.51156 26.0913 6.4507 26.023 6.36908 26.0093C6.14775 25.9793 5.90705 25.9095 5.73275 25.807C5.55291 25.7004 5.46023 25.5843 5.45055 25.4422V25.3984C5.45608 25.2522 5.48375 25.1866 5.58888 25.1292C5.6124 25.1128 5.72721 25.0964 5.9278 25.08C6.0025 25.0732 6.06336 25.0212 6.07996 24.9502L6.00665 24.7657C5.89598 24.6973 5.80883 24.6427 5.75765 24.588C5.70923 24.5292 5.68156 24.4814 5.68018 24.3639L5.6871 24.2682C5.71476 24.1042 5.82543 24.044 5.94993 24.0386L5.99143 24.0427C6.11316 24.0645 6.16296 24.1028 6.19616 24.1466C6.22936 24.1903 6.2515 24.26 6.2515 24.3652C6.2515 24.4253 6.2432 24.495 6.22936 24.5702C6.21553 24.6467 6.25703 24.7233 6.3262 24.7547L6.53093 24.7137L6.71353 24.6413L6.76471 24.6481L6.82005 24.6659L6.8823 24.726C6.90581 24.7834 6.92933 24.8559 6.9487 24.9215L6.97636 25.1087C6.97636 25.2098 6.95423 25.2959 6.86846 25.3875L6.85878 25.6143C6.91411 25.6827 7.01095 25.6964 7.08565 25.6499L7.11608 25.6226C7.12023 25.6198 7.12161 25.6157 7.12438 25.6116L7.1562 25.5816C7.20461 25.516 7.2641 25.423 7.33603 25.3438C7.4052 25.2645 7.47436 25.2276 7.49511 25.2303L7.50618 25.2276C7.55321 25.2276 7.58918 25.2372 7.61685 25.2481C7.62238 25.2481 7.63068 25.2481 7.63345 25.2508C7.64313 25.2536 7.64728 25.2604 7.65558 25.2645L7.72751 25.326C7.76625 25.3725 7.79945 25.4353 7.81743 25.5173V25.5693C7.80083 25.5693 7.78976 25.5761 7.75933 25.5802L7.68601 25.5911L7.64451 25.6143C7.63068 25.6212 7.61961 25.6198 7.60301 25.628C7.59333 25.6321 7.58918 25.6444 7.5795 25.6499L7.51725 25.6841C7.50618 25.6977 7.51033 25.7155 7.50065 25.7292C7.455 25.7907 7.4218 25.8604 7.42595 25.9301C7.42595 25.9642 7.44393 25.9943 7.45361 26.0257C7.46191 26.0667 7.46745 26.1077 7.48543 26.1446C7.49373 26.1651 7.5048 26.1856 7.51586 26.2061C7.58503 26.3346 7.6874 26.4453 7.80083 26.5341C7.82158 26.5505 7.8451 26.5615 7.86585 26.5751C7.92671 26.6189 7.99035 26.6571 8.05398 26.6954C8.07888 26.7091 8.10378 26.7268 8.13283 26.7418C8.1605 26.7555 8.18401 26.7747 8.21306 26.7883C8.285 26.8211 8.34725 26.843 8.40673 26.8621L8.41641 26.8662C8.42195 26.8662 8.43025 26.8703 8.43578 26.8731L8.48558 26.8908L8.48973 26.9427C8.4925 26.9701 8.49941 26.9974 8.50356 27.0275C8.44823 27.007 8.38598 26.9865 8.32373 26.9728C8.30298 26.9674 8.28223 26.9687 8.2601 26.9646C8.11761 26.9346 7.97375 26.91 7.8451 26.91H7.83126L7.79945 26.9072C7.77455 26.9072 7.74965 26.9168 7.72475 26.9209C7.69708 26.9236 7.66941 26.9264 7.64451 26.9346C7.6127 26.94 7.58088 26.9537 7.55045 26.9687C7.53661 26.9742 7.51863 26.9742 7.50341 26.9851C7.49511 26.9892 7.49235 26.9988 7.48543 27.0015C7.41903 27.0494 7.36093 27.1013 7.32496 27.1601C7.289 27.2202 7.27378 27.2831 7.26963 27.3446C7.26963 27.3514 7.2641 27.3582 7.26548 27.3664L7.26825 27.3774C7.11885 27.2954 6.96391 27.2243 6.80068 27.186C6.64851 27.1477 6.44101 27.0535 6.28885 26.9359C6.13253 26.8198 6.04815 26.6817 6.05368 26.6025L6.05645 26.5738ZM6.72875 28.6538L6.55445 28.7126C6.48528 28.7973 6.40505 28.8944 6.32343 28.9627C6.24043 29.0337 6.16158 29.0693 6.08826 29.0693L5.9278 29.0187C5.86831 28.9777 5.85171 28.9436 5.84756 28.8684C5.83926 28.7099 6.0274 28.4311 6.28331 28.3354L6.39121 28.196L6.3179 28.0361C6.23213 27.976 6.22106 27.9322 6.22106 27.9131L6.27363 27.8366C6.31928 27.8051 6.4009 27.7751 6.5171 27.7764L6.58903 27.7792C6.63053 27.7887 6.90166 27.8475 7.17833 27.8475C7.2724 27.8448 7.36785 27.8393 7.45915 27.816H7.46191C7.4716 27.8133 7.47575 27.8079 7.48681 27.8051C7.51725 27.7969 7.54491 27.786 7.56981 27.7737C7.61131 27.7505 7.64451 27.73 7.65281 27.7218L7.65696 27.7163L7.67356 27.7053L7.70953 27.6234L7.72751 27.5892V27.5824L7.67495 27.4593L7.61961 27.3637L7.64175 27.3227C7.65005 27.3131 7.66526 27.2995 7.68325 27.2858L7.78008 27.2543L7.83541 27.2516C7.98758 27.2544 8.14251 27.2762 8.28361 27.3145C8.28776 27.3145 8.29053 27.3172 8.29468 27.3186C8.43993 27.3596 8.57135 27.4143 8.6751 27.4689L8.67925 27.4717L8.86876 27.4511L8.8743 27.4375L8.92548 27.2708L8.92271 27.2639C8.90611 27.212 8.89505 27.1642 8.88121 27.1163L8.86185 27.0261C8.85078 26.966 8.84248 26.9113 8.84248 26.8703L8.85355 26.802L8.8577 26.7965H8.866L8.92133 26.802C9.0735 26.8362 9.2395 26.8977 9.37506 26.9742C9.42625 27.0015 9.46636 27.0343 9.50371 27.0699C9.52861 27.089 9.55905 27.1081 9.57703 27.1314C9.6213 27.1833 9.6462 27.2338 9.66003 27.2844L9.6711 27.3035L9.66833 27.3309V27.335L9.68216 27.417L9.61715 27.4129H9.613H9.61023C9.49541 27.4129 9.38613 27.432 9.28515 27.4607C9.25333 27.4703 9.22981 27.4881 9.198 27.5017C9.13713 27.5236 9.0735 27.5427 9.01816 27.5796C9.01263 27.5796 9.00986 27.5878 9.00433 27.5906L8.99326 27.5974C8.9656 27.6165 8.94761 27.6452 8.9241 27.6685C8.87845 27.7095 8.8328 27.745 8.7996 27.7942C8.77193 27.8352 8.7664 27.883 8.75118 27.9309C8.73458 27.9719 8.70968 28.0088 8.70415 28.0566V28.0921C8.70415 28.1017 8.7083 28.1085 8.70968 28.1194C8.71383 28.1714 8.72628 28.222 8.74841 28.2698C8.75533 28.2862 8.75671 28.304 8.76501 28.3176C8.67095 28.3176 8.57688 28.3081 8.48835 28.2971C8.42886 28.2875 8.368 28.2794 8.31958 28.2698L8.26701 28.2657C8.24626 28.263 8.2186 28.2575 8.19785 28.2561L8.13145 28.2534L8.11761 28.2507L8.11346 28.2534H8.10931C8.04568 28.2534 7.98481 28.2602 7.92948 28.2752C7.91841 28.278 7.90873 28.2848 7.89628 28.2889C7.85478 28.3026 7.81743 28.319 7.78146 28.3395L7.76486 28.3477C7.7538 28.3559 7.74826 28.3668 7.7372 28.375C7.70953 28.3969 7.6791 28.4229 7.65696 28.4529L7.63483 28.4803C7.62791 28.4912 7.61685 28.5008 7.61131 28.5117C7.60301 28.5281 7.60301 28.539 7.59471 28.5527C7.5878 28.5704 7.57535 28.5869 7.56981 28.6033L7.56151 28.6443C7.54215 28.7181 7.53385 28.7809 7.53385 28.8055V28.811C7.53938 28.8178 7.49235 28.9846 7.40935 29.098C7.3222 29.2237 7.21568 29.303 7.11885 29.2989L7.05798 29.2907L6.99711 29.2442C6.96115 29.1978 6.92795 29.1076 6.90443 29.016C6.88368 28.9231 6.87261 28.8411 6.86016 28.7796L6.72875 28.6538ZM7.70261 30.8487L7.82988 30.7202C7.87553 30.6656 7.91565 30.5754 7.91565 30.4783C7.91565 30.3868 7.84095 30.3102 7.74688 30.3075C7.60301 30.2993 7.57258 30.261 7.53938 30.2159L7.50203 30.0519V30.0492C7.49373 29.8961 7.6625 29.7021 7.80636 29.6392C7.94193 29.5709 8.15911 29.4752 8.3182 29.3932C8.38736 29.3604 8.42333 29.2893 8.41226 29.2155C8.4012 29.1431 8.3431 29.0857 8.27116 29.072C8.14943 29.0515 8.04015 29.0037 7.97236 28.949L7.87968 28.7919L7.90181 28.7099L7.94746 28.6443C7.95161 28.6402 7.953 28.6361 7.95853 28.6333L7.97651 28.6265C8.00418 28.6128 8.04153 28.5992 8.10516 28.5992H8.12591L8.21168 28.6087C8.27255 28.6142 8.35278 28.6279 8.44685 28.6402L8.52985 28.6511C8.61838 28.662 8.70968 28.6702 8.80236 28.6702C8.86738 28.6702 8.93516 28.6511 9.00156 28.6429C9.06381 28.6347 9.12606 28.6361 9.1897 28.6156L9.19661 28.6074L9.30451 28.4871L9.30175 28.4789L9.30866 28.4707L9.281 28.416L9.24918 28.3244L9.22566 28.3108V28.3067C9.20215 28.293 9.18831 28.2794 9.17033 28.2684C9.14266 28.2479 9.11915 28.2274 9.0984 28.2028L9.08041 28.1837C9.05966 28.1564 9.05275 28.129 9.04998 28.1085L9.04721 28.0894C9.04721 28.0798 9.05413 28.0689 9.05551 28.062C9.05966 28.0374 9.0652 28.0129 9.08318 27.9842C9.09978 27.9596 9.12883 27.9349 9.15788 27.9103C9.17171 27.8967 9.17863 27.8871 9.19385 27.8762C9.2312 27.8489 9.27685 27.8311 9.32665 27.8119C9.34463 27.8051 9.35846 27.7956 9.37921 27.7901C9.44838 27.7696 9.52308 27.7573 9.60055 27.7573H9.613C9.66833 27.7573 9.73058 27.771 9.78868 27.7846C9.83433 27.7942 9.87721 27.7983 9.92701 27.816L10.0003 27.8434C10.0792 27.8735 10.1594 27.9076 10.2438 27.95L10.2825 27.9691L10.396 28.0347C10.739 28.2493 11.0157 28.442 11.2426 28.6197L11.3007 28.6675C11.1706 28.6948 11.0378 28.7413 10.9189 28.8178C10.5813 29.0529 10.5094 29.4192 10.4305 29.6788C10.3918 29.8114 10.3517 29.9193 10.306 29.9795C10.2576 30.0342 10.2258 30.0615 10.1179 30.0683H10.093L9.95191 30.0383C9.90488 30.0137 9.84125 29.9645 9.75133 29.8743L9.53415 29.8469C9.41656 29.9193 9.35431 30.0342 9.32665 30.1339C9.28515 30.2815 9.28515 30.4168 9.25471 30.5139C9.22151 30.6095 9.19661 30.6642 9.0652 30.7257L9.00018 30.7366C8.93101 30.7366 8.82588 30.6956 8.7332 30.5098L8.5672 30.4114C8.46345 30.4155 8.3597 30.4633 8.29883 30.5398C8.2103 30.6533 8.20615 30.7681 8.19508 30.8624C8.18816 30.958 8.18125 31.0455 8.16465 31.0892L8.1605 31.0961C8.13283 31.1507 7.93916 31.2628 7.85616 31.2532C7.7455 31.2532 7.67633 31.23 7.64866 31.2081C7.62376 31.1835 7.60163 31.1603 7.59886 31.0619C7.60301 30.9389 7.63206 30.917 7.70123 30.8473M11.5566 36.683C11.5621 36.4261 11.6202 36.1131 11.8332 35.8124C12.0449 35.5117 12.1403 35.412 12.2206 35.3136C12.3036 35.2111 12.3631 35.1086 12.4557 34.8858C12.4889 34.8093 12.4599 34.7218 12.3893 34.6754L12.168 34.7027L12.0933 34.7792C11.9494 34.9227 11.5925 35.2029 11.3325 35.2248L11.1457 35.233L10.9659 35.2302C10.7625 35.2261 10.5232 35.2658 10.2562 35.4079C10.3143 35.315 10.3766 35.2412 10.4458 35.1824C10.6076 35.0416 10.8469 34.9473 11.1928 34.7697C11.4902 34.6139 11.735 34.5401 11.9896 34.2503C12.2275 33.977 12.298 33.7446 12.4779 33.4905C12.5429 33.3893 12.5678 33.2759 12.6024 33.1133C12.6951 32.639 12.7545 31.8231 12.7545 31.1945C12.7545 30.8774 12.7407 30.6164 12.6992 30.4455C12.6245 30.1449 12.6439 29.7868 12.388 29.3413C12.2261 29.0584 11.9591 28.7508 11.5054 28.3887C11.6534 28.4133 11.8 28.4297 11.9453 28.4352C11.966 28.4352 11.9896 28.442 12.0103 28.442C12.1168 28.4392 12.2123 28.4311 12.3008 28.4188H12.3146C12.3478 28.4133 12.3741 28.4023 12.4032 28.3969C12.4654 28.3832 12.5277 28.3737 12.5802 28.3559L12.5941 28.3422L12.5996 28.3395L12.6785 28.2575V28.2479L12.6826 28.2452C12.7103 28.1564 12.7379 28.0402 12.7615 27.8899C12.767 27.8543 12.7711 27.8106 12.7753 27.7668C12.7864 27.678 12.7919 27.5755 12.7933 27.4607H12.7974L12.8113 27.4566L12.9593 27.4238C12.9662 27.4197 12.969 27.4129 12.9759 27.4102L12.9939 27.4033C13.0215 27.3842 13.0437 27.3569 13.0686 27.3309C13.0796 27.3172 13.0935 27.309 13.1045 27.2954C13.1322 27.2639 13.1543 27.2229 13.1765 27.1792V35.576H13.1682C12.9427 35.576 12.6314 35.6033 12.3548 35.7619C12.1694 35.8712 12.002 36.0119 11.8388 36.2306C11.7475 36.3509 11.6562 36.4999 11.5593 36.6816M4.052 27.8953H5.87246V27.9035C5.87246 27.9828 5.89598 28.0593 5.93886 28.129C5.67603 28.3094 5.50311 28.58 5.4962 28.8602C5.49343 29.0269 5.5792 29.2073 5.74796 29.303C5.85863 29.3686 5.97483 29.4014 6.08411 29.3987C6.27363 29.3987 6.42718 29.3112 6.54061 29.2128C6.56136 29.1991 6.56828 29.1827 6.58626 29.1677L6.59456 29.2046C6.62223 29.2825 6.65681 29.3658 6.71353 29.441C6.76886 29.5162 6.85186 29.5859 6.9653 29.6146L7.1147 29.6337C7.18801 29.6337 7.25303 29.6173 7.31666 29.5927C7.22398 29.7157 7.15758 29.862 7.15066 30.0342V30.0424C7.15343 30.1162 7.16035 30.2474 7.24196 30.384C7.26271 30.4196 7.30698 30.4469 7.34156 30.4797L4.76303 30.4769C4.46838 29.6897 4.22768 28.8288 4.052 27.894M18.2561 36.0666C17.0249 37.1217 15.7937 37.8091 14.8752 38.23C14.4132 38.4405 14.0314 38.5854 13.7644 38.6756L13.7339 38.6852V36.1486L15.7204 37.3923L15.9168 37.3827L15.9791 37.1982L15.3912 35.2261L17.1826 33.9333L17.2462 33.7419C17.2227 33.6736 17.1563 33.6244 17.0802 33.6244H14.8641L14.0092 31.0906H21.8942C20.9536 33.2937 19.6048 34.9009 18.2561 36.0653M13.4531 17.6562H3.07813V24.3802C3.07398 30.5521 5.6373 34.3433 8.20753 36.5532C10.775 38.7672 13.3259 39.4204 13.3577 39.4286L13.4407 39.4505L13.5237 39.4286C13.5513 39.4204 16.1105 38.7658 18.6863 36.5545C21.2593 34.3474 23.8323 30.5549 23.8295 24.383V17.659L13.4531 17.6562Z" fill="white"/>
<path d="M19.6898 24.9219C19.6138 24.9219 19.546 24.9711 19.5238 25.0421C19.5059 25.1077 19.4132 25.2089 19.2472 25.269C19.1199 25.3168 18.9843 25.4002 18.8681 25.5246C18.7547 25.6476 18.6662 25.8252 18.6662 26.0302C18.6662 26.2489 18.7768 26.4225 18.8792 26.5496C18.9802 26.6767 19.0964 26.7751 19.1144 26.7956L19.1254 26.8202L19.0936 26.8885L19.0687 26.9227L18.9622 26.9527L18.9276 26.9322C18.9138 26.9104 18.8529 26.771 18.7644 26.6357C18.6731 26.499 18.5403 26.3432 18.33 26.2735C18.2539 26.2503 18.1779 26.238 18.1045 26.238C17.7933 26.2407 17.554 26.4184 17.4184 26.5865C17.3077 26.7231 17.1832 26.7778 17.1141 26.7778H17.1113C17.0352 26.7778 16.9688 26.8256 16.9453 26.8967L17.0145 27.088C17.0698 27.1236 17.139 27.2425 17.1445 27.4188C17.15 27.5554 17.186 27.7085 17.2732 27.8561C17.3562 27.9996 17.4945 28.1376 17.6951 28.2019L17.9067 28.2333C18.0727 28.2333 18.2207 28.1814 18.3383 28.1308C18.4531 28.0802 18.5514 28.0242 18.5693 28.0174L18.5887 28.0119L18.644 28.0529L18.6759 28.1021V28.1076L18.6786 28.1486L18.6648 28.2196L18.6399 28.2374C18.6122 28.2442 18.4601 28.2565 18.3051 28.2989C18.146 28.3426 17.9538 28.4219 17.821 28.5968C17.7214 28.7362 17.6826 28.892 17.6826 29.0342C17.6826 29.2392 17.7546 29.4196 17.8417 29.5508C17.9109 29.6546 17.9427 29.7558 17.9413 29.8268L17.9275 29.8952L17.9925 30.0892H18.1972C18.2318 30.0619 18.2941 30.04 18.3798 30.04L18.5555 30.0674C18.633 30.0879 18.7215 30.1002 18.8142 30.1002C19.0355 30.1002 19.3039 30.0264 19.4782 29.7886C19.5916 29.6328 19.6165 29.4565 19.6165 29.3061C19.6165 29.1148 19.575 28.9399 19.5723 28.9098V28.9002L19.6138 28.8551L19.676 28.8346H19.6829L19.7742 28.862L19.8047 28.9002V28.9084C19.8047 28.9399 19.759 29.1162 19.759 29.3048C19.759 29.4551 19.7839 29.6328 19.8973 29.7886C20.0716 30.0264 20.34 30.1029 20.5613 30.1002C20.654 30.1002 20.7412 30.0865 20.8186 30.066L20.9929 30.0414C21.0787 30.0414 21.1423 30.0633 21.1755 30.0892H21.383L21.4439 29.8979L21.4328 29.8296C21.4328 29.7585 21.4605 29.656 21.5338 29.5508C21.621 29.4209 21.6915 29.2419 21.6929 29.0369C21.6929 28.8934 21.6514 28.7362 21.5518 28.5996C21.4204 28.4219 21.2295 28.344 21.0704 28.2989C20.9127 28.2579 20.7619 28.2442 20.7356 28.2388L20.708 28.2224L20.6941 28.154L20.6997 28.113L20.7439 28.0447L20.7882 28.0146L20.8062 28.0187C20.8269 28.0283 20.9238 28.0843 21.0386 28.1349C21.1562 28.1855 21.3042 28.2374 21.4716 28.2374L21.6846 28.206C21.8824 28.1417 22.0221 28.0037 22.1065 27.8588C22.1895 27.7112 22.2283 27.5582 22.231 27.4215C22.2393 27.2438 22.3085 27.1277 22.3652 27.0935L22.4302 26.8994C22.4067 26.8311 22.3389 26.7805 22.2642 26.7819H22.2601C22.1951 26.7846 22.0692 26.7272 21.9627 26.5906C21.8271 26.4238 21.5864 26.2462 21.2765 26.2421C21.2018 26.2421 21.1244 26.253 21.0497 26.2762C20.8394 26.3446 20.7038 26.5017 20.6139 26.6384C20.5268 26.7751 20.4687 26.9145 20.4534 26.935L20.4175 26.9568L20.3414 26.9391L20.3193 26.9309L20.2529 26.8215L20.2667 26.7983C20.2805 26.7778 20.3967 26.6794 20.4991 26.5523C20.6015 26.4266 20.7094 26.2516 20.7107 26.033C20.7135 25.828 20.6236 25.6503 20.5102 25.5273C20.3967 25.4043 20.2612 25.3196 20.1325 25.2717C19.9665 25.2116 19.8724 25.1105 19.8558 25.0449C19.8323 24.9724 19.7645 24.9246 19.6898 24.9246V24.9219ZM19.6898 25.3893C19.777 25.4713 19.8835 25.5423 20.0122 25.5902C20.0869 25.6175 20.1837 25.6749 20.2529 25.7542C20.322 25.8307 20.3635 25.9209 20.3663 26.0302C20.3663 26.1259 20.311 26.2393 20.228 26.3377C20.145 26.4389 20.062 26.5086 20.0039 26.5701C19.9388 26.6425 19.9043 26.7368 19.907 26.8202C19.9181 27.0634 20.0869 27.1755 20.0952 27.1919L20.1021 27.1974L20.109 27.2042L20.127 27.2138C20.1408 27.2192 20.2487 27.2958 20.4175 27.2958C20.524 27.3026 20.6762 27.2438 20.7522 27.1072C20.7937 27.0361 20.8352 26.9336 20.9044 26.8243C20.9763 26.7177 21.0663 26.6288 21.1589 26.6001L21.2765 26.5824C21.4342 26.5783 21.6085 26.6958 21.6874 26.801C21.7731 26.9063 21.8714 26.9883 21.9779 27.0443C21.9267 27.1536 21.8949 27.2766 21.888 27.4092C21.8852 27.4871 21.8575 27.5964 21.805 27.6853C21.7524 27.7768 21.6805 27.8452 21.5753 27.8793L21.4716 27.893C21.3817 27.893 21.2738 27.8616 21.1811 27.8192C21.0842 27.7782 21.0123 27.7345 20.9487 27.7058L20.791 27.6716C20.625 27.6743 20.524 27.7714 20.4659 27.8424C20.4064 27.9162 20.3801 27.9791 20.376 27.99L20.3677 28.0174C20.3677 28.0256 20.3538 28.0789 20.3538 28.154C20.3538 28.2155 20.3608 28.2962 20.405 28.3809C20.4465 28.467 20.5406 28.549 20.6609 28.5722C20.7439 28.59 20.8546 28.5968 20.9791 28.631C21.1036 28.6624 21.217 28.7198 21.2738 28.7991C21.3263 28.8729 21.3485 28.9522 21.3485 29.0369C21.3485 29.1572 21.3 29.2856 21.2475 29.3622C21.1686 29.477 21.1271 29.5945 21.1091 29.7148C21.0676 29.7093 21.0317 29.7011 20.9929 29.7011C20.9058 29.7011 20.8131 29.7148 20.7232 29.738L20.5613 29.7599C20.4119 29.7599 20.2667 29.712 20.1782 29.589C20.127 29.5207 20.1035 29.4196 20.1048 29.3089C20.1048 29.1626 20.138 29.0328 20.1491 28.9426V28.9016C20.1533 28.7075 20.0039 28.5873 19.9029 28.5463C19.7977 28.5012 19.7092 28.4943 19.6995 28.4916H19.6719C19.658 28.4943 19.575 28.5012 19.4685 28.5463C19.3689 28.5873 19.2237 28.7103 19.225 28.9016L19.2278 28.9426C19.2361 29.0328 19.2693 29.1613 19.2693 29.3089C19.2693 29.4182 19.2486 29.5221 19.1974 29.5904C19.1088 29.7134 18.9622 29.7612 18.8142 29.7626L18.651 29.7407C18.5597 29.7161 18.4684 29.7025 18.3812 29.7025C18.3397 29.7025 18.3051 29.712 18.2678 29.7161C18.247 29.5986 18.2055 29.4797 18.1294 29.3649C18.0769 29.2884 18.0271 29.1599 18.0285 29.0396C18.0285 28.9535 18.0492 28.8756 18.1032 28.8018C18.1585 28.7226 18.2719 28.6652 18.3964 28.6324C18.5209 28.5968 18.6316 28.5914 18.7146 28.5736C18.8349 28.549 18.9304 28.467 18.9733 28.3823C19.0175 28.2962 19.0245 28.2155 19.0245 28.1527C19.0245 28.0775 19.0106 28.0242 19.0106 28.016L19.0023 27.9887C18.9982 27.9805 18.9705 27.9162 18.911 27.8424C18.8557 27.7714 18.7506 27.6743 18.5873 27.6716L18.4296 27.7058C18.3646 27.7331 18.2941 27.7782 18.1972 27.8192C18.1032 27.8602 17.9953 27.8944 17.9067 27.893L17.8002 27.8793C17.6965 27.8438 17.6245 27.7755 17.5706 27.6839C17.5194 27.5951 17.4917 27.4857 17.4903 27.4078C17.4848 27.2712 17.4516 27.1509 17.3977 27.0429C17.5056 26.9883 17.6052 26.9063 17.6882 26.7969C17.7712 26.6944 17.9441 26.5783 18.1032 26.581L18.2207 26.6001C18.3134 26.6275 18.4033 26.7163 18.4725 26.8229C18.5444 26.9322 18.5859 27.0347 18.6274 27.1058C18.7021 27.2425 18.8529 27.2999 18.9594 27.2944C19.1324 27.2917 19.2458 27.2124 19.2582 27.2083L19.2818 27.1905C19.2887 27.1769 19.4588 27.0621 19.4713 26.8188C19.4713 26.7368 19.4395 26.6411 19.3744 26.5687C19.3163 26.5086 19.2306 26.4389 19.149 26.3364C19.0701 26.238 19.0106 26.1245 19.0134 26.0289C19.0134 25.9195 19.0577 25.8293 19.1282 25.7514C19.1974 25.6735 19.2942 25.6148 19.3689 25.5874C19.4934 25.541 19.6041 25.4713 19.6898 25.3879V25.3893ZM19.741 27.2725C19.8614 27.3409 19.9444 27.4721 19.9444 27.621C19.9444 27.8438 19.7645 28.0215 19.5391 28.0215C19.3897 28.0215 19.2582 27.9395 19.1877 27.8219C19.2181 28.0638 19.427 28.2511 19.6815 28.2511C19.9554 28.2511 20.1795 28.0324 20.1795 27.7632C20.1795 27.5117 19.9859 27.304 19.7396 27.2753L19.741 27.2725Z" fill="white"/>
<path d="M61.5271 34.6406C61.4745 34.6406 61.4233 34.6406 61.3722 34.6475C60.971 34.6857 60.5837 34.8661 60.354 35.2023C60.1327 35.5235 60.094 35.9431 60.2157 36.3093C60.3457 36.6975 60.6556 36.9585 61.018 37.1334C61.35 37.2906 61.718 37.3931 62.0251 37.6036C62.3156 37.8045 62.4774 38.112 62.4207 38.4646C62.3654 38.8062 62.1109 39.0604 61.7706 39.1342C61.3832 39.219 60.9599 39.1151 60.6777 38.8336C60.5297 38.6832 60.4218 38.4946 60.3596 38.2951C60.3319 38.2076 60.2835 37.7525 60.087 37.8919C60.0151 37.9466 60.0276 38.0518 60.0345 38.1284C60.0428 38.2377 60.0455 38.3511 60.0483 38.4618C60.0538 38.6709 60.0386 38.8718 60.0165 39.0809C60.0082 39.167 60.0345 39.331 60.1645 39.2859C60.2475 39.2559 60.2821 39.1397 60.3277 39.0714C60.5103 39.1698 60.6833 39.2791 60.8811 39.3515C61.0789 39.4226 61.2864 39.4568 61.498 39.4568C61.9103 39.4568 62.3391 39.3392 62.66 39.0768C62.9671 38.8281 63.1414 38.4714 63.1511 38.0792C63.1608 37.7156 63.0308 37.3822 62.7859 37.1225C62.7444 37.0815 62.7029 37.0405 62.6587 37.0036C62.3128 36.7139 61.884 36.5526 61.4787 36.3681C61.1494 36.2178 60.7455 36.0292 60.7455 35.6164C60.7455 35.2775 61.018 35.0042 61.3403 34.9399C61.7138 34.8689 62.1081 35.0055 62.3363 35.3048C62.465 35.4743 62.512 35.6738 62.5936 35.8652C62.6268 35.9403 62.6877 36.0114 62.7735 35.9636C62.8523 35.9198 62.8496 35.8187 62.8509 35.7422C62.8537 35.5016 62.8274 35.2611 62.8454 35.0206C62.8509 34.9358 62.8675 34.8374 62.8233 34.7609C62.7818 34.6816 62.696 34.683 62.6351 34.7431C62.5798 34.8019 62.5494 34.8989 62.5286 34.9755C62.3446 34.8825 62.1786 34.7732 61.9794 34.7103C61.8314 34.6652 61.6779 34.642 61.5229 34.642L61.5271 34.6406ZM73.0447 34.709C72.9105 34.7062 72.7764 34.7172 72.6436 34.7226C72.3254 34.7363 72.0072 34.7418 71.6891 34.7472C71.2229 34.7541 70.7539 34.7554 70.2864 34.75C69.9336 34.7459 69.5809 34.739 69.2309 34.7267C69.0649 34.7199 68.8989 34.709 68.7329 34.7062C68.6222 34.7035 68.4936 34.7131 68.4673 34.8388C68.4451 34.9509 68.4617 35.078 68.4617 35.1914C68.4617 35.3171 68.459 35.4429 68.4617 35.57C68.4617 35.6451 68.4438 35.7955 68.5337 35.8324C68.6028 35.8597 68.6499 35.8078 68.6623 35.7504C68.6941 35.6 68.6997 35.4442 68.773 35.3089C68.9584 34.9782 69.4923 35.0219 69.8133 35.0219C69.9184 35.0192 70.0235 35.0192 70.1314 35.0192C70.2103 35.0192 70.3071 35.011 70.3832 35.0465C70.469 35.0875 70.4759 35.1832 70.48 35.2693C70.4897 35.7504 70.4897 37.702 70.4897 38.1981C70.4897 38.3962 70.5118 38.6354 70.4427 38.824C70.3832 38.988 70.2103 39.0317 70.0526 39.0536C69.9751 39.0645 69.8727 39.0591 69.8105 39.1137C69.7358 39.1766 69.7552 39.2873 69.8423 39.3256C69.9364 39.3666 70.0457 39.3351 70.1439 39.3283C70.2684 39.3201 70.3929 39.3146 70.5174 39.3146C70.7761 39.3064 71.0334 39.3064 71.2893 39.3119C71.4138 39.316 71.5355 39.3256 71.6572 39.3351C71.7513 39.3447 71.8952 39.3625 71.9643 39.2805C72.1345 39.0755 71.6738 39.055 71.5825 39.0317C71.3681 38.9798 71.2851 38.8513 71.2713 38.6395C71.2575 38.4044 71.2575 38.1666 71.2575 37.9316C71.2575 37.4327 71.2616 35.4579 71.2658 35.3144C71.2685 35.201 71.2561 35.1067 71.3833 35.0643C71.577 35.0001 71.8011 35.0206 72.0003 35.0233C72.1995 35.0233 72.4042 35.0233 72.5993 35.067C72.7874 35.108 72.9354 35.2037 73.0046 35.3896C73.042 35.4907 73.0503 35.5946 73.0696 35.7012C73.0862 35.7968 73.1886 35.9103 73.2591 35.7791C73.3089 35.6861 73.2771 35.5385 73.2771 35.4374V35.0684C73.2771 34.9809 73.2993 34.8552 73.2495 34.7773C73.208 34.7117 73.118 34.7062 73.0461 34.7062L73.0447 34.709ZM56.1985 34.7267C55.825 34.7267 55.3962 34.7582 54.912 34.7582C54.7875 34.7582 54.6685 34.7582 54.5482 34.7527C54.4735 34.7486 54.396 34.7418 54.3227 34.7554C54.295 34.7609 54.2618 34.7718 54.2397 34.791C54.1982 34.8279 54.1982 34.914 54.2397 34.9509C54.2812 34.9878 54.3531 34.996 54.4085 35.0028C54.45 35.0083 54.4942 35.0137 54.5399 35.0219C54.6588 35.0452 54.775 35.0903 54.8165 35.2174C54.8442 35.2994 54.8525 35.3923 54.8525 35.5413V38.5015C54.8525 38.6559 54.847 38.7516 54.8207 38.8336C54.7654 39.0003 54.5745 39.0386 54.4195 39.0577C54.3739 39.0632 54.3227 39.0686 54.2812 39.0905C54.2259 39.1178 54.1913 39.1889 54.212 39.249C54.2342 39.3133 54.3172 39.3338 54.378 39.3379C54.45 39.3433 54.5205 39.331 54.5911 39.3242L54.8055 39.3146C54.9507 39.3092 55.0987 39.3064 55.2454 39.3064C55.3934 39.3064 55.5386 39.3092 55.6853 39.3146L55.9343 39.331C56.0131 39.3365 56.103 39.3488 56.1805 39.331C56.2912 39.3037 56.3105 39.1397 56.2123 39.085C56.1819 39.0659 56.1432 39.0714 56.1086 39.0632C56.0159 39.0468 55.9191 39.0427 55.8319 39.003C55.7669 38.9757 55.6991 38.9169 55.6728 38.8336C55.6452 38.7516 55.6396 38.6559 55.6396 38.5015V37.2715L55.7337 37.2742C55.8444 37.2674 55.9509 37.3152 56.0131 37.4068L57.4698 39.2108C57.5721 39.331 57.6496 39.3297 57.7949 39.3338L58.113 39.3269C58.2237 39.3269 58.3371 39.3297 58.4492 39.3365C58.5377 39.3433 58.6926 39.3816 58.7604 39.3064C58.8213 39.2408 58.7604 39.1383 58.6954 39.1042C58.647 39.0768 58.593 39.0591 58.5405 39.0358C58.4132 38.9812 58.25 38.8992 58.1116 38.7406L56.7311 37.1416L56.8556 37.1143C57.3121 37.0159 57.7381 36.7631 57.8654 36.297C57.9941 35.8392 57.9 35.2802 57.4836 35.0014C57.2014 34.8128 56.767 34.7226 56.1971 34.724L56.1985 34.7267ZM74.7448 34.7295C74.6618 34.7336 74.5844 34.7568 74.5512 34.8251C74.4626 34.9932 74.7352 35.0301 74.8334 35.0575C75.0174 35.108 75.11 35.2488 75.1958 35.4073C75.2926 35.5891 75.3895 35.7709 75.4905 35.9499C75.7049 36.3298 75.9193 36.7111 76.1309 37.0911C76.178 37.1731 76.2236 37.2551 76.2748 37.3371C76.3205 37.4054 76.3716 37.4792 76.3799 37.5626C76.3938 37.6856 76.3799 37.8222 76.3799 37.9452V38.5684C76.3799 38.7188 76.373 38.8923 76.2319 38.9825C76.1517 39.0317 76.059 39.0481 75.9691 39.0536C75.8902 39.0591 75.7989 39.0604 75.7533 39.1329C75.7118 39.2012 75.7325 39.2859 75.8031 39.3242C75.8833 39.3652 75.9829 39.3433 76.0659 39.3338C76.1946 39.3201 76.3232 39.3174 76.4533 39.3146C76.7189 39.3078 76.9886 39.3064 77.2556 39.3201C77.3704 39.3256 77.4852 39.3392 77.6014 39.342C77.6706 39.342 77.7674 39.342 77.8034 39.2695C77.8726 39.137 77.7121 39.0782 77.6125 39.0563C77.4825 39.029 77.34 39.0345 77.2501 38.9197C77.1532 38.7939 77.1698 38.6122 77.1698 38.4632C77.1698 38.1666 77.156 37.866 77.1643 37.5708C77.1684 37.4532 77.2556 37.3576 77.3192 37.266C77.3953 37.1567 77.4659 37.0432 77.5364 36.9312C77.6789 36.7043 77.82 36.4761 77.9569 36.2478C78.0953 36.0182 78.2267 35.7886 78.3623 35.5604C78.4771 35.3636 78.5864 35.1531 78.8022 35.0479C78.8824 35.0096 78.982 34.9932 79.0539 34.9413C79.0927 34.914 79.1176 34.8675 79.112 34.8265C79.1079 34.7992 79.094 34.7773 79.065 34.7609C79.0014 34.724 78.9087 34.7472 78.8409 34.7527C78.7067 34.7636 78.5739 34.7705 78.4397 34.7705C78.2378 34.7705 78.033 34.7363 77.8338 34.75C77.7315 34.7582 77.535 34.8361 77.6637 34.9632C77.7564 35.0534 77.9224 35.0096 78.0261 35.0889C78.1783 35.2051 78.0565 35.4579 77.9888 35.5877C77.7564 36.0387 77.4811 36.4679 77.2141 36.8997C77.1477 37.0091 77.0896 37.1266 77.0121 37.2277C76.8932 37.0501 76.8074 36.8382 76.7078 36.6469L76.4035 36.0647L76.1226 35.5317C76.0562 35.4114 75.9539 35.2351 76.0479 35.1039C76.1489 34.9618 76.3315 35.0493 76.456 34.9673C76.5183 34.9263 76.539 34.8484 76.4906 34.7896C76.4353 34.7213 76.3315 34.7349 76.2527 34.7349C75.828 34.7349 75.4019 34.7841 74.9772 34.7459C74.9178 34.7404 74.8278 34.7254 74.7448 34.7281V34.7295ZM36.2328 34.7336C36.2052 34.7336 36.1775 34.739 36.1498 34.7472C36.0641 34.7746 36.0323 34.9085 36.1166 34.9604C36.1941 35.011 36.2965 34.9878 36.3836 35.0124C36.4639 35.0329 36.5386 35.0739 36.5884 35.1381C36.6783 35.2529 36.7032 35.4087 36.7032 35.6246V38.2022L34.0195 34.8812C33.9476 34.7896 33.8701 34.7554 33.7567 34.7541C33.6432 34.7541 33.5146 34.765 33.3735 34.765C33.2628 34.765 33.1522 34.7513 33.0415 34.7472C32.9696 34.7418 32.8949 34.7377 32.8229 34.7431C32.751 34.75 32.6887 34.7746 32.6708 34.8484C32.6459 34.9481 32.7302 34.9905 32.8188 35.0042C32.9128 35.0178 33.0124 35.0342 33.0982 35.0766C33.2033 35.1285 33.2877 35.2092 33.3527 35.3048L33.3693 35.3281V38.3894C33.3693 38.5671 33.361 38.6873 33.332 38.783C33.3043 38.8787 33.2393 38.9511 33.1494 38.9989L33.0387 39.0399H33.0318L32.9101 39.0632C32.8174 39.0809 32.6846 39.1479 32.7551 39.26C32.8215 39.3625 33.018 39.3338 33.119 39.3283C33.2435 39.3228 33.3652 39.3146 33.4883 39.3146C33.6322 39.3146 33.776 39.3201 33.9171 39.3283C33.9946 39.3338 34.0762 39.3488 34.1551 39.3324C34.2934 39.3051 34.3487 39.1274 34.1869 39.0809C34.0984 39.0563 34.0029 39.0536 33.9199 39.0126C33.8231 38.9634 33.7442 38.8896 33.7069 38.7885C33.6681 38.6873 33.6626 38.5698 33.6612 38.3976V35.6602L36.5413 39.1998C36.5856 39.2545 36.6326 39.3051 36.6797 39.357C36.7571 39.439 36.9425 39.4636 36.9895 39.3324C37.0061 39.2887 37.0034 39.2408 37.0034 39.1957V35.6301C37.0034 35.4661 37.0103 35.3568 37.0393 35.2666C37.067 35.1736 37.1334 35.108 37.2219 35.0657C37.2219 35.0657 37.3367 35.0247 37.3423 35.0247C37.4253 35.011 37.594 34.9973 37.6217 34.9044C37.6355 34.8634 37.6245 34.8197 37.5982 34.7882C37.5816 34.7705 37.5608 34.7582 37.5373 34.7541C37.5 34.7459 37.4585 34.7445 37.4197 34.7472C37.3782 34.7472 37.3367 34.7513 37.2952 34.7541C37.1763 34.7609 37.0559 34.765 36.9356 34.765C36.7862 34.765 36.6395 34.7568 36.4901 34.7459L36.3214 34.7349C36.2965 34.7349 36.266 34.7322 36.2384 34.7349L36.2328 34.7336ZM41.2045 34.7363C41.1132 34.7363 41.0164 34.7541 40.9555 34.7568C40.582 34.7732 40.2044 34.7732 39.8281 34.7609L39.5445 34.7472C39.4671 34.7431 39.3744 34.7336 39.3011 34.7705C39.2388 34.8005 39.1932 34.873 39.2361 34.9345C39.2706 34.9864 39.3412 34.9891 39.3965 34.996C39.5349 35.0096 39.6967 35.0124 39.8157 35.1012C39.9222 35.1805 39.9333 35.3253 39.9402 35.447V38.5042C39.9402 38.7024 39.9291 38.9279 39.7078 39.0099C39.5971 39.0509 39.4892 39.0509 39.3758 39.07C39.3149 39.0796 39.2651 39.1014 39.2374 39.1588C39.1406 39.3775 39.4754 39.3365 39.5874 39.331C39.7175 39.3228 39.8475 39.3174 39.9775 39.3146C40.2376 39.3078 40.4977 39.3092 40.7577 39.3174C40.8822 39.3215 41.0067 39.3269 41.1312 39.3365C41.2239 39.3447 41.3526 39.3611 41.4162 39.275C41.4632 39.2135 41.43 39.1465 41.3747 39.1083C41.3581 39.0946 41.3373 39.085 41.3152 39.0809C41.2045 39.0536 41.0856 39.0536 40.9735 39.0181C40.7384 38.9429 40.7218 38.7147 40.7218 38.5056V35.913V35.544C40.7218 35.4251 40.7218 35.2843 40.7771 35.1777C40.8559 35.0315 41.0261 35.0274 41.1686 35.0042C41.2516 34.9905 41.5089 34.955 41.4217 34.8128C41.3844 34.7527 41.2972 34.7363 41.2045 34.7363ZM66.9096 34.7363C66.817 34.7363 66.7201 34.7541 66.6606 34.7568C66.2844 34.7732 65.9095 34.7732 65.5332 34.7609L65.2469 34.7472C65.1694 34.7431 65.0767 34.7336 65.0034 34.7705C64.9439 34.8005 64.8969 34.873 64.9398 34.9345C64.9744 34.9864 65.0449 34.9891 65.1002 34.996C65.2413 35.0096 65.4046 35.0124 65.5208 35.1012C65.6273 35.1805 65.6397 35.3253 65.6453 35.447V38.5042C65.6453 38.7024 65.6356 38.9279 65.4129 39.0099C65.3022 39.0509 65.1943 39.0509 65.0809 39.07C65.0214 39.0796 64.9702 39.1014 64.9425 39.1588C64.8457 39.3775 65.1819 39.3365 65.2925 39.331C65.4212 39.3228 65.5512 39.3174 65.6799 39.3146C65.9427 39.3078 66.2014 39.3092 66.4614 39.3174C66.5859 39.3215 66.7104 39.3269 66.8349 39.3365C66.9276 39.3447 67.0563 39.3611 67.1199 39.275C67.1683 39.2135 67.1365 39.1465 67.0826 39.1083C67.0632 39.0946 67.0411 39.085 67.0217 39.0809C66.9069 39.0536 66.7893 39.0536 66.6786 39.0181C66.4435 38.9429 66.4255 38.7147 66.4255 38.5056V35.913V35.544C66.4255 35.4251 66.4255 35.2843 66.4808 35.1777C66.5583 35.0315 66.727 35.0274 66.8723 35.0042C66.9553 34.9905 67.2112 34.955 67.1241 34.8128C67.0853 34.7527 66.9996 34.7363 66.9069 34.7363H66.9096ZM28.0795 34.739C27.9508 34.7363 27.8028 34.7609 27.7447 34.7636C27.4929 34.7705 27.2426 34.7718 26.9908 34.7677C26.8331 34.7677 26.6726 34.7595 26.5163 34.75C26.4126 34.7459 26.1981 34.739 26.2396 34.9003C26.2742 35.0342 26.4914 35.0055 26.5965 35.0315C26.7695 35.0725 26.8566 35.1777 26.8774 35.3513C26.8912 35.4839 26.8857 35.6192 26.8857 35.7531V37.7525C26.8857 37.881 26.8815 38.0122 26.8912 38.1393C26.9189 38.4946 27.0434 38.8404 27.3242 39.0755C27.8706 39.5306 28.7532 39.5265 29.4089 39.3652C29.8737 39.2518 30.2292 38.9689 30.3952 38.5179C30.5335 38.1393 30.5473 37.732 30.5473 37.333V36.3763V35.5454C30.5473 35.4224 30.5418 35.2625 30.6165 35.1518C30.6898 35.0424 30.8102 35.037 30.9319 35.0219C31.0191 35.011 31.1698 34.9973 31.1906 34.8894C31.1961 34.862 31.1934 34.8388 31.1864 34.821C31.1477 34.7363 30.9859 34.7472 30.907 34.7527C30.575 34.7746 30.2527 34.7705 29.9248 34.7527C29.8197 34.7459 29.5749 34.7349 29.6288 34.9085C29.6662 35.0288 29.8418 35.0014 29.9387 35.0206C30.0355 35.0397 30.1323 35.0711 30.1946 35.1518C30.2748 35.2611 30.2693 35.421 30.2693 35.5454V37.6049C30.2651 38.1871 30.1005 38.7912 29.4863 38.9948C28.9662 39.167 28.15 39.1561 27.8374 38.6327C27.6534 38.3238 27.6672 37.9575 27.6672 37.6118V35.544C27.6672 35.3855 27.6645 35.1695 27.8222 35.0739C27.9425 35.0028 28.2897 35.0602 28.3105 34.8743C28.3243 34.7705 28.2109 34.7418 28.0809 34.7377L28.0795 34.739ZM49.1034 34.7418C49.0038 34.7349 48.882 34.7418 48.8682 34.847C48.8544 34.9618 48.9872 35.0001 49.0757 35.011C49.1781 35.0247 49.2791 35.0219 49.369 35.0793C49.5267 35.1805 49.5128 35.3937 49.5128 35.5536V38.4946C49.5128 38.645 49.5267 38.8472 49.3953 38.9525C49.2652 39.0536 49.0978 39.0167 48.9554 39.0782C48.8668 39.1151 48.8309 39.2422 48.9139 39.3037C49.0065 39.372 49.1587 39.3228 49.2638 39.3174L49.6373 39.3037C49.8808 39.2996 50.1257 39.301 50.3705 39.3037C50.7495 39.3037 51.1286 39.3078 51.509 39.3146L52.1937 39.3283C52.3113 39.3324 52.5396 39.3693 52.6295 39.2941C52.6765 39.2531 52.6738 39.1711 52.6751 39.1165C52.6779 38.9935 52.6821 38.8705 52.689 38.7475C52.6945 38.6409 52.772 38.2063 52.6032 38.168H52.5783C52.4718 38.168 52.4538 38.3211 52.4344 38.3949C52.4068 38.4974 52.368 38.5971 52.3072 38.6819C52.2007 38.8322 52.0402 38.9238 51.8645 38.9689C51.6736 39.0181 51.4744 39.0235 51.2807 39.0263C51.094 39.0263 50.8962 39.0304 50.7136 38.988C50.5849 38.9607 50.4646 38.8992 50.3913 38.783C50.3083 38.6463 50.3013 38.4782 50.2986 38.3224C50.2944 38.1202 50.2958 37.9179 50.2958 37.7143V37.0719C50.5863 37.0719 50.9543 37.0583 51.1645 37.2933C51.2392 37.3753 51.2835 37.4847 51.3139 37.5899C51.3333 37.6582 51.3388 37.7812 51.4135 37.8222C51.5173 37.8742 51.5657 37.7348 51.5699 37.6582C51.5768 37.445 51.538 37.2209 51.5311 37.0063C51.5256 36.7808 51.5353 36.5553 51.5519 36.3312C51.5588 36.2355 51.5795 36.1098 51.5463 36.0169C51.5187 35.9349 51.4246 35.9048 51.3637 35.9731C51.3222 36.0237 51.3139 36.0961 51.3015 36.1576C51.2877 36.2396 51.2655 36.3271 51.2296 36.4036C51.0732 36.7316 50.6804 36.7658 50.3581 36.789C50.3387 36.789 50.3166 36.7918 50.2958 36.7945C50.2861 36.4733 50.2958 36.1522 50.2958 35.831C50.2958 35.6725 50.2889 35.5126 50.2958 35.3527C50.2958 35.2597 50.2681 35.0739 50.3871 35.0452C50.5227 35.011 50.6859 35.0288 50.8229 35.0288C50.9612 35.0288 51.1037 35.0315 51.2434 35.0424C51.4675 35.0561 51.711 35.0834 51.888 35.2338C51.9904 35.3158 52.0513 35.4306 52.0817 35.5577C52.1011 35.6506 52.1232 35.8898 52.2837 35.8214C52.4137 35.7668 52.3348 35.5344 52.3279 35.436C52.3169 35.272 52.3459 35.1135 52.3418 34.9509C52.339 34.8169 52.256 34.7732 52.1343 34.7595C51.9821 34.7418 51.8327 34.7459 51.6819 34.7459L50.6887 34.7595C50.3525 34.7664 50.0178 34.7705 49.683 34.765C49.517 34.7623 49.3551 34.7554 49.1919 34.7459C49.1684 34.7459 49.1366 34.7418 49.1034 34.7404V34.7418ZM42.9946 34.7445C42.96 34.7445 42.9254 34.7445 42.8922 34.7472C42.7954 34.7568 42.7124 34.8224 42.7649 34.9249C42.8147 35.026 43.0001 35.0247 43.0928 35.0424C43.3625 35.0971 43.4386 35.3773 43.5216 35.6028L44.2271 37.4382C44.3475 37.7457 44.4651 38.0532 44.584 38.3621L44.7611 38.8213C44.8164 38.962 44.8607 39.1124 44.9312 39.2449C44.9866 39.357 45.0931 39.4882 45.2217 39.3912C45.3103 39.3256 45.3601 39.2135 45.4071 39.1178C45.4832 38.9579 45.5524 38.7898 45.6188 38.6258L45.7336 38.3429L46.0061 37.6733L46.3312 36.871C46.428 36.6387 46.5207 36.4064 46.6148 36.174C46.6618 36.0592 46.7074 35.9417 46.7572 35.8228C46.8306 35.6451 46.9053 35.462 47.0062 35.298C47.0547 35.2187 47.11 35.1408 47.1861 35.0903C47.2732 35.0329 47.3659 35.0288 47.46 35.0028C47.5651 34.9727 47.6536 34.8251 47.5195 34.7636C47.5139 34.7595 47.5056 34.7582 47.5001 34.7554C47.4171 34.7281 47.312 34.7554 47.229 34.7623C47.1224 34.7691 47.0145 34.7759 46.908 34.7759C46.7254 34.78 46.5442 34.7732 46.363 34.7582C46.2703 34.7513 46.1417 34.7172 46.0587 34.7787C45.9964 34.8265 46.0006 34.9208 46.0683 34.9618C46.1513 35.0096 46.2579 35.0028 46.345 35.0233C46.5414 35.067 46.5899 35.2201 46.5497 35.4005C46.5082 35.5877 46.4418 35.7695 46.3727 35.9472C46.3132 36.1057 46.2509 36.2615 46.1887 36.4159L45.9466 37.0214L45.6976 37.6418L45.4901 38.1448C45.4694 38.1994 45.4486 38.2568 45.4237 38.3129C45.4168 38.3306 45.4043 38.3921 45.3864 38.4044L45.3822 38.4154L45.2923 38.1694L45.0751 37.5776L44.8123 36.8628L44.584 36.2396L44.4678 35.9253C44.418 35.7845 44.3641 35.6383 44.3157 35.4934C44.2783 35.3732 44.2119 35.1996 44.3157 35.0916C44.4083 34.996 44.5508 35.0315 44.667 35.0055C44.7777 34.9837 44.8552 34.8279 44.7293 34.7623C44.6795 34.7349 44.6075 34.7486 44.555 34.7486C44.472 34.7554 44.389 34.7623 44.3087 34.7623C44.14 34.7718 43.9726 34.7759 43.8052 34.7759C43.6392 34.7787 43.4732 34.7759 43.3072 34.7677C43.2048 34.7636 43.0997 34.7445 42.9946 34.7404V34.7445ZM55.9841 34.9768C56.1404 34.9768 56.2995 35.0001 56.4433 35.0452C56.8058 35.1545 57.0036 35.4456 57.0492 35.8105C57.0907 36.1631 57.0465 36.5854 56.72 36.7972C56.4295 36.9845 56.0491 36.9913 55.7157 36.9913C55.6977 36.9913 55.6576 36.9995 55.6465 36.9858C55.6355 36.9722 55.6465 36.9079 55.6465 36.8902C55.6465 36.8246 55.6465 36.7562 55.6438 36.6893V36.2875C55.6438 36.0196 55.6438 35.7504 55.641 35.4811C55.641 35.3677 55.6382 35.2515 55.6479 35.1395C55.6576 35.0301 55.7309 34.9919 55.8333 34.9823C55.8845 34.9768 55.9357 34.9755 55.9855 34.9755L55.9841 34.9768Z" fill="white"/>
</svg>
