<svg width="86" height="67" viewBox="0 0 86 67" fill="none" xmlns="http://www.w3.org/2000/svg">
<path d="M35.4633 50.0568L35.4649 66.0192H39.9728V50.0571L35.4633 50.0568ZM7.21343e-06 50.0352V66.0192H4.54818V53.8823L8.07157 53.8835C9.23876 53.8835 10.07 54.1739 10.6324 54.7741C11.3455 55.5339 11.6365 56.7588 11.6365 59.0005V66.0192L16.0425 66.0184L16.0433 57.1881C16.0433 50.8851 12.0256 50.0352 8.09512 50.0352H7.21343e-06ZM42.7219 50.0574V66.0192H50.0337C53.9295 66.0192 55.201 65.3713 56.5761 63.9186C57.5482 62.8989 58.1762 60.6602 58.1762 58.2138C58.1762 55.9702 57.6446 53.9685 56.7171 52.7221C55.047 50.4931 52.6409 50.0574 49.0488 50.0574H42.7219ZM47.1936 53.533H49.1319C51.9439 53.533 53.7625 54.7958 53.7625 58.0722C53.7625 61.3495 51.9439 62.6123 49.1319 62.6123H47.1936V53.533ZM28.9635 50.0574L25.2012 62.7081L21.596 50.0582L16.7296 50.0574L21.8783 66.0192H28.3757L33.5647 50.0574H28.9635ZM60.274 66.0192H64.7827V50.0582L60.2729 50.0574L60.274 66.0192ZM72.9115 50.0631L66.6166 66.0137H71.0617L72.0576 63.1945H79.5074L80.4502 66.0137H85.2764L78.9334 50.0618L72.9115 50.0631ZM75.8378 52.9732L78.5687 60.4457H73.0208L75.8378 52.9732Z" fill="#F9F6EF"/>
<path d="M29.5075 12.6676V8.83276C29.8796 8.80639 30.2558 8.7865 30.639 8.77439C41.1271 8.44481 48.0081 17.7864 48.0081 17.7864C48.0081 17.7864 40.5763 28.1085 32.6081 28.1085C31.4604 28.1085 30.4334 27.9235 29.5076 27.6127V15.9843C33.5905 16.4775 34.4114 18.2811 36.8668 22.3728L42.3263 17.7697C42.3263 17.7697 38.3411 12.5428 31.623 12.5428C30.892 12.5428 30.1934 12.5944 29.5075 12.6676ZM29.5076 0V5.72802C29.8839 5.69815 30.2608 5.67439 30.6391 5.66059C45.2243 5.16925 54.7265 17.6222 54.7265 17.6222C54.7265 17.6222 43.8119 30.8942 32.4416 30.8942C31.3997 30.8942 30.4241 30.798 29.5076 30.6357V34.1764C30.2915 34.276 31.1034 34.3347 31.9508 34.3347C42.5325 34.3347 50.1847 28.9313 57.5947 22.5354C58.8223 23.5191 63.8523 25.9121 64.8867 26.9609C57.8407 32.8588 41.4218 37.6125 32.1136 37.6125C31.2165 37.6125 30.3538 37.5584 29.5076 37.477V42.4531H69.7256V0H29.5076ZM29.5076 27.6127V30.6357C19.7206 28.8908 17.0044 18.7175 17.0044 18.7175C17.0044 18.7175 21.7032 13.5112 29.5075 12.6676L29.5076 15.9843C29.5015 15.9843 29.4975 15.9828 29.4922 15.9828C25.3971 15.4909 22.1971 19.3175 22.1971 19.3175C22.1971 19.3175 23.9899 25.7588 29.5076 27.6127ZM12.1251 18.2766C12.1251 18.2766 17.9255 9.71769 29.5075 8.83276L29.5076 5.72802C16.6793 6.75749 5.57031 17.6222 5.57031 17.6222C5.57031 17.6222 11.8618 35.8119 29.5076 37.477V34.1764C16.5588 32.5472 12.1251 18.2766 12.1251 18.2766Z" fill="#76B900"/>
</svg>
